<?xml version="1.0" encoding="UTF-8" standalone="no"?>
<!-- Created with Inkscape (http://www.inkscape.org/) -->

<svg
   width="253.08691"
   height="159.9126"
   viewBox="0 0 66.962578 42.310207"
   version="1.1"
   id="svg1"
   inkscape:version="1.4.3 (0d15f75042, 2025-12-25)"
   sodipodi:docname="Erezi-studio_logo_v3.1.svg"
   xml:space="preserve"
   xmlns:inkscape="http://www.inkscape.org/namespaces/inkscape"
   xmlns:sodipodi="http://sodipodi.sourceforge.net/DTD/sodipodi-0.dtd"
   xmlns="http://www.w3.org/2000/svg"
   xmlns:svg="http://www.w3.org/2000/svg"><sodipodi:namedview
     id="namedview1"
     pagecolor="#ffffff"
     bordercolor="#999999"
     borderopacity="1"
     inkscape:showpageshadow="2"
     inkscape:pageopacity="0"
     inkscape:pagecheckerboard="0"
     inkscape:deskcolor="#d1d1d1"
     inkscape:document-units="mm"
     inkscape:zoom="0.49540378"
     inkscape:cx="10880.014"
     inkscape:cy="4326.7736"
     inkscape:window-width="1366"
     inkscape:window-height="699"
     inkscape:window-x="0"
     inkscape:window-y="0"
     inkscape:window-maximized="1"
     inkscape:current-layer="g1"
     showguides="false"><sodipodi:guide
       position="-3021.2762,1076.5597"
       orientation="0,-1"
       id="guide89"
       inkscape:locked="false" /><sodipodi:guide
       position="-3021.2762,1057.6884"
       orientation="0,-1"
       id="guide90"
       inkscape:locked="false" /><sodipodi:guide
       position="-3067.4611,1037.2491"
       orientation="0,-1"
       id="guide91"
       inkscape:locked="false" /><sodipodi:guide
       position="-2989.9423,1095.2003"
       orientation="1,0"
       id="guide160"
       inkscape:locked="false" /><sodipodi:guide
       position="-3021.2762,1083.9255"
       orientation="0,-1"
       id="guide171"
       inkscape:locked="false" /><sodipodi:guide
       position="-3013.0133,1144.8287"
       orientation="1,0"
       id="guide172"
       inkscape:locked="false" /><sodipodi:guide
       position="-3021.2762,1065.0541"
       orientation="0,-1"
       id="guide175"
       inkscape:locked="false" /><sodipodi:guide
       position="-3024.7083,1091.7419"
       orientation="1,0"
       id="guide224"
       inkscape:locked="false" /><sodipodi:guide
       position="-3052.9041,1076.553"
       orientation="1,0"
       id="guide225"
       inkscape:locked="false" /><sodipodi:guide
       position="-3055.0285,1076.7541"
       orientation="1,0"
       id="guide247"
       inkscape:locked="false" /><sodipodi:guide
       position="-3075.2193,1040.4764"
       orientation="1,0"
       id="guide275"
       inkscape:locked="false" /><sodipodi:guide
       position="-3075.6987,1040.4764"
       orientation="1,0"
       id="guide276"
       inkscape:locked="false" /><sodipodi:guide
       position="-3056.1343,1067.6064"
       orientation="0,-1"
       id="guide86"
       inkscape:locked="false" /><sodipodi:guide
       position="-3055.0217,1086.479"
       orientation="0,-1"
       id="guide87"
       inkscape:locked="false" /><sodipodi:guide
       position="-3067.4617,995.28128"
       orientation="0,-1"
       id="guide169"
       inkscape:locked="false" /><sodipodi:guide
       position="-3067.4612,988.15458"
       orientation="0,-1"
       id="guide170"
       inkscape:locked="false" /><sodipodi:guide
       position="-3067.4612,1011.1734"
       orientation="0,-1"
       id="guide173"
       inkscape:locked="false" /><sodipodi:guide
       position="-3067.4617,1018.3001"
       orientation="0,-1"
       id="guide176"
       inkscape:locked="false" /><sodipodi:guide
       position="-2957.7524,1039.5691"
       orientation="1,0"
       id="guide177"
       inkscape:locked="false" /><sodipodi:guide
       position="-3008.5831,1149.775"
       orientation="1,0"
       id="guide185"
       inkscape:locked="false" /><sodipodi:guide
       position="-2717.828,1144.2158"
       orientation="1,0"
       id="guide237"
       inkscape:locked="false" /><sodipodi:guide
       position="-3067.4611,1044.5813"
       orientation="0,-1"
       id="guide68"
       inkscape:locked="false" /><sodipodi:guide
       position="-3055.0217,1047.3695"
       orientation="0,-1"
       id="guide92"
       inkscape:locked="false" /><sodipodi:guide
       position="-3085.5923,1041.6408"
       orientation="1,0"
       id="guide114"
       inkscape:locked="false" /><sodipodi:guide
       position="-3074.8742,1040.4641"
       orientation="1,0"
       id="guide115"
       inkscape:locked="false" /><sodipodi:guide
       position="-3053.9702,1037.4501"
       orientation="1,0"
       id="guide116"
       inkscape:locked="false" /><sodipodi:guide
       position="-3066.4027,1021.2431"
       orientation="0,-1"
       id="guide117"
       inkscape:locked="false" /><sodipodi:guide
       position="-2752.3497,1100.0476"
       orientation="0,-1"
       id="guide174"
       inkscape:locked="false" /><sodipodi:guide
       position="-2773.704,1108.1261"
       orientation="0,-1"
       id="guide178"
       inkscape:locked="false" /><sodipodi:guide
       position="-2782.4518,1116.6088"
       orientation="0,-1"
       id="guide179"
       inkscape:locked="false" /><sodipodi:guide
       position="-3055.0285,1031.3626"
       orientation="0,-1"
       id="guide186"
       inkscape:locked="false" /><sodipodi:guide
       position="-3020.6539,1147.4716"
       orientation="1,0"
       id="guide4"
       inkscape:locked="false" /><sodipodi:guide
       position="-3013.3639,1238.8437"
       orientation="1,0"
       id="guide5"
       inkscape:locked="false" /><sodipodi:guide
       position="-3008.1475,1148.0793"
       orientation="1,0"
       id="guide81"
       inkscape:locked="false" /><sodipodi:guide
       position="-3001.1772,1148.0793"
       orientation="1,0"
       id="guide82"
       inkscape:locked="false" /><sodipodi:guide
       position="-3000.5069,1144.822"
       orientation="1,0"
       id="guide83"
       inkscape:locked="false" /><sodipodi:guide
       position="-2995.755,1144.822"
       orientation="1,0"
       id="guide84"
       inkscape:locked="false" /><sodipodi:guide
       position="-2994.9776,1144.822"
       orientation="1,0"
       id="guide85"
       inkscape:locked="false" /><sodipodi:guide
       position="-2992.9535,1144.822"
       orientation="1,0"
       id="guide88"
       inkscape:locked="false" /><sodipodi:guide
       position="-2993.9655,1289.374"
       orientation="0,-1"
       id="guide93"
       inkscape:locked="false" /><sodipodi:guide
       position="-3004.6623,1279.5686"
       orientation="0,-1"
       id="guide94"
       inkscape:locked="false" /><sodipodi:guide
       position="-2993.9655,1273.8959"
       orientation="0,-1"
       id="guide118"
       inkscape:locked="false" /><sodipodi:guide
       position="-3004.6623,1264.0905"
       orientation="0,-1"
       id="guide119"
       inkscape:locked="false" /><sodipodi:guide
       position="-3066.8524,1028.5656"
       orientation="0,-1"
       id="guide180"
       inkscape:locked="false" /><sodipodi:guide
       position="-3017.0141,1271.2017"
       orientation="0,-1"
       id="guide181"
       inkscape:locked="false" /><sodipodi:guide
       position="-2994.7415,1260.8233"
       orientation="0,-1"
       id="guide189"
       inkscape:locked="false" /><sodipodi:guide
       position="-3113.72,1248.4538"
       orientation="0,-1"
       id="guide190"
       inkscape:locked="false" /><sodipodi:guide
       position="-3119.1613,1258.2527"
       orientation="0,-1"
       id="guide191"
       inkscape:locked="false" /><sodipodi:guide
       position="-3158.1054,1305.5859"
       orientation="0,-1"
       id="guide372"
       inkscape:locked="false" /><sodipodi:guide
       position="-3177.5491,1268.1199"
       orientation="1,0"
       id="guide373"
       inkscape:locked="false" /><sodipodi:guide
       position="-3255.6399,1268.1199"
       orientation="1,0"
       id="guide374"
       inkscape:locked="false" /><sodipodi:guide
       position="-3105.2145,1333.0503"
       orientation="1,0"
       id="guide449"
       inkscape:locked="false" /><sodipodi:guide
       position="-2979.755,1018.5238"
       orientation="1,0"
       id="guide484"
       inkscape:locked="false" /><sodipodi:guide
       position="459.03611,956.70008"
       orientation="0,-1"
       id="guide621"
       inkscape:locked="false" /><sodipodi:guide
       position="-2967.8829,894.10758"
       orientation="0,-1"
       id="guide705"
       inkscape:locked="false" /><sodipodi:guide
       position="-2949.851,909.28448"
       orientation="0,-1"
       id="guide706"
       inkscape:locked="false" /><sodipodi:guide
       position="-2794.1563,927.20648"
       orientation="0,-1"
       id="guide742"
       inkscape:locked="false" /><sodipodi:guide
       position="-3448.8498,801.6459"
       orientation="0,-1"
       id="guide95"
       inkscape:locked="false" /><sodipodi:guide
       position="-3448.7804,801.51008"
       orientation="1,0"
       id="guide96"
       inkscape:locked="false" /><sodipodi:guide
       position="-3417.0673,801.6459"
       orientation="1,0"
       id="guide113"
       inkscape:locked="false" /><sodipodi:guide
       position="-3416.7575,807.99619"
       orientation="1,0"
       id="guide120"
       inkscape:locked="false" /><sodipodi:guide
       position="-3409.0094,796.02734"
       orientation="1,0"
       id="guide142"
       inkscape:locked="false" /><sodipodi:guide
       position="-3424.9221,739.68573"
       orientation="0,-1"
       id="guide263"
       inkscape:locked="false" /><sodipodi:guide
       position="-3422.4892,738.36493"
       orientation="0,-1"
       id="guide264"
       inkscape:locked="false" /><sodipodi:guide
       position="-3430.063,734.69545"
       orientation="0,-1"
       id="guide265"
       inkscape:locked="false" /><sodipodi:guide
       position="-3432.2564,736.01625"
       orientation="0,-1"
       id="guide266"
       inkscape:locked="false" /><sodipodi:guide
       position="-2922.5309,597.36451"
       orientation="0,-1"
       id="guide925"
       inkscape:locked="false" /><sodipodi:guide
       position="-1806.3219,718.24919"
       orientation="1,0"
       id="guide1236"
       inkscape:locked="false" /><sodipodi:guide
       position="-1743.2971,712.66444"
       orientation="1,0"
       id="guide1237"
       inkscape:locked="false" /><sodipodi:guide
       position="1245.1063,1223.4401"
       orientation="0,-1"
       id="guide648"
       inkscape:locked="false" /><sodipodi:guide
       position="-3153.0695,603.63393"
       orientation="0,-1"
       id="guide841"
       inkscape:locked="false" /><sodipodi:guide
       position="-1690.3187,250.51313"
       orientation="0,-1"
       id="guide1125"
       inkscape:locked="false" /><sodipodi:guide
       position="-714.11208,201.5805"
       orientation="1,0"
       id="guide1126"
       inkscape:locked="false" /><sodipodi:guide
       position="-1079.9646,-142.15097"
       orientation="1,0"
       id="guide915"
       inkscape:locked="false" /><sodipodi:guide
       position="-1058.7897,-145.98607"
       orientation="1,0"
       id="guide916"
       inkscape:locked="false" /><sodipodi:guide
       position="-927.49868,-143.02787"
       orientation="1,0"
       id="guide917"
       inkscape:locked="false" /><sodipodi:guide
       position="-1060.4579,-141.35457"
       orientation="1,0"
       id="guide918"
       inkscape:locked="false" /><sodipodi:guide
       position="-1188.176,-394.54106"
       orientation="0,-1"
       id="guide1175"
       inkscape:locked="false" /><sodipodi:guide
       position="-1690.3187,266.9871"
       orientation="0,-1"
       id="guide638"
       inkscape:locked="false" /><sodipodi:guide
       position="-1690.3185,-185.51997"
       orientation="0,-1"
       id="guide639"
       inkscape:locked="false" /><sodipodi:guide
       position="-1690.3195,-169.04497"
       orientation="0,-1"
       id="guide640"
       inkscape:locked="false" /><sodipodi:guide
       position="-1643.13,44.445637"
       orientation="0,-1"
       id="guide919"
       inkscape:locked="false" /><inkscape:page
       x="0"
       y="0"
       width="66.962578"
       height="42.310207"
       id="page1"
       margin="0"
       bleed="0" /></sodipodi:namedview><defs
     id="defs1" /><g
     id="g1"
     inkscape:groupmode="layer"
     inkscape:label="1"
     transform="matrix(0.26458333,0,0,0.26458333,-2683.2883,-1140.1773)"><g
       id="g1085"
       transform="matrix(0.5139721,0,0,0.5139721,8172.1341,1402.9269)"
       inkscape:export-filename="erezi-logo-v5.3-v-blanc.png"
       inkscape:export-xdpi="96"
       inkscape:export-ydpi="96"><path
         id="path1074"
         style="opacity:1;fill:#ffffff;stroke-width:0.785916;stroke-linecap:round;stroke-miterlimit:5.3;paint-order:markers fill stroke"
         d="m 3927.3477,5654.7937 -0.041,0.018 c -0.1644,0.031 -16.0032,4.043 -28.6075,14.8476 -8.9751,7.6508 -16.5397,18.8158 -15.7285,34.5157 1.3618,14.6053 4.6316,18.1768 6.4961,25.875 0.643,4.8953 -0.9444,10.323 -8.4512,11.2773 -10.1086,1.0773 -15.8582,-7.7034 -12.0371,-20.4355 -6.1988,3.9694 -11.4011,8.3741 -15.7539,13.041 -21.4645,22.8411 -22.5383,52.023 -20.9453,67.0957 1.92,18.1688 11.8892,39.5972 32.1328,54.7949 7.6088,5.712 15.6017,8.9456 23.1035,10.7266 0.8452,0.2081 2.106,0.4649 3.6153,0.7226 -11.3399,-2.2708 -21.3136,-7.7312 -29.9844,-16.4023 -8.642,-8.6416 -14.0923,-18.5589 -16.377,-29.8106 -0.8254,-4.065 -1.2382,-8.3044 -1.2382,-12.7207 0,-16.7191 5.8515,-30.8735 17.6152,-42.6367 11.7629,-11.7633 25.9219,-17.617 42.6406,-17.6172 v -0.01 c 16.6397,2e-4 30.7676,5.8495 42.5332,17.6152 7.8369,7.7855 13.0651,16.6184 15.7032,26.5488 1.3479,5.0739 2.0175,10.4344 2.0175,16.0879 0,1.2921 0.037,1.7816 0.074,2.0137 v 0.023 c -0.05,0.1727 -0.1322,0.4753 -0.2676,1.0977 h -88.4278 c 0.035,0.2939 0.075,0.5881 0.1192,0.8808 0.051,0.3655 0.1087,0.7303 0.1738,1.0938 2.3489,13.1087 14.059,24.7943 29.6133,24.6758 8.0217,-0.063 16.3593,-3.4254 22.4531,-10.2285 0.2988,-0.3345 0.7445,-0.5809 1.2129,-0.6719 0.4685,-0.089 0.9402,-0.026 1.3145,0.1816 l 22.2539,12.3438 0.5918,0.3281 c 0.3726,0.2071 0.5966,0.512 0.6796,0.8496 0.082,0.3377 0.026,0.6996 -0.2148,1.043 -6.2147,8.8676 -13.4572,15.4915 -21.75,19.9043 -3.8552,2.0514 -8.2819,3.9731 -13.4551,4.9746 -1.2692,0.2457 -3.9823,0.7772 -4.0722,0.8398 v 0 0 0 0 c 0.069,0.011 0.8364,-0.1027 2.8105,-0.4355 5.3351,-0.8996 11.2526,-2.6134 17.3867,-5.3946 8.9892,-4.7688 40.542,-18.5804 41.3164,-65.7812 0.3026,-18.4334 -5.7216,-37.7068 -20.2714,-55.2734 0,0 0.1954,0.6414 0.4394,1.9296 0.1064,0.5527 0.2596,1.2196 0.3359,2.0137 v 0.1172 c 0.923,10.7812 -6.3016,12.5823 -10.4218,10.5606 -2.5123,-1.233 -4.2633,-3.1648 -5.1582,-5.5567 -0.5059,-1.3516 -0.7349,-2.8533 -0.6758,-4.457 0.6811,-5.6494 4.8649,-7.7021 7.5351,-12.0215 5.9226,-9.5811 1.8794,-19.6183 -1.3789,-23.9102 -10.1713,-13.3979 -20.7844,-16.5884 -24.625,-31.1738 -2.241,-8.5121 0.8192,-16.6016 5.7149,-23.5039 z m -22.1524,123.375 v 0.01 c -9.6644,0 -17.6596,4.3257 -23.6875,11.6211 -0.3475,0.4197 -0.6858,0.8455 -1.0156,1.2793 1.0195,-0.01 0.5957,-0.01 1.6152,-0.018 15.2077,-0.1149 15.205,-0.118 28.1289,-0.209 8.616,-0.064 16.2325,-0.1133 17.6172,-0.1133 0.4848,0 0.9686,0.01 1.4532,0.021 -0.2614,-0.4236 -0.5383,-0.8376 -0.8282,-1.2422 -4.6992,-6.6244 -13.6331,-11.3457 -23.2832,-11.3457 z" /><path
         style="fill:#ffffff;fill-opacity:1;stroke-width:0.785916;stroke-linecap:round;stroke-miterlimit:5.3;paint-order:markers fill stroke"
         d="m 4316.3609,5751.4753 -26.2866,0.075 c -2.154,0 -3.8783,1.7427 -3.8789,3.8977 v 105.1998 c -8e-4,2.0046 1.6065,3.6154 3.6107,3.6146 h 26.823 c 2.0047,8e-4 3.6115,-1.6102 3.6107,-3.6146 v -105.3131 c 0,-2.1457 -1.732,-3.8646 -3.8789,-3.86 z"
         id="path1075" /><path
         style="fill:#ffffff;fill-opacity:1;stroke-width:0.785916;stroke-linecap:round;stroke-miterlimit:5.3;paint-order:markers fill stroke"
         d="m 4189.9843,5751.3593 c -2.6217,-2e-4 -4.8908,1.7932 -5.499,4.3434 l -4.7815,20.0246 c -0.2452,1.0249 0.019,2.0097 0.6043,2.7535 0.5871,0.7437 1.4808,1.2316 2.5343,1.2312 h 37.5757 l -47.4938,79.4192 c -0.6567,1.0988 -0.5834,2.3037 -0.041,3.2669 0.5455,0.963 1.5408,1.6524 2.8211,1.6543 h 89.1334 c 2.6455,8e-4 4.954,-1.7721 5.6351,-4.3283 l 5.9787,-22.4343 c 0.2671,-1.0022 0.023,-1.9714 -0.5439,-2.708 -0.5674,-0.7365 -1.4476,-1.2258 -2.4851,-1.2236 h -46.372 l 45.6053,-77.0626 c 0.6552,-1.1071 0.5894,-2.3192 0.039,-3.2859 -0.5515,-0.9666 -1.5577,-1.651 -2.844,-1.6504 z"
         id="path1076" /><path
         style="fill:#ffffff;fill-opacity:1;stroke-width:0.785916;stroke-linecap:round;stroke-miterlimit:5.3;paint-order:markers fill stroke"
         d="m 4114.0058,5747.1292 v 0 c -16.7187,2e-4 -30.8774,5.8556 -42.6403,17.6189 -11.7637,11.7632 -17.6152,25.9175 -17.6152,42.6366 0,16.6399 5.8511,30.7674 17.6152,42.5311 11.7631,11.7635 25.9214,17.615 42.6403,17.615 10.4383,0 19.7843,-2.2116 28.0771,-6.6244 8.2928,-4.4128 15.536,-11.0364 21.7507,-19.904 0.2407,-0.3434 0.2974,-0.7048 0.2154,-1.0425 -0.083,-0.3376 -0.3073,-0.6425 -0.6799,-0.8496 l -22.8462,-12.6715 c -0.3743,-0.2076 -0.8456,-0.2703 -1.3141,-0.1817 -0.4684,0.091 -0.9137,0.3376 -1.2125,0.6721 -6.0938,6.8031 -14.4315,10.1645 -22.4532,10.2278 -15.9856,0.1218 -27.9118,-12.2243 -29.7879,-25.7694 -0.044,-0.2927 -0.083,-0.586 -0.118,-0.8799 h 88.427 c 0.1354,-0.6224 0.2187,-0.9264 0.2682,-1.0991 v -0.023 c -0.037,-0.2321 -0.075,-0.7209 -0.075,-2.013 0,-16.7182 -5.8799,-30.8733 -17.721,-42.6368 -11.7656,-11.7657 -25.895,-17.6149 -42.5347,-17.6151 z m 1.4087,30.0815 c 9.6501,0 18.585,4.7212 23.2842,11.3456 0.2899,0.4046 0.5658,0.819 0.8272,1.2426 -0.4846,-0.014 -0.9694,-0.022 -1.4542,-0.023 -1.3847,0 -8.9992,0.05 -17.6152,0.1141 -12.9239,0.091 -12.922,0.093 -28.1297,0.2079 -1.0195,0.012 -0.5971,0.01 -1.6166,0.019 0.3298,-0.4338 0.6685,-0.8606 1.016,-1.2803 6.0279,-7.2954 14.0239,-11.6212 23.6883,-11.6212 z"
         id="path1077" /><path
         style="fill:#ffffff;fill-opacity:1;stroke-width:0.785916;stroke-linecap:round;stroke-miterlimit:5.3;paint-order:markers fill stroke"
         d="m 4036.5278,5746.7818 c -16.2712,0.8108 -28.3734,5.4316 -36.42,13.7891 -8.0465,8.3572 -12.1124,20.5225 -12.1124,36.643 v 62.8728 c -10e-4,2.1996 1.7665,3.9667 3.9657,3.9657 h 26.2453 c 2.1828,0 3.9371,-1.7495 3.9392,-3.9317 v -62.9068 c 0,-12.6364 4.7942,-19.3502 14.3482,-19.7416 h 2.047 c 1.0286,0.05 1.9686,0.1605 2.8554,0.3361 1.2059,0.2355 2.1339,0.116 2.7005,-0.238 0.2833,-0.176 0.4936,-0.4059 0.6532,-0.7403 0.1585,-0.3345 0.2682,-0.7882 0.2682,-1.3785 v -23.9376 c 0,-1.127 -0.4626,-2.26 -1.2123,-3.1158 -0.7497,-0.8559 -1.767,-1.4215 -2.8667,-1.4956 -1.5596,-0.1044 -2.9343,-0.1199 -4.4113,-0.1199 z"
         id="path1083" /><path
         style="fill:#ffffff;fill-opacity:1;stroke-width:0.785916;stroke-linecap:round;stroke-miterlimit:5.3;paint-order:markers fill stroke"
         d="m 4302.6057,5700.489 c -3.298,0 -6.2385,0.7739 -8.868,2.3379 -2.6422,1.5706 -4.8111,3.7402 -6.5376,6.5453 -1.557,2.6902 -2.3378,5.6757 -2.3378,8.9737 0,3.2151 0.8108,6.2247 2.4587,9.0909 1.5725,2.716 3.7066,4.8831 6.4281,6.5301 2.6257,1.5613 5.5599,2.3493 8.8566,2.3493 3.291,0 6.2577,-0.8232 8.9663,-2.4627 2.7254,-1.6494 4.8593,-3.7802 6.4318,-6.4242 1.5613,-2.626 2.3493,-5.6326 2.3493,-9.0834 0,-3.2966 -0.7885,-6.2796 -2.3568,-8.9888 -1.6476,-2.794 -3.7774,-4.9612 -6.4167,-6.5302 -2.7011,-1.564 -5.6759,-2.3379 -8.9739,-2.3379 z"
         id="path1084" /><path
         id="path1085"
         style="font-size:54.5772px;line-height:1.5em;font-family:Baltore;-inkscape-font-specification:Baltore;text-align:center;letter-spacing:0px;word-spacing:0px;text-anchor:middle;fill:#ffffff;fill-opacity:1;stroke-width:52.5536;stroke-linecap:round;stroke-miterlimit:5.3;paint-order:markers fill stroke"
         d="m 4244.908,5879.8647 c -1.696,0 -3.2032,0.3978 -4.5561,1.2021 -1.3589,0.8079 -2.4784,1.9241 -3.3658,3.3656 -0.8008,1.3835 -1.2018,2.9189 -1.2018,4.6143 0,1.6533 0.4166,3.2008 1.264,4.6746 0.808,1.396 1.9097,2.5111 3.3093,3.3581 1.3503,0.803 2.855,1.2078 4.5504,1.2078 1.6926,0 3.216,-0.4231 4.6085,-1.266 1.4015,-0.8483 2.505,-1.9447 3.3132,-3.3034 0.8028,-1.3499 1.2043,-2.8959 1.2043,-4.6711 0,-1.6954 -0.4017,-3.2295 -1.2082,-4.622 -0.8467,-1.436 -1.9458,-2.5507 -3.3034,-3.3579 -1.389,-0.8043 -2.9183,-1.2021 -4.6144,-1.2021 z m -28.1526,3.1055 c -1.1847,0 -2.1414,0.9456 -2.1421,2.1305 v 22.2758 l -1.8742,-0.8099 -1.3049,-0.571 c -4.0804,-1.4707 -8.2522,-2.2061 -12.5187,-2.2061 -4.3146,0 -8.5123,0.7393 -12.6002,2.216 -3.966,1.4726 -7.5369,3.6398 -10.7129,6.5136 -3.1364,2.8342 -5.5652,6.1362 -7.3023,9.9125 -1.7738,3.8111 -2.6644,7.8973 -2.6644,12.2795 0,4.5 0.8726,8.6094 2.6064,12.3404 1.7367,3.7383 4.1876,7.0588 7.364,9.971 3.2138,2.9108 6.7805,5.0782 10.7092,6.5136 3.9768,1.5526 8.1721,2.3325 12.6002,2.3325 5.7888,0 11.2464,-1.3635 16.3929,-4.0881 5.1466,-2.6866 9.2165,-6.3838 12.2396,-11.1069 3.0207,-4.6443 4.5498,-9.8203 4.5867,-15.5643 v -49.9466 c 0,-1.1887 -0.9528,-2.1455 -2.1417,-2.1497 z m -139.3569,0.4017 c -1.1779,0 -2.1261,0.9355 -2.1268,2.1132 v 20.6348 l -6.3001,0.1559 c -0.097,0.022 -0.2152,0.031 -0.3362,0.031 -0.9873,0.044 -4.2476,-0.086 -11.4639,-2.6199 -0.3259,-0.1142 -0.6641,-0.2336 -1.0039,-0.3571 -0.04,-0.022 -0.075,-0.029 -0.112,-0.039 h -0.024 a 33.226634,33.226634 0 0 0 -0.061,-0.024 c -2.6177,-0.8737 -5.7244,-1.548 -10.229,-1.548 -4.0833,0 -7.8339,0.718 -11.2622,2.1498 -3.3394,1.3884 -6.0497,3.552 -8.1508,6.516 -2.0503,2.9454 -3.0802,6.5292 -3.0802,10.7863 0,5.6003 1.2711,9.6726 3.7385,12.2879 2.5515,2.7013 5.6719,4.5548 9.3937,5.5698 4.664,1.2618 8.0638,2.1636 10.2,2.6976 3.1307,0.832 4.836,2.2146 4.836,4.2239 0,1.7825 -0.7522,3.1461 -2.2432,4.0435 -1.4625,0.8799 -3.5968,1.2915 -6.3602,1.2915 -4.5431,0 -8.5049,-1.3793 -11.872,-4.1481 -0.4184,-0.3442 -0.8915,-0.4933 -1.3266,-0.4566 -0.4353,0.035 -0.837,0.2455 -1.1498,0.6723 l -6.5698,8.9665 c -0.6244,0.8515 -0.4601,2.069 0.3861,2.6838 3.5421,2.5717 6.775,4.2978 10.2563,5.3835 3.4815,1.0861 7.2162,1.5342 11.7653,1.5342 2.6763,0 7.3722,-0.4804 11.8952,-2.5869 3.0157,-1.4046 5.9509,-3.5261 8.2035,-6.71 2.1681,-3.0659 3.257,-6.6842 3.257,-10.8991 0,-5.7159 -1.2712,-9.8321 -3.7349,-12.4058 -2.4725,-2.585 -5.5558,-4.3612 -9.2795,-5.3392 -3.4391,-0.8404 -6.865,-1.7358 -10.2736,-2.6932 -1.5755,-0.4474 -2.9302,-1.0831 -3.7828,-2.0141 -0.8762,-0.9565 -1.1903,-2.1916 -0.738,-3.7231 1.1315,-3.8338 5.7354,-3.9957 10.2872,-3.1889 1.928,0.3419 3.8672,1.0634 5.6144,1.8179 1.4215,0.6464 2.7305,1.1505 4.2667,1.5342 1.2563,0.3141 2.6631,0.5497 4.4031,0.7127 1.2543,0.1186 2.687,0.1977 4.3521,0.2427 0,0 0.022,0 0.04,0 2.3245,0.057 4.6838,0.1164 6.0594,0.1054 a 39.704814,39.704814 0 0 0 0.4022,0 v 21.3981 c 0,5.4233 0.9354,9.8541 2.7694,13.2974 1.8375,3.4874 4.5327,6.076 8.1334,7.8013 2.7387,1.2941 5.6022,2.031 8.5205,2.3266 2.4949,0.2528 5.0299,0.1823 7.5545,-0.1493 0.4318,-0.055 0.8921,-0.3071 1.2605,-0.6642 0.3679,-0.3576 0.6382,-0.816 0.7241,-1.2511 l 2.7424,-13.8838 c 0.042,-0.222 0.035,-0.3977 0,-0.5225 -0.033,-0.123 -0.086,-0.2021 -0.1559,-0.2662 -0.1472,-0.1296 -0.4424,-0.2152 -0.9032,-0.1384 -0.8636,0.145 -1.8634,0.2219 -2.9985,0.2219 -6.7045,0 -10.1512,-2.7539 -10.1512,-8.1998 v -19.961 h 9.0058 c 0.8937,0 1.6657,-0.6088 1.8757,-1.4777 l 2.8709,-11.8682 c 0.081,-0.3338 2e-4,-0.6518 -0.1955,-0.893 -0.1911,-0.2416 -0.4803,-0.3991 -0.8234,-0.3982 h -12.7344 v -20.5281 c 9e-4,-1.1867 -0.9506,-2.1428 -2.1362,-2.1503 z m 213.5199,20.2408 c -4.2744,0 -8.4563,0.7545 -12.5438,2.2682 -4.0071,1.5122 -7.5749,3.6843 -10.7131,6.5196 -3.0973,2.7955 -5.5281,6.0967 -7.3041,9.9125 -1.7725,3.81 -2.6627,7.9153 -2.6627,12.3362 0,5.8971 1.5298,11.2084 4.5874,15.9644 3.0233,4.7238 7.0932,8.4388 12.2391,11.1627 5.1464,2.7246 10.6082,4.0864 16.3972,4.0864 4.4277,0 8.6195,-0.7767 12.5885,-2.3266 3.9362,-1.476 7.5042,-3.6482 10.7202,-6.5235 3.1726,-2.9083 5.6238,-6.2472 7.3607,-10.023 1.7345,-3.7325 2.6065,-7.8404 2.6065,-12.3404 0,-4.4209 -0.8902,-8.5262 -2.6627,-12.3362 -1.7382,-3.7778 -4.1709,-7.1023 -7.308,-9.9747 -3.1743,-2.8718 -6.741,-5.0172 -10.709,-6.4536 -4.0905,-1.5149 -8.2832,-2.272 -12.5962,-2.272 z m -177.4805,2.4099 c -1.3457,2e-4 -2.4279,1.0822 -2.4279,2.4279 v 31.3648 c 0,8.251 2.0894,14.4878 6.2283,18.7861 4.1395,4.2979 10.3663,6.6915 18.753,7.1466 h 1.0099 c 8.3658,-0.4546 14.5925,-2.8487 18.7318,-7.1466 4.1389,-4.2983 6.2281,-10.5351 6.2281,-18.7861 v -31.3648 c 0,-1.3457 -1.0841,-2.4279 -2.4294,-2.4279 h -12.703 c -1.346,0 -2.4279,1.0822 -2.4279,2.4279 v 31.3648 c 0,6.4993 -2.4721,9.9321 -7.3858,10.0931 h -1.0448 c -4.927,-0.1648 -7.3959,-3.594 -7.3959,-10.0931 v -31.3648 c 0,-1.3457 -1.0822,-2.4277 -2.4275,-2.4279 z m 138.5392,0.059 -13.5128,0.039 c -1.1081,0 -1.9943,0.8962 -1.9946,2.0042 v 54.095 c -6e-4,1.031 0.8261,1.8593 1.8567,1.8586 h 13.7908 c 1.0306,7e-4 1.8588,-0.8278 1.8584,-1.8586 v -54.1532 c 0,-1.1045 -0.8933,-1.9892 -1.9985,-1.9846 z m 38.9413,13.3615 c 2.7861,0 5.3745,0.6883 7.7699,2.0626 2.4274,1.3706 4.3644,3.2076 5.8169,5.5235 1.4553,2.3211 2.185,4.8602 2.185,7.6129 0,4.2041 -1.5784,7.8272 -4.7137,10.8446 -3.091,3.013 -6.787,4.5292 -11.0581,4.5292 -4.2336,0 -7.9173,-1.5148 -11.0099,-4.5292 -3.1333,-3.0156 -4.7057,-6.6407 -4.7057,-10.8446 0,-2.7527 0.7294,-5.2918 2.1847,-7.6129 1.4525,-2.3159 3.3906,-4.1516 5.8207,-5.5235 2.4309,-1.3725 4.9987,-2.0626 7.7102,-2.0626 z m -92.0148,0.1186 c 2.7488,0 5.3195,0.6888 7.7142,2.0626 2.4272,1.3704 4.3644,3.2079 5.8165,5.5233 1.4557,2.282 2.179,4.8024 2.179,7.5549 0,4.2034 -1.5739,7.829 -4.7097,10.8464 -3.0903,3.0126 -6.7666,4.5254 -11,4.5254 -4.2704,0 -7.9748,-1.5104 -11.0678,-4.5254 -3.1338,-3.0161 -4.7059,-6.643 -4.7059,-10.8464 0,-2.7525 0.7241,-5.2707 2.1812,-7.5549 1.4505,-2.313 3.3906,-4.1518 5.8204,-5.5233 2.4319,-1.3729 5.0231,-2.0626 7.7721,-2.0626 z" /></g></g></svg>
