<?xml version="1.0" encoding="UTF-8" standalone="no"?>
<!-- Created with Inkscape (http://www.inkscape.org/) -->

<svg
   width="136.50819mm"
   height="105.10334mm"
   viewBox="0 0 136.50819 105.10334"
   version="1.1"
   id="svg1"
   xml:space="preserve"
   inkscape:version="1.4.3 (0d15f75042, 2025-12-25)"
   sodipodi:docname="FO-logo-redesign.svg"
   xmlns:inkscape="http://www.inkscape.org/namespaces/inkscape"
   xmlns:sodipodi="http://sodipodi.sourceforge.net/DTD/sodipodi-0.dtd"
   xmlns="http://www.w3.org/2000/svg"
   xmlns:svg="http://www.w3.org/2000/svg"><sodipodi:namedview
     id="namedview1"
     pagecolor="#ffffff"
     bordercolor="#000000"
     borderopacity="0.25"
     inkscape:showpageshadow="2"
     inkscape:pageopacity="0.0"
     inkscape:pagecheckerboard="0"
     inkscape:deskcolor="#d1d1d1"
     inkscape:document-units="mm"
     inkscape:zoom="0.35355339"
     inkscape:cx="-5884.5426"
     inkscape:cy="-909.33932"
     inkscape:window-width="1366"
     inkscape:window-height="699"
     inkscape:window-x="0"
     inkscape:window-y="0"
     inkscape:window-maximized="1"
     inkscape:current-layer="layer1"
     showguides="true"><sodipodi:guide
       position="1903.2022,325.24819"
       orientation="1,0"
       id="guide1"
       inkscape:locked="false" /><sodipodi:guide
       position="1903.5426,325.60988"
       orientation="0,-1"
       id="guide2"
       inkscape:locked="false" /><sodipodi:guide
       position="2005.521,307.667"
       orientation="1,0"
       id="guide3"
       inkscape:locked="false" /><sodipodi:guide
       position="2010.19,307.8113"
       orientation="1,0"
       id="guide4"
       inkscape:locked="false" /><sodipodi:guide
       position="2010.19,307.20001"
       orientation="0,-1"
       id="guide5"
       inkscape:locked="false" /><sodipodi:guide
       position="2806.193,194.11192"
       orientation="0,-1"
       id="guide6"
       inkscape:locked="false" /><sodipodi:guide
       position="3920.2567,194.57664"
       orientation="1,0"
       id="guide254"
       inkscape:locked="false" /><sodipodi:guide
       position="3030.9927,124.62081"
       orientation="1,0"
       id="guide187"
       inkscape:locked="false" /><sodipodi:guide
       position="2865.3819,-1.5937092"
       orientation="0,-1"
       id="guide389"
       inkscape:locked="false" /><sodipodi:guide
       position="2680.7066,229.96745"
       orientation="1,0"
       id="guide614"
       inkscape:locked="false" /><sodipodi:guide
       position="2841.7188,138.45666"
       orientation="1,0"
       id="guide615"
       inkscape:locked="false" /><sodipodi:guide
       position="1988.1593,209.95018"
       orientation="1,0"
       id="guide20"
       inkscape:locked="false" /><sodipodi:guide
       position="1848.6993,-267.93114"
       orientation="1,0"
       id="guide560"
       inkscape:locked="false" /><sodipodi:guide
       position="1846.6267,-267.93102"
       orientation="1,0"
       id="guide561"
       inkscape:locked="false" /><sodipodi:guide
       position="1775.277,-294.75007"
       orientation="1,0"
       id="guide562"
       inkscape:locked="false" /><sodipodi:guide
       position="1571.3188,-317.72801"
       orientation="0,-1"
       id="guide7"
       inkscape:locked="false" /><sodipodi:guide
       position="1514.9348,-324.5893"
       orientation="0,-1"
       id="guide8"
       inkscape:locked="false" /><sodipodi:guide
       position="1438.1018,-179.04269"
       orientation="0,-1"
       id="guide14"
       inkscape:locked="false" /><sodipodi:guide
       position="1438.1018,-179.04269"
       orientation="1,0"
       id="guide15"
       inkscape:locked="false" /><sodipodi:guide
       position="1550.1296,-179.04269"
       orientation="1,0"
       id="guide16"
       inkscape:locked="false" /><sodipodi:guide
       position="1444.0855,-190.74637"
       orientation="1,0"
       id="guide17"
       inkscape:locked="false" /><sodipodi:guide
       position="1544.2406,-188.89015"
       orientation="1,0"
       id="guide18"
       inkscape:locked="false" /><sodipodi:guide
       position="1550.1296,-185.23663"
       orientation="0,-1"
       id="guide19"
       inkscape:locked="false" /><sodipodi:guide
       position="1497.3453,-255.54964"
       orientation="0,-1"
       id="guide21"
       inkscape:locked="false" /><sodipodi:guide
       position="1528.8947,-261.48106"
       orientation="0,-1"
       id="guide22"
       inkscape:locked="false" /></sodipodi:namedview><defs
     id="defs1" /><g
     inkscape:label="Calque 1"
     inkscape:groupmode="layer"
     id="layer1"
     transform="translate(1563.2456,-170.90376)"><path
       d="m -1554.15,170.90415 c -1.6331,1.1e-4 -3.2361,0.44043 -4.6406,1.27383 -2.0086,1.19159 -3.4829,3.11122 -4.1155,5.35936 l -0.027,0.0992 v 0.0977 0.006 c -0.1902,0.73942 -0.3125,1.49579 -0.3126,2.25981 v 65.74793 c 10e-5,5.0144 4.0812,9.0957 9.0956,9.09556 h 67.8031 c 0.2731,0.83808 0.5839,1.66869 0.9327,2.49184 1.5565,3.65609 3.7373,6.89267 6.5433,9.71672 2.8226,2.80453 6.058,4.98444 9.7146,6.5412 3.8005,1.61068 7.76,2.41381 11.8867,2.41381 5.4241,0 10.4609,-1.3417 15.1329,-4.03128 l -3.4727,-6.84351 c -3.6052,2.14354 -7.4912,3.21686 -11.6602,3.21686 -3.0938,0 -6.0595,-0.60215 -8.8946,-1.80661 -2.7421,-1.16726 -5.1694,-2.80832 -7.2812,-4.92011 -1.989,-1.98894 -3.5587,-4.24719 -4.7098,-6.77892 -0.071,-0.15599 -0.1405,-0.31321 -0.2083,-0.47128 -0.9824,-2.32762 -1.5639,-4.73533 -1.7451,-7.2223 -0.041,-0.56307 -0.061,-1.13003 -0.061,-1.70119 0,-3.07584 0.6024,-6.04174 1.8066,-8.89455 1.1678,-2.7251 2.8066,-5.14078 4.9181,-7.25227 2.1118,-2.11179 4.5393,-3.75242 7.2812,-4.9196 2.793,-1.18656 5.7122,-1.7889 8.7561,-1.8066 0.046,-2.7e-4 0.092,0 0.1385,0 2.5975,0 5.1152,0.42949 7.5535,1.28829 0.449,0.15816 0.8953,0.33105 1.3389,0.51831 2.7252,1.16793 5.1424,2.80812 7.2539,4.9196 2.1115,2.11148 3.7507,4.52668 4.918,7.2502 1.2023,2.84869 1.8063,5.80953 1.8087,8.87905 0.1113,0.96495 0.042,1.90079 -0.2052,2.81223 -0.193,0.79194 -0.556,1.46449 -1.0935,2.00195 -0.656,0.63556 -1.5217,0.94154 -2.576,0.94154 -2.0989,0 -3.5406,-0.96137 -4.2638,-2.85719 -0.342,-0.91209 -0.4885,-1.82808 -0.4336,-2.7466 v -0.008 l 0.053,-14.45494 h -6.8001 -0.7741 v 1.47847 l -0.4491,-0.2248 c -2.0661,-1.03304 -4.218,-1.55853 -6.4688,-1.58284 -0.055,-5.9e-4 -0.1092,-0.001 -0.1639,-0.001 -2.0445,0 -3.9452,0.38582 -5.7149,1.15445 -1.7948,0.75385 -3.3484,1.80633 -4.672,3.1657 -1.3653,1.32953 -2.4195,2.88075 -3.1719,4.67207 -0.7701,1.77302 -1.154,3.67611 -1.154,5.72058 0,0.55687 0.03,1.10584 0.089,1.64693 0.1543,1.40922 0.5089,2.7657 1.0651,4.0721 0.5654,1.31924 1.3015,2.52524 2.2107,3.62148 0.3002,0.36202 0.6194,0.71192 0.9576,1.05007 1.3438,1.36179 2.8992,2.40691 4.6715,3.14089 1.7744,0.77063 3.6743,1.15394 5.719,1.15394 3.7516,0 6.9835,-1.22752 9.7462,-3.70314 l 0.2362,-0.21084 0.2051,0.2403 c 0.8665,1.00801 1.887,1.75743 3.0722,2.25981 1.1853,0.50238 2.5382,0.75603 4.0664,0.75603 3.9913,0 7.1932,-1.26241 9.6759,-3.79874 2.5551,-2.60859 3.8318,-6.01447 3.8318,-10.28361 0,-4.16402 -0.7963,-8.11394 -2.3885,-11.85922 -1.5383,-3.63782 -3.7241,-6.87432 -6.5665,-9.71672 -2.8424,-2.84245 -6.0795,-5.03048 -9.7167,-6.56859 -1.4065,-0.59792 -2.8417,-1.08317 -4.3062,-1.45625 v -35.84742 c 0.014,-1.22163 -0.3268,-2.39302 -0.787,-3.50986 -0.72,-1.70267 -1.9021,-3.18215 -3.5156,-4.18786 l -0.059,-0.0703 -0.1111,-0.0661 c -0.273,-0.16102 -0.5534,-0.30811 -0.8418,-0.43976 -1.1858,-0.54167 -2.4739,-0.82201 -3.7776,-0.82218 z m 3.7946,7.69566 h 86.465 l -42.1758,35.38647 c -0.6151,0.51604 -1.5001,0.51604 -2.1151,0 z m 92.9473,4.60747 v 31.71073 c -4.1315,0.0173 -8.0445,0.81189 -11.7482,2.38641 -3.6377,1.53834 -6.8743,3.72563 -9.7167,6.56808 -2.8054,2.80531 -4.9845,6.04209 -6.5412,9.71672 -1.611,3.80117 -2.4138,7.75143 -2.4138,11.85974 0,0.57031 0.015,1.13726 0.046,1.70119 h -64.5382 c -1.7911,-7e-5 -3.2266,-1.43713 -3.2267,-3.22823 v -59.63874 l 42.4827,35.64641 c 3.4336,2.88082 8.453,2.88082 11.8866,0 z m -0.1644,55.2142 c 0.055,0 0.1098,4.4e-4 0.1644,0.002 1.857,0.0378 3.4727,0.71931 4.824,2.03347 1.3579,1.35794 2.0558,3.02648 2.0939,4.98626 v 0.0879 c -0.038,1.9658 -0.737,3.63536 -2.0919,4.99039 -1.3732,1.37316 -3.0458,2.06447 -4.9904,2.06447 -1.9635,0 -3.6442,-0.70332 -5.0172,-2.09548 -0.9674,-0.9674 -1.5975,-2.0836 -1.8847,-3.33984 -0.1199,-0.52464 -0.1798,-1.07348 -0.1798,-1.64641 0,-1.96244 0.6925,-3.64228 2.066,-5.01572 1.3733,-1.37345 3.0532,-2.06654 5.0157,-2.06654 z"
       style="baseline-shift:baseline;display:inline;overflow:visible;vector-effect:none;fill:#ffffff;stroke-linecap:round;stroke-miterlimit:5.3;paint-order:stroke markers fill;enable-background:accumulate;stop-color:#000000"
       id="path46"
       sodipodi:nodetypes="cscccccccccccsccscsscsscscssscsccccscccccccssscccsccsccscccsscscsccscccccccccccccccscsccccccccccccsscssscc" /></g></svg>
