<?xml version="1.0" encoding="UTF-8" standalone="no"?>
<!-- Created with Inkscape (http://www.inkscape.org/) -->

<svg
   width="214.88637mm"
   height="215.57491mm"
   viewBox="0 0 214.88637 215.5749"
   version="1.1"
   id="svg1"
   xml:space="preserve"
   inkscape:version="1.4.3 (0d15f75042, 2025-12-25)"
   sodipodi:docname="FO-logo-redesign.svg"
   xmlns:inkscape="http://www.inkscape.org/namespaces/inkscape"
   xmlns:sodipodi="http://sodipodi.sourceforge.net/DTD/sodipodi-0.dtd"
   xmlns="http://www.w3.org/2000/svg"
   xmlns:svg="http://www.w3.org/2000/svg"><sodipodi:namedview
     id="namedview1"
     pagecolor="#ffffff"
     bordercolor="#000000"
     borderopacity="0.25"
     inkscape:showpageshadow="2"
     inkscape:pageopacity="0.0"
     inkscape:pagecheckerboard="0"
     inkscape:deskcolor="#d1d1d1"
     inkscape:document-units="mm"
     inkscape:zoom="0.35355339"
     inkscape:cx="-3191.88"
     inkscape:cy="-620.83975"
     inkscape:window-width="1366"
     inkscape:window-height="699"
     inkscape:window-x="0"
     inkscape:window-y="0"
     inkscape:window-maximized="1"
     inkscape:current-layer="layer1"
     showguides="false"><sodipodi:guide
       position="1350.4988,494.04446"
       orientation="1,0"
       id="guide1"
       inkscape:locked="false" /><sodipodi:guide
       position="1350.8392,494.40615"
       orientation="0,-1"
       id="guide2"
       inkscape:locked="false" /><sodipodi:guide
       position="1452.8177,476.46327"
       orientation="1,0"
       id="guide3"
       inkscape:locked="false" /><sodipodi:guide
       position="1457.4867,476.60757"
       orientation="1,0"
       id="guide4"
       inkscape:locked="false" /><sodipodi:guide
       position="1457.4866,475.99628"
       orientation="0,-1"
       id="guide5"
       inkscape:locked="false" /><sodipodi:guide
       position="2253.4897,362.90819"
       orientation="0,-1"
       id="guide6"
       inkscape:locked="false" /><sodipodi:guide
       position="3367.5534,363.37291"
       orientation="1,0"
       id="guide254"
       inkscape:locked="false" /><sodipodi:guide
       position="2478.2894,293.41708"
       orientation="1,0"
       id="guide187"
       inkscape:locked="false" /><sodipodi:guide
       position="2312.6786,167.20256"
       orientation="0,-1"
       id="guide389"
       inkscape:locked="false" /><sodipodi:guide
       position="2128.0033,398.76372"
       orientation="1,0"
       id="guide614"
       inkscape:locked="false" /><sodipodi:guide
       position="2289.0155,307.25293"
       orientation="1,0"
       id="guide615"
       inkscape:locked="false" /><sodipodi:guide
       position="1435.4559,378.74645"
       orientation="1,0"
       id="guide20"
       inkscape:locked="false" /><sodipodi:guide
       position="1295.9959,-99.134878"
       orientation="1,0"
       id="guide560"
       inkscape:locked="false" /><sodipodi:guide
       position="1293.9233,-99.134758"
       orientation="1,0"
       id="guide561"
       inkscape:locked="false" /><sodipodi:guide
       position="1222.5736,-125.95381"
       orientation="1,0"
       id="guide562"
       inkscape:locked="false" /><inkscape:page
       x="0"
       y="0"
       width="214.88637"
       height="215.57491"
       id="page2"
       margin="0"
       bleed="0" /></sodipodi:namedview><defs
     id="defs1" /><g
     inkscape:label="Calque 1"
     inkscape:groupmode="layer"
     id="layer1"
     transform="translate(1010.5423,-226.6455)"><path
       style="fill:#ffffff"
       d="m -1010.5423,442.04549 c 0,-0.88335 3.2711,-13.4582 7.269,-27.94412 l 7.26901,-26.33802 -4.68751,-9.25029 c -2.5781,-5.08765 -5.8349,-14.66407 -7.2374,-21.28093 -13.5872,-64.1023 31.96772,-125.25669 97.04396,-130.27501 49.77928,-3.8387 96.28037,28.13868 111.26823,76.51578 4.5625,14.72658 5.33367,43.56497 1.52827,57.15 -11.0295,39.37458 -43.94391,70.76976 -82.73211,78.91345 -21.86602,4.59083 -40.63356,2.84139 -62.40558,-5.81721 l -11.60558,-4.61547 -27.85514,7.27395 c -15.32032,4.00068 -27.85515,6.55122 -27.85515,5.66787 z m 124.39895,-19.8889 c 30.51064,-5.57281 57.68314,-29.0718 67.8769,-58.70049 19.81031,-57.57966 -23.69539,-118.94749 -84.32583,-118.94749 -66.91975,0 -110.88272,73.09929 -79.1731,131.64484 l 5.02754,9.28236 -3.14557,11.15489 c -1.73007,6.1352 -3.67674,13.57327 -4.32593,16.52905 l -1.18036,5.37414 16.40735,-4.49597 16.40735,-4.49597 9.15747,4.64044 c 17.76494,9.00218 37.07325,11.70393 57.27418,8.0142 z m -4.08813,-39.65223 c -23.40579,-8.42562 -42.8504,-24.08778 -56.90853,-45.83845 -12.55591,-19.42643 -13.54589,-33.1694 -3.28601,-45.61641 4.38243,-5.31666 6.71385,-6.6266 11.7939,-6.6266 6.0327,0 6.58334,0.55498 11.66077,11.75302 6.34116,13.98513 6.54049,17.06042 1.51954,23.44352 -4.95277,6.29642 -3.71638,10.91183 5.82759,21.75436 7.67773,8.72236 23.58832,19.20122 29.20102,19.23207 1.70371,0.009 5.37764,-2.84045 8.16429,-6.33292 2.78665,-3.49247 6.10509,-6.34997 7.37432,-6.35 1.26924,-3e-5 7.59656,2.39803 14.06072,5.32902 11.13896,5.05065 11.75302,5.65401 11.75302,11.54819 0,11.41849 -12.05779,21.30828 -25.7953,21.15729 -3.27509,-0.036 -10.18948,-1.58989 -15.36533,-3.45309 z"
       id="path32" /></g></svg>
