<?xml version="1.0" encoding="UTF-8" standalone="no"?>
<!-- Created with Inkscape (http://www.inkscape.org/) -->

<svg
   width="800"
   height="800"
   viewBox="0 0 211.66666 211.66665"
   version="1.1"
   id="svg1"
   xml:space="preserve"
   sodipodi:docname="A&amp;P-logo.svg"
   inkscape:version="1.4.3 (0d15f75042, 2025-12-25)"
   xmlns:inkscape="http://www.inkscape.org/namespaces/inkscape"
   xmlns:sodipodi="http://sodipodi.sourceforge.net/DTD/sodipodi-0.dtd"
   xmlns="http://www.w3.org/2000/svg"
   xmlns:svg="http://www.w3.org/2000/svg"><sodipodi:namedview
     id="namedview1"
     pagecolor="#ffffff"
     bordercolor="#999999"
     borderopacity="1"
     inkscape:showpageshadow="2"
     inkscape:pageopacity="0"
     inkscape:pagecheckerboard="0"
     inkscape:deskcolor="#d1d1d1"
     inkscape:document-units="mm"
     inkscape:zoom="0.38633806"
     inkscape:cx="-1393.857"
     inkscape:cy="330.02184"
     inkscape:window-width="1366"
     inkscape:window-height="699"
     inkscape:window-x="0"
     inkscape:window-y="0"
     inkscape:window-maximized="1"
     inkscape:current-layer="svg1" /><defs
     id="defs1" /><rect
     style="fill:#cccccc;stroke:none;stroke-width:1;stroke-linecap:round;stroke-miterlimit:5.3;paint-order:stroke markers fill;fill-opacity:1"
     id="rect1"
     width="211.66666"
     height="211.66666"
     x="0"
     y="0" /><g
     id="layer1"
     transform="matrix(0.26458333,0,0,0.26458333,-651.05173,-161.60883)"
     inkscape:export-filename="A&amp;P-logo.webp"
     inkscape:export-xdpi="96"
     inkscape:export-ydpi="96"><g
       id="g14"
       transform="matrix(1.6114786,0,0,1.6114786,2420.6171,446.78757)"><g
         id="g12"
         transform="matrix(0.6114776,0,0,0.6114776,254.44774,49.142898)"
         style="fill:#333333;fill-opacity:1"><text
           xml:space="preserve"
           style="font-style:normal;font-variant:normal;font-weight:bold;font-stretch:normal;font-size:51.8891px;line-height:1.5em;font-family:'Cormorant Garamond';-inkscape-font-specification:'Cormorant Garamond, Bold';font-variant-ligatures:normal;font-variant-caps:normal;font-variant-numeric:normal;font-variant-east-asian:normal;text-align:justify;letter-spacing:0px;word-spacing:0px;writing-mode:lr-tb;direction:ltr;fill:#333333;fill-opacity:1;stroke-width:4.12395;stroke-linecap:round;stroke-miterlimit:5.3;paint-order:markers fill stroke"
           x="101.99319"
           y="491.23105"
           id="text8"><tspan
             style="font-style:normal;font-variant:normal;font-weight:bold;font-stretch:normal;font-size:51.8891px;font-family:'Cormorant Garamond';-inkscape-font-specification:'Cormorant Garamond, Bold';font-variant-ligatures:normal;font-variant-caps:normal;font-variant-numeric:normal;font-variant-east-asian:normal;letter-spacing:0px;fill:#333333;fill-opacity:1;stroke-width:4.12395"
             x="101.99319"
             y="491.23105"
             id="tspan7">Albany</tspan></text><text
           xml:space="preserve"
           style="font-style:normal;font-variant:normal;font-weight:bold;font-stretch:normal;font-size:51.8891px;line-height:1.5em;font-family:'Cormorant Garamond';-inkscape-font-specification:'Cormorant Garamond, Bold';font-variant-ligatures:normal;font-variant-caps:normal;font-variant-numeric:normal;font-variant-east-asian:normal;text-align:justify;letter-spacing:0px;word-spacing:0px;writing-mode:lr-tb;direction:ltr;fill:#333333;fill-opacity:1;stroke-width:4.12395;stroke-linecap:round;stroke-miterlimit:5.3;paint-order:markers fill stroke"
           x="164.40152"
           y="529.79895"
           id="text10"><tspan
             id="tspan8"
             style="font-style:normal;font-variant:normal;font-weight:bold;font-stretch:normal;font-size:51.8891px;font-family:'Cormorant Garamond';-inkscape-font-specification:'Cormorant Garamond, Bold';font-variant-ligatures:normal;font-variant-caps:normal;font-variant-numeric:normal;font-variant-east-asian:normal;letter-spacing:0px;fill:#333333;fill-opacity:1;stroke-width:4.12395"
             x="164.40152"
             y="529.79895">Partners</tspan></text><text
           xml:space="preserve"
           style="font-style:normal;font-variant:normal;font-weight:500;font-stretch:normal;font-size:50.2331px;line-height:1.5em;font-family:'Cormorant Garamond';-inkscape-font-specification:'Cormorant Garamond, Medium';font-variant-ligatures:normal;font-variant-caps:normal;font-variant-numeric:normal;font-variant-east-asian:normal;text-align:justify;letter-spacing:0px;word-spacing:0px;writing-mode:lr-tb;direction:ltr;fill:#333333;fill-opacity:1;stroke-width:3.99233;stroke-linecap:round;stroke-miterlimit:5.3;paint-order:markers fill stroke"
           x="124.83582"
           y="529.19623"
           id="text12"><tspan
             id="tspan12"
             style="font-style:normal;font-variant:normal;font-weight:500;font-stretch:normal;font-size:50.2331px;font-family:'Cormorant Garamond';-inkscape-font-specification:'Cormorant Garamond, Medium';font-variant-ligatures:normal;font-variant-caps:normal;font-variant-numeric:normal;font-variant-east-asian:normal;letter-spacing:0px;fill:#333333;fill-opacity:1;stroke-width:3.99233"
             x="124.83582"
             y="529.19623">&amp;</tspan></text></g><g
         id="g13"
         transform="matrix(2.0969826,0,0,2.0969826,73.102673,1212.5973)"><path
           id="path12"
           style="font-weight:bold;font-size:51.8891px;line-height:1.5em;font-family:'Cormorant Garamond';-inkscape-font-specification:'Cormorant Garamond, Bold';text-align:justify;letter-spacing:0px;word-spacing:0px;baseline-shift:baseline;display:inline;overflow:visible;vector-effect:none;fill:#333333;fill-opacity:1;stroke-linecap:round;stroke-miterlimit:5.3;paint-order:markers fill stroke;enable-background:accumulate;stop-color:#000000"
           d="m 25.264091,-428.03382 c -0.242147,0 -0.397968,0.0518 -0.467155,0.15554 l -11.259778,24.75095 c -0.899413,2.00637 -1.677998,3.52834 -2.335258,4.56613 -0.657266,1.00318 -1.3147124,1.7124 -1.9719724,2.12752 -0.6572603,0.38052 -1.4700109,0.57102 -2.4386109,0.57102 -0.1383666,0 -0.2077392,0.10353 -0.2077392,0.31109 0,0.20756 0.069373,0.31161 0.2077392,0.31161 0.7264467,0 1.6779355,-0.0347 2.8540894,-0.10387 1.3145269,-0.0692 2.4383969,-0.10387 3.3724039,-0.10387 0.968593,0 2.110587,0.0347 3.425114,0.10387 1.176153,0.0692 2.07536,0.10387 2.698027,0.10387 0.17296,0 0.259415,-0.10405 0.259415,-0.31161 0,-0.20756 -0.08646,-0.31109 -0.259415,-0.31109 -1.487487,0 -2.68073,-0.34632 -3.580144,-1.03818 -0.86482,-0.69185 -1.297595,-1.66042 -1.297595,-2.90576 0,-0.86482 0.225188,-1.79871 0.674894,-2.8019 l 2.023649,-4.51445 h 12.764596 l 3.528467,7.00525 c 0.69186,1.38372 1.037662,2.36937 1.037662,2.95745 0,0.4843 -0.207587,0.83062 -0.622701,1.03818 -0.38052,0.17296 -1.020366,0.25941 -1.919779,0.25941 -0.138373,0 -0.207739,0.10353 -0.207739,0.31109 0,0.20756 0.06937,0.31161 0.207739,0.31161 0.691853,0 1.625743,-0.0347 2.801896,-0.10387 1.24534,-0.0692 2.300362,-0.10387 3.165182,-0.10387 0.65726,0 1.746971,0.0347 3.269051,0.10387 1.452893,0.0692 2.525521,0.10387 3.217374,0.10387 0.172967,0 0.259416,-0.10405 0.259416,-0.31161 0,-0.20756 -0.08645,-0.31109 -0.259416,-0.31109 -0.864813,0 -1.69517,-0.46695 -2.490804,-1.40095 -0.795633,-0.934 -1.798888,-2.62939 -3.009635,-5.08547 l -12.972335,-25.5292 c -0.03459,-0.10378 -0.189891,-0.15554 -0.466638,-0.15554 z m 56.885417,0.20722 c -0.899414,0 -1.695081,0.0176 -2.386935,0.0522 -0.691853,0.0346 -1.26285,0.0688 -1.712557,0.10336 -1.14156,0.10378 -2.127215,0.15606 -2.957442,0.15606 -0.934007,0 -2.196622,-0.0347 -3.787882,-0.10387 l -2.75022,-0.0522 c -0.103773,0 -0.155546,0.10405 -0.155546,0.31161 0,0.20755 0.05177,0.31109 0.155546,0.31109 1.07238,0 1.868048,0.10405 2.386934,0.31161 0.518894,0.17296 0.864703,0.50168 1.037663,0.98598 0.172967,0.4843 0.259416,1.24529 0.259416,2.28307 v 24.02437 c 0,1.03779 -0.08645,1.81637 -0.259416,2.33526 -0.17296,0.4843 -0.518769,0.81302 -1.037663,0.98599 -0.4843,0.17296 -1.279967,0.25941 -2.386934,0.25941 -0.103773,0 -0.155546,0.10353 -0.155546,0.31109 0,0.20756 0.05177,0.31161 0.155546,0.31161 1.176153,0 2.110043,-0.0176 2.801896,-0.0522 l 3.787882,-0.0517 4.514454,0.0517 c 0.795633,0.0346 1.902427,0.0522 3.320727,0.0522 0.10378,0 0.156063,-0.10405 0.156063,-0.31161 0,-0.20756 -0.05228,-0.31109 -0.156063,-0.31109 -1.487487,0 -2.577198,-0.10405 -3.269051,-0.31161 -0.65726,-0.20756 -1.106602,-0.55336 -1.348755,-1.03766 -0.242147,-0.51889 -0.363285,-1.33164 -0.363285,-2.43861 v -23.71328 c 0,-1.31453 0.172905,-2.19665 0.518831,-2.64635 0.345927,-0.4497 1.003373,-0.6749 1.971973,-0.6749 2.213933,0 3.891724,0.7439 5.033284,2.23139 1.176154,1.48749 1.764234,3.59754 1.764234,6.33036 0,2.73283 -0.536314,4.84288 -1.608688,6.33037 -1.037786,1.48748 -2.352161,2.23139 -3.943428,2.23139 -0.65726,0 -1.245347,-0.0694 -1.764234,-0.20774 -0.06919,-0.0346 -0.138552,9e-5 -0.207739,0.10387 -0.0346,0.10378 -0.05219,0.20783 -0.05219,0.31161 0,0.17296 0.03468,0.25941 0.10387,0.25941 0.691853,0.17297 1.505121,0.25942 2.439127,0.25942 1.833414,0 3.614744,-0.3805 5.344377,-1.14154 1.764233,-0.76104 3.199747,-1.88542 4.306714,-3.37292 1.106966,-1.48748 1.660364,-3.3035 1.660364,-5.44824 0,-3.07876 -1.020339,-5.34463 -3.061312,-6.79752 -2.040966,-1.48749 -4.825552,-2.23139 -8.354012,-2.23139 z m -59.168999,7.42022 5.967595,11.8308 H 17.636133 Z" /><path
           id="path13"
           style="fill:#f9882f;fill-opacity:1;stroke-width:0.0899999;stroke-linecap:round;stroke-miterlimit:5.3;paint-order:markers fill stroke"
           d="m 28.141951,-428.03382 12.811105,25.2367 0.0036,0.006 c 1.194564,2.42326 2.195791,3.55438 2.87321,4.34961 0.679651,0.79785 1.225832,1.04903 1.730644,1.04903 0.286484,0 0.707526,0.13341 0.960664,0.43718 0.253135,0.30376 0.29714,0.63273 0.29714,0.8754 0,0.0965 -0.0073,0.73528 -0.03152,0.85163 5.126675,0.0758 14.293348,0.0481 19.573999,-0.002 -0.0213,-0.12032 -0.02119,-0.75061 -0.02119,-0.84956 0,-0.18711 -10e-4,-0.39121 0.144177,-0.68161 0.14519,-0.2904 0.626584,-0.63097 1.011825,-0.63097 2.587444,0 2.683557,-0.34459 2.683557,-2.05104 v -24.02541 c 0,-0.98222 -0.104151,-1.1447 -0.201021,-1.41593 -0.426216,-0.74559 -1.784503,-0.62676 -2.482536,-0.6351 -0.385231,0 -0.866113,-0.34057 -1.011308,-0.63097 -0.145195,-0.2904 -0.144694,-0.49245 -0.144694,-0.67955 0,-0.10016 -3.8e-4,-0.73419 0.0217,-0.85473 -9.2848,-0.10805 -32.111921,-0.28248 -38.219373,-0.34881 z m 25.532809,3.34346 v 5.2e-4 c 1.327747,0 2.456413,0.31869 3.38584,0.95601 0.46471,0.30538 0.813059,0.70719 1.045414,1.2051 0.23238,0.4979 0.348816,1.09189 0.348816,1.78232 0,0.51782 -0.06665,1.01237 -0.199471,1.48363 -0.06633,0.23546 -0.14962,0.46601 -0.249081,0.68988 -0.09952,0.22392 -0.215627,0.44242 -0.348299,0.65474 -0.531106,0.82321 -1.181725,1.55324 -1.951819,2.19056 -0.770093,0.61076 -1.818824,1.35456 -3.146577,2.23088 l -0.717269,0.478 c 0.98254,1.51364 2.181072,3.00388 3.595129,4.47105 1.414,1.46714 3.043596,2.91087 4.889107,4.33152 0.769949,-1.48698 1.155485,-3.16015 1.155485,-5.01882 0,-0.5311 -0.05346,-0.99272 -0.15968,-1.38441 -0.02652,-0.0977 -0.05626,-0.19154 -0.0894,-0.2806 -0.03315,-0.089 -0.06979,-0.17441 -0.109554,-0.25477 -0.03978,-0.0803 -0.08332,-0.15675 -0.129708,-0.22841 -0.04641,-0.0717 -0.09632,-0.13857 -0.149345,-0.20154 v -5.1e-4 c -0.02482,-0.0331 -0.05146,-0.0656 -0.07906,-0.0966 -0.02769,-0.0311 -0.05684,-0.0609 -0.08733,-0.0899 -0.121927,-0.11606 -0.26638,-0.21576 -0.433048,-0.29868 -0.249992,-0.12431 -0.551148,-0.21171 -0.901754,-0.26149 -0.234016,-0.0332 -0.490119,-0.0496 -0.768946,-0.0496 -0.0059,0 -0.01248,-7.3e-4 -0.01809,-0.002 -0.0085,-10e-4 -0.01699,-0.004 -0.02481,-0.007 -0.03594,-0.0157 -0.06454,-0.0528 -0.0863,-0.11111 -0.01225,-0.0329 -0.02275,-0.0724 -0.03049,-0.11885 v -5.2e-4 c 1.5e-5,-0.0197 9.24e-4,-0.0385 0.0026,-0.0558 0.0033,-0.0346 0.01026,-0.0646 0.02015,-0.0894 v -5.2e-4 c 0.0024,-0.006 0.0049,-0.0121 0.0078,-0.0176 0.0058,-0.0111 0.01277,-0.0208 0.02015,-0.0294 v -5.2e-4 c 0.01864,-0.0216 0.04291,-0.0357 0.07183,-0.0419 0.0057,-10e-4 0.01204,-0.002 0.01809,-0.003 0.0061,-5.9e-4 0.01266,-10e-4 0.01912,-10e-4 l 8.524028,-0.0398 c 0.04633,0 0.08291,0.0157 0.109037,0.046 0.0036,0.004 0.0071,0.009 0.01034,0.0139 0.0066,0.01 0.01263,0.0213 0.01757,0.0336 0.0024,0.006 0.0047,0.013 0.0067,0.0196 0.01034,0.0341 0.01547,0.0765 0.0155,0.12609 0,0.0396 -0.0032,0.0746 -0.0098,0.10439 -0.0049,0.0222 -0.01206,0.0422 -0.02067,0.0589 -0.02614,0.0504 -0.06892,0.0754 -0.128674,0.0754 -0.876313,0 -1.540176,0.0932 -1.99161,0.27905 -0.424873,0.15934 -0.73033,0.39809 -0.916223,0.71675 -0.09288,0.15922 -0.185655,0.36231 -0.278536,0.60772 -0.09294,0.24563 -0.186109,0.53416 -0.279053,0.86609 -0.48007,1.67137 -1.044184,3.13475 -1.678967,4.42505 -0.313269,0.63679 -0.638647,1.24452 -0.989604,1.78853 1.61986,1.16842 3.146629,2.1245 4.580599,2.86804 1.433974,0.74354 2.628808,1.22157 3.584795,1.43402 0.0069,0.002 0.01331,0.004 0.01964,0.006 0.01267,0.005 0.02419,0.0103 0.03462,0.0171 0.0052,0.003 0.01033,0.007 0.01499,0.0109 0.0093,0.008 0.01774,0.0172 0.02481,0.0274 0.02672,0.0383 0.03714,0.0932 0.03204,0.16329 -0.0013,0.0171 -0.0036,0.0358 -0.0067,0.0548 0,0.0496 -0.0054,0.0904 -0.01654,0.12144 -0.01867,0.0519 -0.05306,0.0775 -0.102836,0.0775 h -4.699972 c -0.278692,0 -0.596398,-0.0558 -0.951363,-0.16692 -1.061237,-0.33226 -2.46517,-1.16372 -4.208012,-2.48874 -0.0068,-0.005 -0.01233,-0.008 -0.01912,-0.0134 -0.01509,0.0151 -0.03136,0.0279 -0.04651,0.0429 -0.23164,0.2291 -0.470068,0.44534 -0.715202,0.64906 -0.0013,0.001 -0.0028,0.002 -0.0041,0.003 -0.07657,0.0636 -0.156476,0.12121 -0.235128,0.18087 -0.0087,0.007 -0.01718,0.0139 -0.02584,0.0207 -0.0057,0.004 -0.0114,0.008 -0.01705,0.0124 -0.175036,0.13587 -0.351144,0.26982 -0.532784,0.39326 -0.0014,9.6e-4 -0.0027,0.002 -0.0041,0.003 -0.108135,0.0734 -0.219738,0.14028 -0.330213,0.20929 -0.0017,10e-4 -0.0035,0.002 -0.0052,0.003 -0.170784,0.10654 -0.342978,0.21042 -0.519349,0.30644 h -5.16e-4 v 5.2e-4 h -5.17e-4 -5.17e-4 c -0.121446,0.0661 -0.244875,0.12854 -0.36897,0.18965 -0.0021,0.001 -0.0041,0.002 -0.0062,0.003 -0.177578,0.0873 -0.358053,0.16939 -0.541052,0.2465 -0.125809,0.053 -0.251968,0.10527 -0.380338,0.15348 -5.11e-4,1.9e-4 -9.51e-4,3.1e-4 -0.0016,5.1e-4 -0.193581,0.0726 -0.391255,0.13727 -0.590661,0.19896 -0.0021,6.5e-4 -0.0041,10e-4 -0.0062,0.002 -0.0017,5.2e-4 -0.0035,0.001 -0.0052,0.002 h -5.17e-4 v 5.2e-4 h -5.17e-4 c -0.02437,0.008 -0.04904,0.0146 -0.07338,0.0222 -0.100422,0.0313 -0.200398,0.0629 -0.302824,0.0904 -0.224146,0.0602 -0.453994,0.10968 -0.68523,0.15658 -0.107368,0.0218 -0.212013,0.0488 -0.32091,0.0677 h -5.17e-4 c -0.715869,0.12422 -1.463418,0.18913 -2.245341,0.18913 -1.672967,0 -3.080615,-0.26524 -4.222481,-0.79633 -0.8564,-0.41825 -1.548059,-0.93374 -2.075843,-1.54616 h -5.16e-4 c -0.175969,-0.20412 -0.333425,-0.41921 -0.47284,-0.64492 -0.531093,-0.90288 -0.796334,-1.87218 -0.796334,-2.90783 0,-0.55765 0.06515,-1.08937 0.195854,-1.59474 0.04354,-0.1683 0.09493,-0.33412 0.152962,-0.49661 0.174248,-0.48772 0.413986,-0.94996 0.71882,-1.38544 0.101537,-0.14502 0.210057,-0.28762 0.326078,-0.42685 0.955986,-1.11532 2.310691,-2.31017 4.063318,-3.5848 -0.477987,-0.71699 -0.863379,-1.38084 -1.155485,-1.99161 -0.385047,-0.80993 -0.673574,-1.57701 -0.866097,-2.30063 -0.192433,-0.72344 -0.288872,-1.40405 -0.288872,-2.04122 0,-0.59749 0.06988,-1.16869 0.20929,-1.71307 0.139413,-0.5442 0.348607,-1.06176 0.627352,-1.55288 v -5.2e-4 c 0.145993,-0.2455 0.305485,-0.47907 0.478007,-0.6997 0.172541,-0.22062 0.358517,-0.4285 0.557589,-0.62425 v -5.1e-4 c 0.199,-0.19569 0.411664,-0.37901 0.63717,-0.54984 l 5.17e-4,-5.2e-4 c 0.225724,-0.17096 0.464479,-0.32937 0.716752,-0.47542 0.258713,-0.14594 0.528083,-0.274 0.806669,-0.38344 0.278816,-0.10951 0.56737,-0.20039 0.866097,-0.27337 0.597488,-0.14605 1.234875,-0.21911 1.912028,-0.21911 z m -1.314649,0.87695 c -1.96508,0 -2.947623,1.20809 -2.947623,3.62459 0,2.07129 0.703562,4.27567 2.110982,6.61251 1.354307,-1.0622 2.390317,-2.08497 3.107304,-3.06751 0.74354,-1.0091 1.115177,-2.15099 1.115177,-3.42563 0,-1.16841 -0.305463,-2.08427 -0.916223,-2.74815 -0.610766,-0.66386 -1.43397,-0.99581 -2.469617,-0.99581 z m -2.787943,12.46746 c -0.95598,0.79665 -1.699772,1.63309 -2.230872,2.50941 -0.5311,0.84976 -0.79685,1.81907 -0.79685,2.90783 0,1.08875 0.278988,2.11102 0.836641,3.067 0.584207,0.92943 1.394179,1.67322 2.429826,2.23087 1.035647,0.55766 2.204012,0.83664 3.505212,0.83664 2.097847,0 3.903601,-0.75702 5.417241,-2.27066 -0.34522,-0.239 -0.65067,-0.47828 -0.916223,-0.71727 -1.593294,-1.27466 -3.120073,-2.65531 -4.580599,-4.14239 -1.433974,-1.48708 -2.655283,-2.96091 -3.664376,-4.42143 z m 44.647404,10.50168 c -0.968597,0 -1.747182,0.27696 -2.335258,0.83044 -0.553484,0.55349 -0.829924,1.27979 -0.829924,2.1792 0,0.9686 0.27644,1.74666 0.829924,2.33474 0.588076,0.55348 1.366661,0.83044 2.335258,0.83044 0.968596,0 1.712497,-0.27696 2.231388,-0.83044 0.553484,-0.55348 0.829924,-1.33155 0.829924,-2.33474 0,-0.93401 -0.27644,-1.66031 -0.829924,-2.1792 -0.518891,-0.55348 -1.262792,-0.83044 -2.231388,-0.83044 z" /></g><rect
         style="fill:#333333;fill-opacity:1;stroke:none;stroke-width:1.03083;stroke-linecap:round;stroke-miterlimit:5.3;stroke-opacity:1;paint-order:markers fill stroke"
         id="rect13"
         width="1.9166107"
         height="95.870995"
         x="295.8714"
         y="302.06448" /></g></g><rect
     style="fill:#ffffff;fill-opacity:1;stroke:none;stroke-width:1;stroke-linecap:round;stroke-miterlimit:5.3;paint-order:stroke markers fill"
     id="rect2"
     width="211.66666"
     height="211.66666"
     x="222.15445"
     y="-10.012786" /><rect
     style="fill:#f78d3a;fill-opacity:1;stroke:none;stroke-width:1;stroke-linecap:round;stroke-miterlimit:5.3;paint-order:stroke markers fill"
     id="rect3"
     width="211.66666"
     height="211.66666"
     x="-248.91043"
     y="0" /><g
     id="g8"
     transform="matrix(0.26458333,0,0,0.26458333,-899.96217,-161.60884)"
     inkscape:export-filename="A&amp;P-logo.webp"
     inkscape:export-xdpi="96"
     inkscape:export-ydpi="96"><g
       id="g7"
       transform="matrix(1.6114786,0,0,1.6114786,2420.6171,446.78757)"><g
         id="g5"
         transform="matrix(0.6114776,0,0,0.6114776,254.44774,49.142898)"
         style="fill:#333333;fill-opacity:1"><text
           xml:space="preserve"
           style="font-style:normal;font-variant:normal;font-weight:bold;font-stretch:normal;font-size:51.8891px;line-height:1.5em;font-family:'Cormorant Garamond';-inkscape-font-specification:'Cormorant Garamond, Bold';font-variant-ligatures:normal;font-variant-caps:normal;font-variant-numeric:normal;font-variant-east-asian:normal;text-align:justify;letter-spacing:0px;word-spacing:0px;writing-mode:lr-tb;direction:ltr;fill:#333333;fill-opacity:1;stroke-width:4.12395;stroke-linecap:round;stroke-miterlimit:5.3;paint-order:markers fill stroke"
           x="101.99319"
           y="491.23105"
           id="text3"><tspan
             style="font-style:normal;font-variant:normal;font-weight:bold;font-stretch:normal;font-size:51.8891px;font-family:'Cormorant Garamond';-inkscape-font-specification:'Cormorant Garamond, Bold';font-variant-ligatures:normal;font-variant-caps:normal;font-variant-numeric:normal;font-variant-east-asian:normal;letter-spacing:0px;fill:#333333;fill-opacity:1;stroke-width:4.12395"
             x="101.99319"
             y="491.23105"
             id="tspan3">Albany</tspan></text><text
           xml:space="preserve"
           style="font-style:normal;font-variant:normal;font-weight:bold;font-stretch:normal;font-size:51.8891px;line-height:1.5em;font-family:'Cormorant Garamond';-inkscape-font-specification:'Cormorant Garamond, Bold';font-variant-ligatures:normal;font-variant-caps:normal;font-variant-numeric:normal;font-variant-east-asian:normal;text-align:justify;letter-spacing:0px;word-spacing:0px;writing-mode:lr-tb;direction:ltr;fill:#333333;fill-opacity:1;stroke-width:4.12395;stroke-linecap:round;stroke-miterlimit:5.3;paint-order:markers fill stroke"
           x="164.40152"
           y="529.79895"
           id="text4"><tspan
             id="tspan4"
             style="font-style:normal;font-variant:normal;font-weight:bold;font-stretch:normal;font-size:51.8891px;font-family:'Cormorant Garamond';-inkscape-font-specification:'Cormorant Garamond, Bold';font-variant-ligatures:normal;font-variant-caps:normal;font-variant-numeric:normal;font-variant-east-asian:normal;letter-spacing:0px;fill:#333333;fill-opacity:1;stroke-width:4.12395"
             x="164.40152"
             y="529.79895">Partners</tspan></text><text
           xml:space="preserve"
           style="font-style:normal;font-variant:normal;font-weight:500;font-stretch:normal;font-size:50.2331px;line-height:1.5em;font-family:'Cormorant Garamond';-inkscape-font-specification:'Cormorant Garamond, Medium';font-variant-ligatures:normal;font-variant-caps:normal;font-variant-numeric:normal;font-variant-east-asian:normal;text-align:justify;letter-spacing:0px;word-spacing:0px;writing-mode:lr-tb;direction:ltr;fill:#333333;fill-opacity:1;stroke-width:3.99233;stroke-linecap:round;stroke-miterlimit:5.3;paint-order:markers fill stroke"
           x="124.83582"
           y="529.19623"
           id="text5"><tspan
             id="tspan5"
             style="font-style:normal;font-variant:normal;font-weight:500;font-stretch:normal;font-size:50.2331px;font-family:'Cormorant Garamond';-inkscape-font-specification:'Cormorant Garamond, Medium';font-variant-ligatures:normal;font-variant-caps:normal;font-variant-numeric:normal;font-variant-east-asian:normal;letter-spacing:0px;fill:#333333;fill-opacity:1;stroke-width:3.99233"
             x="124.83582"
             y="529.19623">&amp;</tspan></text></g><g
         id="g6"
         transform="matrix(2.0969826,0,0,2.0969826,73.102673,1212.5973)"><path
           id="path5"
           style="font-weight:bold;font-size:51.8891px;line-height:1.5em;font-family:'Cormorant Garamond';-inkscape-font-specification:'Cormorant Garamond, Bold';text-align:justify;letter-spacing:0px;word-spacing:0px;baseline-shift:baseline;display:inline;overflow:visible;vector-effect:none;fill:#333333;fill-opacity:1;stroke-linecap:round;stroke-miterlimit:5.3;paint-order:markers fill stroke;enable-background:accumulate;stop-color:#000000"
           d="m 25.264091,-428.03382 c -0.242147,0 -0.397968,0.0518 -0.467155,0.15554 l -11.259778,24.75095 c -0.899413,2.00637 -1.677998,3.52834 -2.335258,4.56613 -0.657266,1.00318 -1.3147124,1.7124 -1.9719724,2.12752 -0.6572603,0.38052 -1.4700109,0.57102 -2.4386109,0.57102 -0.1383666,0 -0.2077392,0.10353 -0.2077392,0.31109 0,0.20756 0.069373,0.31161 0.2077392,0.31161 0.7264467,0 1.6779355,-0.0347 2.8540894,-0.10387 1.3145269,-0.0692 2.4383969,-0.10387 3.3724039,-0.10387 0.968593,0 2.110587,0.0347 3.425114,0.10387 1.176153,0.0692 2.07536,0.10387 2.698027,0.10387 0.17296,0 0.259415,-0.10405 0.259415,-0.31161 0,-0.20756 -0.08646,-0.31109 -0.259415,-0.31109 -1.487487,0 -2.68073,-0.34632 -3.580144,-1.03818 -0.86482,-0.69185 -1.297595,-1.66042 -1.297595,-2.90576 0,-0.86482 0.225188,-1.79871 0.674894,-2.8019 l 2.023649,-4.51445 h 12.764596 l 3.528467,7.00525 c 0.69186,1.38372 1.037662,2.36937 1.037662,2.95745 0,0.4843 -0.207587,0.83062 -0.622701,1.03818 -0.38052,0.17296 -1.020366,0.25941 -1.919779,0.25941 -0.138373,0 -0.207739,0.10353 -0.207739,0.31109 0,0.20756 0.06937,0.31161 0.207739,0.31161 0.691853,0 1.625743,-0.0347 2.801896,-0.10387 1.24534,-0.0692 2.300362,-0.10387 3.165182,-0.10387 0.65726,0 1.746971,0.0347 3.269051,0.10387 1.452893,0.0692 2.525521,0.10387 3.217374,0.10387 0.172967,0 0.259416,-0.10405 0.259416,-0.31161 0,-0.20756 -0.08645,-0.31109 -0.259416,-0.31109 -0.864813,0 -1.69517,-0.46695 -2.490804,-1.40095 -0.795633,-0.934 -1.798888,-2.62939 -3.009635,-5.08547 l -12.972335,-25.5292 c -0.03459,-0.10378 -0.189891,-0.15554 -0.466638,-0.15554 z m 56.885417,0.20722 c -0.899414,0 -1.695081,0.0176 -2.386935,0.0522 -0.691853,0.0346 -1.26285,0.0688 -1.712557,0.10336 -1.14156,0.10378 -2.127215,0.15606 -2.957442,0.15606 -0.934007,0 -2.196622,-0.0347 -3.787882,-0.10387 l -2.75022,-0.0522 c -0.103773,0 -0.155546,0.10405 -0.155546,0.31161 0,0.20755 0.05177,0.31109 0.155546,0.31109 1.07238,0 1.868048,0.10405 2.386934,0.31161 0.518894,0.17296 0.864703,0.50168 1.037663,0.98598 0.172967,0.4843 0.259416,1.24529 0.259416,2.28307 v 24.02437 c 0,1.03779 -0.08645,1.81637 -0.259416,2.33526 -0.17296,0.4843 -0.518769,0.81302 -1.037663,0.98599 -0.4843,0.17296 -1.279967,0.25941 -2.386934,0.25941 -0.103773,0 -0.155546,0.10353 -0.155546,0.31109 0,0.20756 0.05177,0.31161 0.155546,0.31161 1.176153,0 2.110043,-0.0176 2.801896,-0.0522 l 3.787882,-0.0517 4.514454,0.0517 c 0.795633,0.0346 1.902427,0.0522 3.320727,0.0522 0.10378,0 0.156063,-0.10405 0.156063,-0.31161 0,-0.20756 -0.05228,-0.31109 -0.156063,-0.31109 -1.487487,0 -2.577198,-0.10405 -3.269051,-0.31161 -0.65726,-0.20756 -1.106602,-0.55336 -1.348755,-1.03766 -0.242147,-0.51889 -0.363285,-1.33164 -0.363285,-2.43861 v -23.71328 c 0,-1.31453 0.172905,-2.19665 0.518831,-2.64635 0.345927,-0.4497 1.003373,-0.6749 1.971973,-0.6749 2.213933,0 3.891724,0.7439 5.033284,2.23139 1.176154,1.48749 1.764234,3.59754 1.764234,6.33036 0,2.73283 -0.536314,4.84288 -1.608688,6.33037 -1.037786,1.48748 -2.352161,2.23139 -3.943428,2.23139 -0.65726,0 -1.245347,-0.0694 -1.764234,-0.20774 -0.06919,-0.0346 -0.138552,9e-5 -0.207739,0.10387 -0.0346,0.10378 -0.05219,0.20783 -0.05219,0.31161 0,0.17296 0.03468,0.25941 0.10387,0.25941 0.691853,0.17297 1.505121,0.25942 2.439127,0.25942 1.833414,0 3.614744,-0.3805 5.344377,-1.14154 1.764233,-0.76104 3.199747,-1.88542 4.306714,-3.37292 1.106966,-1.48748 1.660364,-3.3035 1.660364,-5.44824 0,-3.07876 -1.020339,-5.34463 -3.061312,-6.79752 -2.040966,-1.48749 -4.825552,-2.23139 -8.354012,-2.23139 z m -59.168999,7.42022 5.967595,11.8308 H 17.636133 Z" /><path
           id="path6"
           style="fill:#ffffff;fill-opacity:1;stroke-width:0.0899999;stroke-linecap:round;stroke-miterlimit:5.3;paint-order:markers fill stroke"
           d="m 28.141951,-428.03382 12.811105,25.2367 0.0036,0.006 c 1.194564,2.42326 2.195791,3.55438 2.87321,4.34961 0.679651,0.79785 1.225832,1.04903 1.730644,1.04903 0.286484,0 0.707526,0.13341 0.960664,0.43718 0.253135,0.30376 0.29714,0.63273 0.29714,0.8754 0,0.0965 -0.0073,0.73528 -0.03152,0.85163 5.126675,0.0758 14.293348,0.0481 19.573999,-0.002 -0.0213,-0.12032 -0.02119,-0.75061 -0.02119,-0.84956 0,-0.18711 -10e-4,-0.39121 0.144177,-0.68161 0.14519,-0.2904 0.626584,-0.63097 1.011825,-0.63097 2.587444,0 2.683557,-0.34459 2.683557,-2.05104 v -24.02541 c 0,-0.98222 -0.104151,-1.1447 -0.201021,-1.41593 -0.426216,-0.74559 -1.784503,-0.62676 -2.482536,-0.6351 -0.385231,0 -0.866113,-0.34057 -1.011308,-0.63097 -0.145195,-0.2904 -0.144694,-0.49245 -0.144694,-0.67955 0,-0.10016 -3.8e-4,-0.73419 0.0217,-0.85473 -9.2848,-0.10805 -32.111921,-0.28248 -38.219373,-0.34881 z m 25.532809,3.34346 v 5.2e-4 c 1.327747,0 2.456413,0.31869 3.38584,0.95601 0.46471,0.30538 0.813059,0.70719 1.045414,1.2051 0.23238,0.4979 0.348816,1.09189 0.348816,1.78232 0,0.51782 -0.06665,1.01237 -0.199471,1.48363 -0.06633,0.23546 -0.14962,0.46601 -0.249081,0.68988 -0.09952,0.22392 -0.215627,0.44242 -0.348299,0.65474 -0.531106,0.82321 -1.181725,1.55324 -1.951819,2.19056 -0.770093,0.61076 -1.818824,1.35456 -3.146577,2.23088 l -0.717269,0.478 c 0.98254,1.51364 2.181072,3.00388 3.595129,4.47105 1.414,1.46714 3.043596,2.91087 4.889107,4.33152 0.769949,-1.48698 1.155485,-3.16015 1.155485,-5.01882 0,-0.5311 -0.05346,-0.99272 -0.15968,-1.38441 -0.02652,-0.0977 -0.05626,-0.19154 -0.0894,-0.2806 -0.03315,-0.089 -0.06979,-0.17441 -0.109554,-0.25477 -0.03978,-0.0803 -0.08332,-0.15675 -0.129708,-0.22841 -0.04641,-0.0717 -0.09632,-0.13857 -0.149345,-0.20154 v -5.1e-4 c -0.02482,-0.0331 -0.05146,-0.0656 -0.07906,-0.0966 -0.02769,-0.0311 -0.05684,-0.0609 -0.08733,-0.0899 -0.121927,-0.11606 -0.26638,-0.21576 -0.433048,-0.29868 -0.249992,-0.12431 -0.551148,-0.21171 -0.901754,-0.26149 -0.234016,-0.0332 -0.490119,-0.0496 -0.768946,-0.0496 -0.0059,0 -0.01248,-7.3e-4 -0.01809,-0.002 -0.0085,-10e-4 -0.01699,-0.004 -0.02481,-0.007 -0.03594,-0.0157 -0.06454,-0.0528 -0.0863,-0.11111 -0.01225,-0.0329 -0.02275,-0.0724 -0.03049,-0.11885 v -5.2e-4 c 1.5e-5,-0.0197 9.24e-4,-0.0385 0.0026,-0.0558 0.0033,-0.0346 0.01026,-0.0646 0.02015,-0.0894 v -5.2e-4 c 0.0024,-0.006 0.0049,-0.0121 0.0078,-0.0176 0.0058,-0.0111 0.01277,-0.0208 0.02015,-0.0294 v -5.2e-4 c 0.01864,-0.0216 0.04291,-0.0357 0.07183,-0.0419 0.0057,-10e-4 0.01204,-0.002 0.01809,-0.003 0.0061,-5.9e-4 0.01266,-10e-4 0.01912,-10e-4 l 8.524028,-0.0398 c 0.04633,0 0.08291,0.0157 0.109037,0.046 0.0036,0.004 0.0071,0.009 0.01034,0.0139 0.0066,0.01 0.01263,0.0213 0.01757,0.0336 0.0024,0.006 0.0047,0.013 0.0067,0.0196 0.01034,0.0341 0.01547,0.0765 0.0155,0.12609 0,0.0396 -0.0032,0.0746 -0.0098,0.10439 -0.0049,0.0222 -0.01206,0.0422 -0.02067,0.0589 -0.02614,0.0504 -0.06892,0.0754 -0.128674,0.0754 -0.876313,0 -1.540176,0.0932 -1.99161,0.27905 -0.424873,0.15934 -0.73033,0.39809 -0.916223,0.71675 -0.09288,0.15922 -0.185655,0.36231 -0.278536,0.60772 -0.09294,0.24563 -0.186109,0.53416 -0.279053,0.86609 -0.48007,1.67137 -1.044184,3.13475 -1.678967,4.42505 -0.313269,0.63679 -0.638647,1.24452 -0.989604,1.78853 1.61986,1.16842 3.146629,2.1245 4.580599,2.86804 1.433974,0.74354 2.628808,1.22157 3.584795,1.43402 0.0069,0.002 0.01331,0.004 0.01964,0.006 0.01267,0.005 0.02419,0.0103 0.03462,0.0171 0.0052,0.003 0.01033,0.007 0.01499,0.0109 0.0093,0.008 0.01774,0.0172 0.02481,0.0274 0.02672,0.0383 0.03714,0.0932 0.03204,0.16329 -0.0013,0.0171 -0.0036,0.0358 -0.0067,0.0548 0,0.0496 -0.0054,0.0904 -0.01654,0.12144 -0.01867,0.0519 -0.05306,0.0775 -0.102836,0.0775 h -4.699972 c -0.278692,0 -0.596398,-0.0558 -0.951363,-0.16692 -1.061237,-0.33226 -2.46517,-1.16372 -4.208012,-2.48874 -0.0068,-0.005 -0.01233,-0.008 -0.01912,-0.0134 -0.01509,0.0151 -0.03136,0.0279 -0.04651,0.0429 -0.23164,0.2291 -0.470068,0.44534 -0.715202,0.64906 -0.0013,0.001 -0.0028,0.002 -0.0041,0.003 -0.07657,0.0636 -0.156476,0.12121 -0.235128,0.18087 -0.0087,0.007 -0.01718,0.0139 -0.02584,0.0207 -0.0057,0.004 -0.0114,0.008 -0.01705,0.0124 -0.175036,0.13587 -0.351144,0.26982 -0.532784,0.39326 -0.0014,9.6e-4 -0.0027,0.002 -0.0041,0.003 -0.108135,0.0734 -0.219738,0.14028 -0.330213,0.20929 -0.0017,10e-4 -0.0035,0.002 -0.0052,0.003 -0.170784,0.10654 -0.342978,0.21042 -0.519349,0.30644 h -5.16e-4 v 5.2e-4 h -5.17e-4 -5.17e-4 c -0.121446,0.0661 -0.244875,0.12854 -0.36897,0.18965 -0.0021,0.001 -0.0041,0.002 -0.0062,0.003 -0.177578,0.0873 -0.358053,0.16939 -0.541052,0.2465 -0.125809,0.053 -0.251968,0.10527 -0.380338,0.15348 -5.11e-4,1.9e-4 -9.51e-4,3.1e-4 -0.0016,5.1e-4 -0.193581,0.0726 -0.391255,0.13727 -0.590661,0.19896 -0.0021,6.5e-4 -0.0041,10e-4 -0.0062,0.002 -0.0017,5.2e-4 -0.0035,0.001 -0.0052,0.002 h -5.17e-4 v 5.2e-4 h -5.17e-4 c -0.02437,0.008 -0.04904,0.0146 -0.07338,0.0222 -0.100422,0.0313 -0.200398,0.0629 -0.302824,0.0904 -0.224146,0.0602 -0.453994,0.10968 -0.68523,0.15658 -0.107368,0.0218 -0.212013,0.0488 -0.32091,0.0677 h -5.17e-4 c -0.715869,0.12422 -1.463418,0.18913 -2.245341,0.18913 -1.672967,0 -3.080615,-0.26524 -4.222481,-0.79633 -0.8564,-0.41825 -1.548059,-0.93374 -2.075843,-1.54616 h -5.16e-4 c -0.175969,-0.20412 -0.333425,-0.41921 -0.47284,-0.64492 -0.531093,-0.90288 -0.796334,-1.87218 -0.796334,-2.90783 0,-0.55765 0.06515,-1.08937 0.195854,-1.59474 0.04354,-0.1683 0.09493,-0.33412 0.152962,-0.49661 0.174248,-0.48772 0.413986,-0.94996 0.71882,-1.38544 0.101537,-0.14502 0.210057,-0.28762 0.326078,-0.42685 0.955986,-1.11532 2.310691,-2.31017 4.063318,-3.5848 -0.477987,-0.71699 -0.863379,-1.38084 -1.155485,-1.99161 -0.385047,-0.80993 -0.673574,-1.57701 -0.866097,-2.30063 -0.192433,-0.72344 -0.288872,-1.40405 -0.288872,-2.04122 0,-0.59749 0.06988,-1.16869 0.20929,-1.71307 0.139413,-0.5442 0.348607,-1.06176 0.627352,-1.55288 v -5.2e-4 c 0.145993,-0.2455 0.305485,-0.47907 0.478007,-0.6997 0.172541,-0.22062 0.358517,-0.4285 0.557589,-0.62425 v -5.1e-4 c 0.199,-0.19569 0.411664,-0.37901 0.63717,-0.54984 l 5.17e-4,-5.2e-4 c 0.225724,-0.17096 0.464479,-0.32937 0.716752,-0.47542 0.258713,-0.14594 0.528083,-0.274 0.806669,-0.38344 0.278816,-0.10951 0.56737,-0.20039 0.866097,-0.27337 0.597488,-0.14605 1.234875,-0.21911 1.912028,-0.21911 z m -1.314649,0.87695 c -1.96508,0 -2.947623,1.20809 -2.947623,3.62459 0,2.07129 0.703562,4.27567 2.110982,6.61251 1.354307,-1.0622 2.390317,-2.08497 3.107304,-3.06751 0.74354,-1.0091 1.115177,-2.15099 1.115177,-3.42563 0,-1.16841 -0.305463,-2.08427 -0.916223,-2.74815 -0.610766,-0.66386 -1.43397,-0.99581 -2.469617,-0.99581 z m -2.787943,12.46746 c -0.95598,0.79665 -1.699772,1.63309 -2.230872,2.50941 -0.5311,0.84976 -0.79685,1.81907 -0.79685,2.90783 0,1.08875 0.278988,2.11102 0.836641,3.067 0.584207,0.92943 1.394179,1.67322 2.429826,2.23087 1.035647,0.55766 2.204012,0.83664 3.505212,0.83664 2.097847,0 3.903601,-0.75702 5.417241,-2.27066 -0.34522,-0.239 -0.65067,-0.47828 -0.916223,-0.71727 -1.593294,-1.27466 -3.120073,-2.65531 -4.580599,-4.14239 -1.433974,-1.48708 -2.655283,-2.96091 -3.664376,-4.42143 z m 44.647404,10.50168 c -0.968597,0 -1.747182,0.27696 -2.335258,0.83044 -0.553484,0.55349 -0.829924,1.27979 -0.829924,2.1792 0,0.9686 0.27644,1.74666 0.829924,2.33474 0.588076,0.55348 1.366661,0.83044 2.335258,0.83044 0.968596,0 1.712497,-0.27696 2.231388,-0.83044 0.553484,-0.55348 0.829924,-1.33155 0.829924,-2.33474 0,-0.93401 -0.27644,-1.66031 -0.829924,-2.1792 -0.518891,-0.55348 -1.262792,-0.83044 -2.231388,-0.83044 z" /></g><rect
         style="fill:#333333;fill-opacity:1;stroke:none;stroke-width:1.03083;stroke-linecap:round;stroke-miterlimit:5.3;stroke-opacity:1;paint-order:markers fill stroke"
         id="rect6"
         width="1.9166107"
         height="95.870995"
         x="295.8714"
         y="302.06448" /></g></g><rect
     style="fill:#333333;fill-opacity:1;stroke:none;stroke-width:1;stroke-linecap:round;stroke-miterlimit:5.3;paint-order:stroke markers fill"
     id="rect8"
     width="211.66666"
     height="211.66666"
     x="-520.79559"
     y="0" /><g
     id="g18"
     transform="matrix(0.26458333,0,0,0.26458333,-1171.8473,-161.60884)"
     inkscape:export-filename="A&amp;P-logo-white.webp"
     inkscape:export-xdpi="96"
     inkscape:export-ydpi="96"
     style="fill:#ffffff;fill-opacity:1"><g
       id="g17"
       transform="matrix(1.6114786,0,0,1.6114786,2420.6171,446.78757)"
       style="fill:#ffffff;fill-opacity:1"><g
         id="g15"
         transform="matrix(0.6114776,0,0,0.6114776,254.44774,49.142898)"
         style="fill:#ffffff;fill-opacity:1"><text
           xml:space="preserve"
           style="font-style:normal;font-variant:normal;font-weight:bold;font-stretch:normal;font-size:51.8891px;line-height:1.5em;font-family:'Cormorant Garamond';-inkscape-font-specification:'Cormorant Garamond, Bold';font-variant-ligatures:normal;font-variant-caps:normal;font-variant-numeric:normal;font-variant-east-asian:normal;text-align:justify;letter-spacing:0px;word-spacing:0px;writing-mode:lr-tb;direction:ltr;fill:#ffffff;fill-opacity:1;stroke-width:4.12395;stroke-linecap:round;stroke-miterlimit:5.3;paint-order:markers fill stroke"
           x="101.99319"
           y="491.23105"
           id="text9"><tspan
             style="font-style:normal;font-variant:normal;font-weight:bold;font-stretch:normal;font-size:51.8891px;font-family:'Cormorant Garamond';-inkscape-font-specification:'Cormorant Garamond, Bold';font-variant-ligatures:normal;font-variant-caps:normal;font-variant-numeric:normal;font-variant-east-asian:normal;letter-spacing:0px;fill:#ffffff;fill-opacity:1;stroke-width:4.12395"
             x="101.99319"
             y="491.23105"
             id="tspan9">Albany</tspan></text><text
           xml:space="preserve"
           style="font-style:normal;font-variant:normal;font-weight:bold;font-stretch:normal;font-size:51.8891px;line-height:1.5em;font-family:'Cormorant Garamond';-inkscape-font-specification:'Cormorant Garamond, Bold';font-variant-ligatures:normal;font-variant-caps:normal;font-variant-numeric:normal;font-variant-east-asian:normal;text-align:justify;letter-spacing:0px;word-spacing:0px;writing-mode:lr-tb;direction:ltr;fill:#ffffff;fill-opacity:1;stroke-width:4.12395;stroke-linecap:round;stroke-miterlimit:5.3;paint-order:markers fill stroke"
           x="164.40152"
           y="529.79895"
           id="text11"><tspan
             id="tspan10"
             style="font-style:normal;font-variant:normal;font-weight:bold;font-stretch:normal;font-size:51.8891px;font-family:'Cormorant Garamond';-inkscape-font-specification:'Cormorant Garamond, Bold';font-variant-ligatures:normal;font-variant-caps:normal;font-variant-numeric:normal;font-variant-east-asian:normal;letter-spacing:0px;fill:#ffffff;fill-opacity:1;stroke-width:4.12395"
             x="164.40152"
             y="529.79895">Partners</tspan></text><text
           xml:space="preserve"
           style="font-style:normal;font-variant:normal;font-weight:500;font-stretch:normal;font-size:50.2331px;line-height:1.5em;font-family:'Cormorant Garamond';-inkscape-font-specification:'Cormorant Garamond, Medium';font-variant-ligatures:normal;font-variant-caps:normal;font-variant-numeric:normal;font-variant-east-asian:normal;text-align:justify;letter-spacing:0px;word-spacing:0px;writing-mode:lr-tb;direction:ltr;fill:#ffffff;fill-opacity:1;stroke-width:3.99233;stroke-linecap:round;stroke-miterlimit:5.3;paint-order:markers fill stroke"
           x="124.83582"
           y="529.19623"
           id="text13"><tspan
             id="tspan11"
             style="font-style:normal;font-variant:normal;font-weight:500;font-stretch:normal;font-size:50.2331px;font-family:'Cormorant Garamond';-inkscape-font-specification:'Cormorant Garamond, Medium';font-variant-ligatures:normal;font-variant-caps:normal;font-variant-numeric:normal;font-variant-east-asian:normal;letter-spacing:0px;fill:#ffffff;fill-opacity:1;stroke-width:3.99233"
             x="124.83582"
             y="529.19623">&amp;</tspan></text></g><g
         id="g16"
         transform="matrix(2.0969826,0,0,2.0969826,73.102673,1212.5973)"
         style="fill:#ffffff;fill-opacity:1"><path
           id="path15"
           style="font-weight:bold;font-size:51.8891px;line-height:1.5em;font-family:'Cormorant Garamond';-inkscape-font-specification:'Cormorant Garamond, Bold';text-align:justify;letter-spacing:0px;word-spacing:0px;baseline-shift:baseline;display:inline;overflow:visible;vector-effect:none;fill:#ffffff;fill-opacity:1;stroke-linecap:round;stroke-miterlimit:5.3;paint-order:markers fill stroke;enable-background:accumulate;stop-color:#000000"
           d="m 25.264091,-428.03382 c -0.242147,0 -0.397968,0.0518 -0.467155,0.15554 l -11.259778,24.75095 c -0.899413,2.00637 -1.677998,3.52834 -2.335258,4.56613 -0.657266,1.00318 -1.3147124,1.7124 -1.9719724,2.12752 -0.6572603,0.38052 -1.4700109,0.57102 -2.4386109,0.57102 -0.1383666,0 -0.2077392,0.10353 -0.2077392,0.31109 0,0.20756 0.069373,0.31161 0.2077392,0.31161 0.7264467,0 1.6779355,-0.0347 2.8540894,-0.10387 1.3145269,-0.0692 2.4383969,-0.10387 3.3724039,-0.10387 0.968593,0 2.110587,0.0347 3.425114,0.10387 1.176153,0.0692 2.07536,0.10387 2.698027,0.10387 0.17296,0 0.259415,-0.10405 0.259415,-0.31161 0,-0.20756 -0.08646,-0.31109 -0.259415,-0.31109 -1.487487,0 -2.68073,-0.34632 -3.580144,-1.03818 -0.86482,-0.69185 -1.297595,-1.66042 -1.297595,-2.90576 0,-0.86482 0.225188,-1.79871 0.674894,-2.8019 l 2.023649,-4.51445 h 12.764596 l 3.528467,7.00525 c 0.69186,1.38372 1.037662,2.36937 1.037662,2.95745 0,0.4843 -0.207587,0.83062 -0.622701,1.03818 -0.38052,0.17296 -1.020366,0.25941 -1.919779,0.25941 -0.138373,0 -0.207739,0.10353 -0.207739,0.31109 0,0.20756 0.06937,0.31161 0.207739,0.31161 0.691853,0 1.625743,-0.0347 2.801896,-0.10387 1.24534,-0.0692 2.300362,-0.10387 3.165182,-0.10387 0.65726,0 1.746971,0.0347 3.269051,0.10387 1.452893,0.0692 2.525521,0.10387 3.217374,0.10387 0.172967,0 0.259416,-0.10405 0.259416,-0.31161 0,-0.20756 -0.08645,-0.31109 -0.259416,-0.31109 -0.864813,0 -1.69517,-0.46695 -2.490804,-1.40095 -0.795633,-0.934 -1.798888,-2.62939 -3.009635,-5.08547 l -12.972335,-25.5292 c -0.03459,-0.10378 -0.189891,-0.15554 -0.466638,-0.15554 z m 56.885417,0.20722 c -0.899414,0 -1.695081,0.0176 -2.386935,0.0522 -0.691853,0.0346 -1.26285,0.0688 -1.712557,0.10336 -1.14156,0.10378 -2.127215,0.15606 -2.957442,0.15606 -0.934007,0 -2.196622,-0.0347 -3.787882,-0.10387 l -2.75022,-0.0522 c -0.103773,0 -0.155546,0.10405 -0.155546,0.31161 0,0.20755 0.05177,0.31109 0.155546,0.31109 1.07238,0 1.868048,0.10405 2.386934,0.31161 0.518894,0.17296 0.864703,0.50168 1.037663,0.98598 0.172967,0.4843 0.259416,1.24529 0.259416,2.28307 v 24.02437 c 0,1.03779 -0.08645,1.81637 -0.259416,2.33526 -0.17296,0.4843 -0.518769,0.81302 -1.037663,0.98599 -0.4843,0.17296 -1.279967,0.25941 -2.386934,0.25941 -0.103773,0 -0.155546,0.10353 -0.155546,0.31109 0,0.20756 0.05177,0.31161 0.155546,0.31161 1.176153,0 2.110043,-0.0176 2.801896,-0.0522 l 3.787882,-0.0517 4.514454,0.0517 c 0.795633,0.0346 1.902427,0.0522 3.320727,0.0522 0.10378,0 0.156063,-0.10405 0.156063,-0.31161 0,-0.20756 -0.05228,-0.31109 -0.156063,-0.31109 -1.487487,0 -2.577198,-0.10405 -3.269051,-0.31161 -0.65726,-0.20756 -1.106602,-0.55336 -1.348755,-1.03766 -0.242147,-0.51889 -0.363285,-1.33164 -0.363285,-2.43861 v -23.71328 c 0,-1.31453 0.172905,-2.19665 0.518831,-2.64635 0.345927,-0.4497 1.003373,-0.6749 1.971973,-0.6749 2.213933,0 3.891724,0.7439 5.033284,2.23139 1.176154,1.48749 1.764234,3.59754 1.764234,6.33036 0,2.73283 -0.536314,4.84288 -1.608688,6.33037 -1.037786,1.48748 -2.352161,2.23139 -3.943428,2.23139 -0.65726,0 -1.245347,-0.0694 -1.764234,-0.20774 -0.06919,-0.0346 -0.138552,9e-5 -0.207739,0.10387 -0.0346,0.10378 -0.05219,0.20783 -0.05219,0.31161 0,0.17296 0.03468,0.25941 0.10387,0.25941 0.691853,0.17297 1.505121,0.25942 2.439127,0.25942 1.833414,0 3.614744,-0.3805 5.344377,-1.14154 1.764233,-0.76104 3.199747,-1.88542 4.306714,-3.37292 1.106966,-1.48748 1.660364,-3.3035 1.660364,-5.44824 0,-3.07876 -1.020339,-5.34463 -3.061312,-6.79752 -2.040966,-1.48749 -4.825552,-2.23139 -8.354012,-2.23139 z m -59.168999,7.42022 5.967595,11.8308 H 17.636133 Z" /><path
           id="path16"
           style="fill:#f78d3a;fill-opacity:1;stroke-width:0.0899999;stroke-linecap:round;stroke-miterlimit:5.3;paint-order:markers fill stroke"
           d="m 28.141951,-428.03382 12.811105,25.2367 0.0036,0.006 c 1.194564,2.42326 2.195791,3.55438 2.87321,4.34961 0.679651,0.79785 1.225832,1.04903 1.730644,1.04903 0.286484,0 0.707526,0.13341 0.960664,0.43718 0.253135,0.30376 0.29714,0.63273 0.29714,0.8754 0,0.0965 -0.0073,0.73528 -0.03152,0.85163 5.126675,0.0758 14.293348,0.0481 19.573999,-0.002 -0.0213,-0.12032 -0.02119,-0.75061 -0.02119,-0.84956 0,-0.18711 -10e-4,-0.39121 0.144177,-0.68161 0.14519,-0.2904 0.626584,-0.63097 1.011825,-0.63097 2.587444,0 2.683557,-0.34459 2.683557,-2.05104 v -24.02541 c 0,-0.98222 -0.104151,-1.1447 -0.201021,-1.41593 -0.426216,-0.74559 -1.784503,-0.62676 -2.482536,-0.6351 -0.385231,0 -0.866113,-0.34057 -1.011308,-0.63097 -0.145195,-0.2904 -0.144694,-0.49245 -0.144694,-0.67955 0,-0.10016 -3.8e-4,-0.73419 0.0217,-0.85473 -9.2848,-0.10805 -32.111921,-0.28248 -38.219373,-0.34881 z m 25.532809,3.34346 v 5.2e-4 c 1.327747,0 2.456413,0.31869 3.38584,0.95601 0.46471,0.30538 0.813059,0.70719 1.045414,1.2051 0.23238,0.4979 0.348816,1.09189 0.348816,1.78232 0,0.51782 -0.06665,1.01237 -0.199471,1.48363 -0.06633,0.23546 -0.14962,0.46601 -0.249081,0.68988 -0.09952,0.22392 -0.215627,0.44242 -0.348299,0.65474 -0.531106,0.82321 -1.181725,1.55324 -1.951819,2.19056 -0.770093,0.61076 -1.818824,1.35456 -3.146577,2.23088 l -0.717269,0.478 c 0.98254,1.51364 2.181072,3.00388 3.595129,4.47105 1.414,1.46714 3.043596,2.91087 4.889107,4.33152 0.769949,-1.48698 1.155485,-3.16015 1.155485,-5.01882 0,-0.5311 -0.05346,-0.99272 -0.15968,-1.38441 -0.02652,-0.0977 -0.05626,-0.19154 -0.0894,-0.2806 -0.03315,-0.089 -0.06979,-0.17441 -0.109554,-0.25477 -0.03978,-0.0803 -0.08332,-0.15675 -0.129708,-0.22841 -0.04641,-0.0717 -0.09632,-0.13857 -0.149345,-0.20154 v -5.1e-4 c -0.02482,-0.0331 -0.05146,-0.0656 -0.07906,-0.0966 -0.02769,-0.0311 -0.05684,-0.0609 -0.08733,-0.0899 -0.121927,-0.11606 -0.26638,-0.21576 -0.433048,-0.29868 -0.249992,-0.12431 -0.551148,-0.21171 -0.901754,-0.26149 -0.234016,-0.0332 -0.490119,-0.0496 -0.768946,-0.0496 -0.0059,0 -0.01248,-7.3e-4 -0.01809,-0.002 -0.0085,-10e-4 -0.01699,-0.004 -0.02481,-0.007 -0.03594,-0.0157 -0.06454,-0.0528 -0.0863,-0.11111 -0.01225,-0.0329 -0.02275,-0.0724 -0.03049,-0.11885 v -5.2e-4 c 1.5e-5,-0.0197 9.24e-4,-0.0385 0.0026,-0.0558 0.0033,-0.0346 0.01026,-0.0646 0.02015,-0.0894 v -5.2e-4 c 0.0024,-0.006 0.0049,-0.0121 0.0078,-0.0176 0.0058,-0.0111 0.01277,-0.0208 0.02015,-0.0294 v -5.2e-4 c 0.01864,-0.0216 0.04291,-0.0357 0.07183,-0.0419 0.0057,-10e-4 0.01204,-0.002 0.01809,-0.003 0.0061,-5.9e-4 0.01266,-10e-4 0.01912,-10e-4 l 8.524028,-0.0398 c 0.04633,0 0.08291,0.0157 0.109037,0.046 0.0036,0.004 0.0071,0.009 0.01034,0.0139 0.0066,0.01 0.01263,0.0213 0.01757,0.0336 0.0024,0.006 0.0047,0.013 0.0067,0.0196 0.01034,0.0341 0.01547,0.0765 0.0155,0.12609 0,0.0396 -0.0032,0.0746 -0.0098,0.10439 -0.0049,0.0222 -0.01206,0.0422 -0.02067,0.0589 -0.02614,0.0504 -0.06892,0.0754 -0.128674,0.0754 -0.876313,0 -1.540176,0.0932 -1.99161,0.27905 -0.424873,0.15934 -0.73033,0.39809 -0.916223,0.71675 -0.09288,0.15922 -0.185655,0.36231 -0.278536,0.60772 -0.09294,0.24563 -0.186109,0.53416 -0.279053,0.86609 -0.48007,1.67137 -1.044184,3.13475 -1.678967,4.42505 -0.313269,0.63679 -0.638647,1.24452 -0.989604,1.78853 1.61986,1.16842 3.146629,2.1245 4.580599,2.86804 1.433974,0.74354 2.628808,1.22157 3.584795,1.43402 0.0069,0.002 0.01331,0.004 0.01964,0.006 0.01267,0.005 0.02419,0.0103 0.03462,0.0171 0.0052,0.003 0.01033,0.007 0.01499,0.0109 0.0093,0.008 0.01774,0.0172 0.02481,0.0274 0.02672,0.0383 0.03714,0.0932 0.03204,0.16329 -0.0013,0.0171 -0.0036,0.0358 -0.0067,0.0548 0,0.0496 -0.0054,0.0904 -0.01654,0.12144 -0.01867,0.0519 -0.05306,0.0775 -0.102836,0.0775 h -4.699972 c -0.278692,0 -0.596398,-0.0558 -0.951363,-0.16692 -1.061237,-0.33226 -2.46517,-1.16372 -4.208012,-2.48874 -0.0068,-0.005 -0.01233,-0.008 -0.01912,-0.0134 -0.01509,0.0151 -0.03136,0.0279 -0.04651,0.0429 -0.23164,0.2291 -0.470068,0.44534 -0.715202,0.64906 -0.0013,0.001 -0.0028,0.002 -0.0041,0.003 -0.07657,0.0636 -0.156476,0.12121 -0.235128,0.18087 -0.0087,0.007 -0.01718,0.0139 -0.02584,0.0207 -0.0057,0.004 -0.0114,0.008 -0.01705,0.0124 -0.175036,0.13587 -0.351144,0.26982 -0.532784,0.39326 -0.0014,9.6e-4 -0.0027,0.002 -0.0041,0.003 -0.108135,0.0734 -0.219738,0.14028 -0.330213,0.20929 -0.0017,10e-4 -0.0035,0.002 -0.0052,0.003 -0.170784,0.10654 -0.342978,0.21042 -0.519349,0.30644 h -5.16e-4 v 5.2e-4 h -5.17e-4 -5.17e-4 c -0.121446,0.0661 -0.244875,0.12854 -0.36897,0.18965 -0.0021,0.001 -0.0041,0.002 -0.0062,0.003 -0.177578,0.0873 -0.358053,0.16939 -0.541052,0.2465 -0.125809,0.053 -0.251968,0.10527 -0.380338,0.15348 -5.11e-4,1.9e-4 -9.51e-4,3.1e-4 -0.0016,5.1e-4 -0.193581,0.0726 -0.391255,0.13727 -0.590661,0.19896 -0.0021,6.5e-4 -0.0041,10e-4 -0.0062,0.002 -0.0017,5.2e-4 -0.0035,0.001 -0.0052,0.002 h -5.17e-4 v 5.2e-4 h -5.17e-4 c -0.02437,0.008 -0.04904,0.0146 -0.07338,0.0222 -0.100422,0.0313 -0.200398,0.0629 -0.302824,0.0904 -0.224146,0.0602 -0.453994,0.10968 -0.68523,0.15658 -0.107368,0.0218 -0.212013,0.0488 -0.32091,0.0677 h -5.17e-4 c -0.715869,0.12422 -1.463418,0.18913 -2.245341,0.18913 -1.672967,0 -3.080615,-0.26524 -4.222481,-0.79633 -0.8564,-0.41825 -1.548059,-0.93374 -2.075843,-1.54616 h -5.16e-4 c -0.175969,-0.20412 -0.333425,-0.41921 -0.47284,-0.64492 -0.531093,-0.90288 -0.796334,-1.87218 -0.796334,-2.90783 0,-0.55765 0.06515,-1.08937 0.195854,-1.59474 0.04354,-0.1683 0.09493,-0.33412 0.152962,-0.49661 0.174248,-0.48772 0.413986,-0.94996 0.71882,-1.38544 0.101537,-0.14502 0.210057,-0.28762 0.326078,-0.42685 0.955986,-1.11532 2.310691,-2.31017 4.063318,-3.5848 -0.477987,-0.71699 -0.863379,-1.38084 -1.155485,-1.99161 -0.385047,-0.80993 -0.673574,-1.57701 -0.866097,-2.30063 -0.192433,-0.72344 -0.288872,-1.40405 -0.288872,-2.04122 0,-0.59749 0.06988,-1.16869 0.20929,-1.71307 0.139413,-0.5442 0.348607,-1.06176 0.627352,-1.55288 v -5.2e-4 c 0.145993,-0.2455 0.305485,-0.47907 0.478007,-0.6997 0.172541,-0.22062 0.358517,-0.4285 0.557589,-0.62425 v -5.1e-4 c 0.199,-0.19569 0.411664,-0.37901 0.63717,-0.54984 l 5.17e-4,-5.2e-4 c 0.225724,-0.17096 0.464479,-0.32937 0.716752,-0.47542 0.258713,-0.14594 0.528083,-0.274 0.806669,-0.38344 0.278816,-0.10951 0.56737,-0.20039 0.866097,-0.27337 0.597488,-0.14605 1.234875,-0.21911 1.912028,-0.21911 z m -1.314649,0.87695 c -1.96508,0 -2.947623,1.20809 -2.947623,3.62459 0,2.07129 0.703562,4.27567 2.110982,6.61251 1.354307,-1.0622 2.390317,-2.08497 3.107304,-3.06751 0.74354,-1.0091 1.115177,-2.15099 1.115177,-3.42563 0,-1.16841 -0.305463,-2.08427 -0.916223,-2.74815 -0.610766,-0.66386 -1.43397,-0.99581 -2.469617,-0.99581 z m -2.787943,12.46746 c -0.95598,0.79665 -1.699772,1.63309 -2.230872,2.50941 -0.5311,0.84976 -0.79685,1.81907 -0.79685,2.90783 0,1.08875 0.278988,2.11102 0.836641,3.067 0.584207,0.92943 1.394179,1.67322 2.429826,2.23087 1.035647,0.55766 2.204012,0.83664 3.505212,0.83664 2.097847,0 3.903601,-0.75702 5.417241,-2.27066 -0.34522,-0.239 -0.65067,-0.47828 -0.916223,-0.71727 -1.593294,-1.27466 -3.120073,-2.65531 -4.580599,-4.14239 -1.433974,-1.48708 -2.655283,-2.96091 -3.664376,-4.42143 z m 44.647404,10.50168 c -0.968597,0 -1.747182,0.27696 -2.335258,0.83044 -0.553484,0.55349 -0.829924,1.27979 -0.829924,2.1792 0,0.9686 0.27644,1.74666 0.829924,2.33474 0.588076,0.55348 1.366661,0.83044 2.335258,0.83044 0.968596,0 1.712497,-0.27696 2.231388,-0.83044 0.553484,-0.55348 0.829924,-1.33155 0.829924,-2.33474 0,-0.93401 -0.27644,-1.66031 -0.829924,-2.1792 -0.518891,-0.55348 -1.262792,-0.83044 -2.231388,-0.83044 z" /></g><rect
         style="fill:#ffffff;fill-opacity:1;stroke:none;stroke-width:1.03083;stroke-linecap:round;stroke-miterlimit:5.3;stroke-opacity:1;paint-order:markers fill stroke"
         id="rect16"
         width="1.9166107"
         height="95.870995"
         x="295.8714"
         y="302.06448" /></g></g></svg>
