<?xml version="1.0" encoding="UTF-8" standalone="no"?>
<!-- Created with Inkscape (http://www.inkscape.org/) -->

<svg
   width="211.66666mm"
   height="211.66666mm"
   viewBox="0 0 211.66666 211.66665"
   version="1.1"
   id="svg1"
   xml:space="preserve"
   inkscape:version="1.4.3 (0d15f75042, 2025-12-25)"
   sodipodi:docname="CEPG_Rubrique-APdV_template.svg"
   xmlns:inkscape="http://www.inkscape.org/namespaces/inkscape"
   xmlns:sodipodi="http://sodipodi.sourceforge.net/DTD/sodipodi-0.dtd"
   xmlns="http://www.w3.org/2000/svg"
   xmlns:svg="http://www.w3.org/2000/svg"><sodipodi:namedview
     id="namedview1"
     pagecolor="#ffffff"
     bordercolor="#999999"
     borderopacity="1"
     inkscape:showpageshadow="2"
     inkscape:pageopacity="0"
     inkscape:pagecheckerboard="0"
     inkscape:deskcolor="#d1d1d1"
     inkscape:document-units="mm"
     showguides="true"
     inkscape:zoom="0.25"
     inkscape:cx="-810"
     inkscape:cy="374"
     inkscape:window-width="1366"
     inkscape:window-height="699"
     inkscape:window-x="0"
     inkscape:window-y="0"
     inkscape:window-maximized="1"
     inkscape:current-layer="layer1"><inkscape:page
       x="-2.8960157e-35"
       y="0"
       width="211.66667"
       height="211.66666"
       id="page1"
       margin="0"
       bleed="0" /></sodipodi:namedview><defs
     id="defs1"><rect
       x="1040.0182"
       y="460.66666"
       width="223.24814"
       height="79.445061"
       id="rect12" /><rect
       x="1040.0182"
       y="460.66666"
       width="237.81117"
       height="63.298065"
       id="rect23" /></defs><g
     inkscape:label="Calque 1"
     inkscape:groupmode="layer"
     id="layer1"
     transform="translate(351.7267,-5.238491)"><rect
       style="fill:#4c7282;fill-opacity:1;stroke-width:1.5;stroke-linecap:round;stroke-miterlimit:5.3;paint-order:stroke markers fill"
       id="rect26"
       width="211.66666"
       height="211.66666"
       x="-351.72668"
       y="5.2384911" /><g
       id="g11"
       transform="matrix(3.5369649,0,0,3.5369649,-1261.869,196.05997)"
       style="fill:#ffffff"><path
         style="fill:#ebca48;fill-opacity:1;stroke-width:0.158441"
         d="m 281.55571,-15.53215 c -0.0565,-0.01058 -0.20575,-0.0882 -0.33184,-0.17246 -0.12609,-0.08427 -0.26183,-0.172806 -0.30168,-0.196761 -0.1373,-0.08259 -0.21595,-0.162881 -0.25174,-0.25699 -0.0257,-0.06752 -0.10144,-0.113447 -0.26631,-0.161377 -0.22316,-0.06489 -0.37767,-0.177237 -0.54958,-0.39968 -0.0454,-0.05887 -0.14392,-0.143044 -0.21873,-0.187069 -0.13824,-0.08136 -0.21612,-0.280754 -0.16336,-0.418251 0.0198,-0.05144 -0.0173,-0.06319 -0.19911,-0.06319 -0.21644,0 -0.232,-0.0081 -0.50174,-0.262415 -0.1531,-0.144332 -0.27837,-0.275038 -0.27837,-0.290464 0,-0.04907 0.28042,-0.327469 0.32983,-0.327469 0.0261,0 0.0475,-0.01885 0.0475,-0.04191 0,-0.06024 -0.0271,-0.0538 -0.25518,0.06079 -0.22665,0.113836 -0.81412,0.211817 -1.02868,0.171564 -0.16631,-0.03119 -0.52858,0.05319 -0.49079,0.114345 0.0163,0.02646 0.006,0.03084 -0.0255,0.01119 -0.0288,-0.01781 -0.0981,-0.0079 -0.15388,0.02192 -0.0854,0.04568 -0.12407,0.04355 -0.24369,-0.01351 -0.14072,-0.0671 -0.14431,-0.06631 -0.34504,0.0764 -0.33169,0.235826 -0.56403,0.180682 -0.68845,-0.163405 -0.0414,-0.114625 -0.0687,-0.140576 -0.11953,-0.113923 -0.0362,0.01896 -0.1422,0.04714 -0.2355,0.06259 -0.16204,0.02681 -0.17236,0.02188 -0.23056,-0.110414 -0.0585,-0.132947 -0.0702,-0.138413 -0.29151,-0.136596 -0.40098,0.0034 -0.44219,0.02768 -0.54106,0.320473 -0.0482,0.142918 -0.0877,0.282921 -0.0877,0.311118 0,0.0282 -0.0414,0.142436 -0.0921,0.253867 -0.0507,0.111431 -0.0932,0.227886 -0.0946,0.258789 -0.002,0.0309 -0.0543,0.107985 -0.11757,0.171288 -0.0998,0.09984 -0.14095,0.112785 -0.31025,0.09764 -0.24786,-0.02215 -0.37489,-0.105767 -0.43431,-0.28582 -0.038,-0.114993 -0.0781,-0.150854 -0.2083,-0.185901 -0.12153,-0.03274 -0.19825,-0.09491 -0.31142,-0.252437 -0.0826,-0.11496 -0.15016,-0.225226 -0.15016,-0.245041 0,-0.01982 -0.0542,-0.156538 -0.12045,-0.30383 -0.0686,-0.152595 -0.11661,-0.326728 -0.1115,-0.40477 0.007,-0.113789 -0.014,-0.151138 -0.1266,-0.220738 -0.19573,-0.12097 -0.35073,-0.344262 -0.39188,-0.564569 -0.0197,-0.105415 -0.0682,-0.227535 -0.10795,-0.271379 -0.0549,-0.06071 -0.0761,-0.17751 -0.0886,-0.490005 -0.0138,-0.343747 -0.0285,-0.414782 -0.0902,-0.438008 -0.093,-0.03494 -0.28486,-0.212499 -0.31528,-0.291703 -0.0173,-0.04477 -0.0504,-0.02809 -0.13064,0.06578 l -0.10758,0.125763 -0.22124,-0.236057 c -0.16471,-0.175751 -0.29443,-0.266795 -0.50768,-0.356339 -0.23335,-0.09798 -0.34451,-0.181207 -0.59962,-0.448998 -0.29401,-0.308641 -0.41047,-0.49901 -0.56253,-0.919509 -0.0457,-0.126411 -0.0431,-0.168897 0.0183,-0.298293 0.0594,-0.125331 0.0996,-0.155358 0.23663,-0.177275 0.20616,-0.03296 0.23845,-0.07232 0.31865,-0.388357 l 0.0647,-0.254732 -0.13051,-0.228094 c -0.13837,-0.241868 -0.38303,-0.48622 -0.4868,-0.48622 -0.091,0 -0.38118,-0.201855 -0.45736,-0.318133 -0.0612,-0.09351 -0.0581,-0.114686 0.0466,-0.32069 0.0617,-0.121311 0.16658,-0.278915 0.23308,-0.350238 l 0.12089,-0.129673 -0.19992,-0.163773 c -0.19355,-0.158559 -0.20998,-0.163745 -0.51562,-0.162731 -0.24162,7.44e-4 -0.36445,0.02394 -0.52347,0.09871 -0.11427,0.05371 -0.25564,0.10537 -0.31418,0.114791 -0.27373,0.04407 -0.53396,0.114524 -0.61847,0.167467 -0.10286,0.06443 -0.2884,0.07768 -0.32219,0.02298 -0.012,-0.01934 -0.2536,-0.02701 -0.53697,-0.01706 -0.42969,0.01507 -0.54964,0.0051 -0.72247,-0.05958 -0.19945,-0.07476 -0.21009,-0.08711 -0.28335,-0.328766 -0.0419,-0.138104 -0.0662,-0.293622 -0.0539,-0.345598 0.0245,-0.103887 0.29291,-0.248775 0.50054,-0.270089 0.17346,-0.0178 0.26343,-0.194178 0.33102,-0.648883 0.0642,-0.432195 0.2337,-0.797163 0.38814,-0.835922 0.0975,-0.02447 0.1842,-0.199936 0.1842,-0.372832 0,-0.05097 0.0469,-0.161874 0.10432,-0.246428 0.18112,-0.266889 0.23411,-0.397127 0.20643,-0.507384 -0.0145,-0.05784 -0.042,-0.105168 -0.0609,-0.105168 -0.019,0 -0.0463,-0.03678 -0.0605,-0.0817 -0.0142,-0.04493 -0.0615,-0.09297 -0.10493,-0.106773 -0.12514,-0.03971 -0.12056,-0.154844 0.0131,-0.327782 0.10189,-0.131914 0.14641,-0.158088 0.25409,-0.149427 0.0718,0.0058 0.1826,-0.01722 0.24621,-0.05103 l 0.11562,-0.06153 -0.11562,-0.225664 c -0.0687,-0.134009 -0.18375,-0.274906 -0.28332,-0.346915 -0.26975,-0.195057 -0.3729,-0.353718 -0.38024,-0.584833 -0.004,-0.111277 0.005,-0.202322 0.0194,-0.202322 0.0142,0 0.0516,-0.06131 0.0831,-0.136242 0.0315,-0.07494 0.10238,-0.206988 0.15756,-0.29345 0.099,-0.155188 0.10381,-0.157204 0.37222,-0.157204 0.25576,0 0.27188,-0.0057 0.27188,-0.09642 0,-0.151672 0.0809,-0.197028 0.35154,-0.197028 0.19958,0 0.27068,0.01856 0.3475,0.09073 0.0905,0.08505 0.10142,0.08637 0.17369,0.02095 0.0424,-0.03838 0.11832,-0.06978 0.16869,-0.06978 0.0504,0 0.12436,-0.01799 0.16439,-0.03999 0.0953,-0.05236 1.3812,-0.125125 1.71887,-0.09727 0.14448,0.0119 0.27292,0.03825 0.28545,0.05851 0.0125,0.02024 0.11686,0.03686 0.23188,0.03686 0.16779,0 0.22787,-0.02021 0.30382,-0.102164 0.0682,-0.07358 0.17276,-0.11576 0.37378,-0.150768 0.24149,-0.04205 0.30463,-0.03886 0.46842,0.02369 0.10412,0.03976 0.17913,0.08874 0.16671,0.108843 -0.0278,0.04504 -0.0359,0.04516 0.41677,-0.0067 0.24932,-0.02856 0.44928,-0.02875 0.60786,-3.74e-4 0.12998,0.02312 0.30235,0.05161 0.38304,0.06333 0.37876,0.055 0.57024,0.114678 0.6688,0.208469 0.0898,0.08541 0.17684,0.109294 0.54693,0.150013 0.56059,0.06167 0.59497,0.06671 0.67074,0.09804 0.26997,0.111658 0.39993,0.135079 0.54112,0.09752 0.1279,-0.034 0.19792,-0.02069 0.46498,0.08868 0.17293,0.07081 0.44731,0.167349 0.60974,0.214546 0.20424,0.05935 0.33355,0.125781 0.41921,0.215378 0.10043,0.105041 0.14692,0.124983 0.24559,0.105351 0.067,-0.01332 0.33105,-0.0019 0.58689,0.02552 0.52642,0.05628 0.66234,0.120686 0.73793,0.349696 0.0317,0.0964 0.0744,0.146017 0.12535,0.146017 0.21944,0 0.28504,0.158354 0.11245,0.271444 -0.10882,0.07129 -0.50607,0.06099 -0.65164,-0.01691 -0.21001,-0.112396 -0.23978,0.02271 -0.0396,0.179443 0.1197,0.09368 0.13271,0.124978 0.12377,0.297696 -0.0107,0.205658 0.0409,0.305607 0.30784,0.597002 0.11205,0.122306 0.14934,0.140419 0.21582,0.104843 0.0494,-0.02641 0.10647,-0.02839 0.14795,-0.0051 0.0452,0.02529 0.0832,0.01904 0.1146,-0.01882 0.0335,-0.0403 0.0941,-0.04803 0.21029,-0.02679 0.2577,0.04712 0.65957,0.02014 0.76647,-0.05148 0.0531,-0.03554 0.17197,-0.18666 0.2642,-0.335789 0.10479,-0.169432 0.24765,-0.329244 0.3809,-0.426042 0.11726,-0.0852 0.33215,-0.267039 0.47751,-0.404091 0.2106,-0.198535 0.29191,-0.249182 0.40001,-0.249182 0.0746,0 0.20377,-0.02843 0.28695,-0.06318 0.12381,-0.05173 0.18747,-0.05449 0.35097,-0.01519 0.10985,0.02641 0.3978,0.05954 0.6399,0.07368 l 0.44017,0.02567 0.0135,0.166444 c 0.0101,0.124068 0.0501,0.201958 0.15721,0.305947 0.079,0.07673 0.14364,0.168131 0.14364,0.203122 0,0.03498 0.0227,0.104824 0.0504,0.155186 0.0276,0.05035 0.0563,0.127241 0.0636,0.170839 0.0358,0.215932 0.19805,0.404835 0.45503,0.53003 0.33664,0.164 0.43875,0.263099 0.55855,0.542113 0.10714,0.249493 0.15627,0.876064 0.0801,1.021293 -0.0261,0.04982 -0.0237,0.174554 0.007,0.356328 0.0388,0.230707 0.036,0.310985 -0.0161,0.458433 -0.076,0.215061 -0.0766,0.20291 0.0209,0.39416 l 0.0784,0.153701 -0.19553,0.285569 c -0.16099,0.235103 -0.19877,0.326473 -0.2138,0.517041 -0.01,0.127309 -0.0371,0.255048 -0.0602,0.283866 -0.0308,0.0386 -0.006,0.06815 0.0994,0.112254 0.0777,0.03294 0.16455,0.09804 0.19287,0.144706 0.0412,0.06777 0.10356,0.08737 0.31006,0.09735 0.28016,0.01354 0.26921,0.0045 0.41663,0.344013 l 0.0893,0.205749 -0.0964,0.213464 c -0.15204,0.336607 -0.14318,0.331051 -0.47608,0.298483 -0.34208,-0.03345 -0.44176,-0.101082 -0.44176,-0.299666 0,-0.09577 -0.0408,-0.185199 -0.13156,-0.288616 -0.15623,-0.177928 -0.26113,-0.179649 -0.52786,-0.0087 -0.0975,0.06252 -0.19658,0.113675 -0.22009,0.113675 -0.0683,0 -0.0495,0.05946 0.0358,0.112737 0.0432,0.02697 0.0917,0.10226 0.10763,0.167289 0.0161,0.06502 0.0911,0.18425 0.16698,0.264951 0.1344,0.143011 0.23402,0.324482 0.14941,0.27219 -0.0228,-0.01406 -0.0414,0.0026 -0.0414,0.03689 0,0.03438 -0.0613,0.105319 -0.13624,0.157657 -0.075,0.05234 -0.14567,0.105501 -0.15721,0.118138 -0.0231,0.02522 -0.0269,0.02623 -0.41921,0.110047 -0.14987,0.03203 -0.32561,0.05853 -0.39053,0.05893 -0.065,3.75e-4 -0.15689,0.02151 -0.20438,0.04693 -0.0797,0.04269 -0.0843,0.07148 -0.0597,0.377266 0.0263,0.326941 0.025,0.332705 -0.10058,0.464145 -0.14984,0.156786 -0.19154,0.287856 -0.12885,0.405 0.0598,0.111688 0.0275,0.184454 -0.12089,0.272078 -0.11878,0.07016 -0.12024,0.07508 -0.0555,0.187894 0.0737,0.128492 0.57886,0.368586 0.8718,0.414392 0.21351,0.03337 0.34347,0.117995 0.42581,0.27721 0.0358,0.06934 0.10013,0.163575 0.14283,0.209406 0.0877,0.09418 0.0448,0.238964 -0.0709,0.238964 -0.0359,0 -0.11324,0.03773 -0.17186,0.08386 -0.0586,0.04611 -0.13234,0.08385 -0.16382,0.08385 -0.0314,0 -0.0572,0.0348 -0.0572,0.07734 0,0.09066 -0.11281,0.201181 -0.22685,0.222256 -0.0471,0.0087 -0.0998,0.07335 -0.12788,0.156715 -0.0263,0.07804 -0.0992,0.182893 -0.16199,0.232993 -0.0629,0.0501 -0.10117,0.104143 -0.0852,0.1201 0.016,0.01599 0.13999,0.02904 0.27564,0.02904 0.32594,0 0.46347,0.07571 0.55025,0.302925 0.0382,0.100001 0.15619,0.269812 0.26222,0.377362 l 0.19278,0.195543 -0.1089,0.230229 c -0.0598,0.126624 -0.10892,0.247337 -0.10892,0.268248 0,0.02092 -0.0381,0.07245 -0.0846,0.114528 -0.0883,0.07992 -0.12162,0.08204 -0.74726,0.04763 -0.19235,-0.01057 -0.40929,-1.56e-4 -0.48209,0.02312 -0.0728,0.02331 -0.26424,0.0545 -0.4254,0.06932 -0.23382,0.0215 -0.29587,0.04192 -0.30713,0.100979 -0.0218,0.114782 0.16156,0.687433 0.25096,0.783396 0.044,0.04721 0.0669,0.08582 0.0509,0.08582 -0.0161,0 -0.002,0.03299 0.0322,0.07336 0.19605,0.234739 0.21004,0.520159 0.0349,0.71266 -0.10537,0.115839 -0.15072,0.135387 -0.30269,0.130534 -0.0983,-0.003 -0.22492,-0.01437 -0.28135,-0.02495 z"
         id="path3"
         sodipodi:nodetypes="cssssssssssssssssssssssssssscssssssssssssssscssssssscssssscsssssssssssssssssssssscssssssssssssssssssssscssssssssssssssssssssssssssssscssssssssssscssssssscsssssssssssssscsssssssssssssssssssscssssssssscsscc" /><g
         id="g7"
         style="fill:#ffffff;fill-opacity:1"
         transform="translate(63.501114,0.33073497)"><g
           id="g6"
           style="fill:#ffffff;fill-opacity:1"><text
             xml:space="preserve"
             transform="matrix(0.10271338,0,0,0.10271338,117.02334,-69.132523)"
             id="text5"
             style="font-style:normal;font-variant:normal;font-weight:normal;font-stretch:normal;font-size:20px;line-height:1.15em;font-family:'Geograph Edit';-inkscape-font-specification:'Geograph Edit, Normal';font-variant-ligatures:normal;font-variant-caps:normal;font-variant-numeric:normal;font-variant-east-asian:normal;text-align:start;letter-spacing:0px;word-spacing:0px;writing-mode:lr-tb;direction:ltr;white-space:pre;shape-inside:url(#rect12);display:inline;fill:#ffffff;fill-opacity:1;stroke:none;stroke-width:7.55906;stroke-linecap:round;stroke-miterlimit:5.3;paint-order:markers fill stroke"
             x="0"
             y="0"><tspan
               x="1040.0176"
               y="477.02602"
               id="tspan1">Collectif des Étudiants </tspan><tspan
               x="1040.0176"
               y="500.02602"
               id="tspan2">Petit-Goaviens</tspan></text><text
             xml:space="preserve"
             transform="matrix(0.45167721,0,0,0.45167721,-246.53003,-238.54713)"
             id="text6"
             style="font-style:normal;font-variant:normal;font-weight:normal;font-stretch:normal;font-size:20px;line-height:1.15em;font-family:'Geograph Edit Black';-inkscape-font-specification:'Geograph Edit Black, Normal';font-variant-ligatures:normal;font-variant-caps:normal;font-variant-numeric:normal;font-variant-east-asian:normal;text-align:start;letter-spacing:0px;word-spacing:0px;writing-mode:lr-tb;direction:ltr;white-space:pre;shape-inside:url(#rect23);display:inline;fill:#ffffff;fill-opacity:1;stroke:none;stroke-width:7.55906;stroke-linecap:round;stroke-miterlimit:5.3;paint-order:markers fill stroke"
             x="0"
             y="0"><tspan
               x="1040.0176"
               y="477.02602"
               id="tspan4"><tspan
                 style="line-height:1.15em"
                 id="tspan3">CEPG</tspan></tspan></text></g></g></g></g></svg>
