<?xml version="1.0" encoding="UTF-8" standalone="no"?>
<!-- Created with Inkscape (http://www.inkscape.org/) -->

<svg
   width="600"
   height="169.03882"
   viewBox="0 0 158.74999 44.724855"
   version="1.1"
   id="svg1"
   xml:space="preserve"
   sodipodi:docname="Fincap-logo.svg"
   inkscape:version="1.4.3 (0d15f75042, 2025-12-25)"
   xmlns:inkscape="http://www.inkscape.org/namespaces/inkscape"
   xmlns:sodipodi="http://sodipodi.sourceforge.net/DTD/sodipodi-0.dtd"
   xmlns="http://www.w3.org/2000/svg"
   xmlns:svg="http://www.w3.org/2000/svg"><sodipodi:namedview
     id="namedview1"
     pagecolor="#ffffff"
     bordercolor="#eeeeee"
     borderopacity="1"
     inkscape:showpageshadow="0"
     inkscape:pageopacity="0"
     inkscape:pagecheckerboard="0"
     inkscape:deskcolor="#505050"
     inkscape:document-units="mm"
     inkscape:zoom="0.7071068"
     inkscape:cx="1112.986"
     inkscape:cy="95.459413"
     inkscape:window-width="1366"
     inkscape:window-height="699"
     inkscape:window-x="0"
     inkscape:window-y="0"
     inkscape:window-maximized="1"
     inkscape:current-layer="svg1"
     showguides="false"><sodipodi:guide
       position="550.47196,-2184.141"
       orientation="0,-1"
       id="guide199"
       inkscape:locked="false" /><sodipodi:guide
       position="555.95596,-2177.9987"
       orientation="0,-1"
       id="guide200"
       inkscape:locked="false" /><sodipodi:guide
       position="555.95596,-2177.9987"
       orientation="1,0"
       id="guide201"
       inkscape:locked="false" /><sodipodi:guide
       position="550.47196,-2184.141"
       orientation="1,0"
       id="guide202"
       inkscape:locked="false" /><sodipodi:guide
       position="518.29906,-2276.0431"
       orientation="0,-1"
       id="guide145"
       inkscape:locked="false" /><sodipodi:guide
       position="478.83666,-2278.9984"
       orientation="0,-1"
       id="guide146"
       inkscape:locked="false" /><sodipodi:guide
       position="939.90987,-818.39779"
       orientation="0,-1"
       id="guide98"
       inkscape:locked="false" /><sodipodi:guide
       position="939.90987,-810.0442"
       orientation="0,-1"
       id="guide99"
       inkscape:locked="false" /><sodipodi:guide
       position="939.90957,-1206.6639"
       orientation="0,-1"
       id="guide17"
       inkscape:locked="false" /><sodipodi:guide
       position="-2707.2099,-663.24355"
       orientation="0,-1"
       id="guide30"
       inkscape:locked="false" /><sodipodi:guide
       position="-2786.253,-846.0302"
       orientation="0,-1"
       id="guide1"
       inkscape:locked="false" /><sodipodi:guide
       position="-2871.6796,-776.66706"
       orientation="0,-1"
       id="guide2"
       inkscape:locked="false" /><sodipodi:guide
       position="-2004.287,-833.20166"
       orientation="0,-1"
       id="guide3"
       inkscape:locked="false" /><sodipodi:guide
       position="-2013.561,-833.81449"
       orientation="0,-1"
       id="guide22"
       inkscape:locked="false" /><sodipodi:guide
       position="-2146.8223,-781.69928"
       orientation="0,-1"
       id="guide23"
       inkscape:locked="false" /><sodipodi:guide
       position="-2146.8223,-791.04834"
       orientation="0,-1"
       id="guide24"
       inkscape:locked="false" /><inkscape:page
       x="0"
       y="0"
       width="158.74998"
       height="44.724854"
       id="page2"
       margin="0"
       bleed="0" /></sodipodi:namedview><defs
     id="defs1" /><g
     id="g17"
     transform="matrix(0.57369204,0,0,0.57369204,-483.03094,-311.75522)"
     style="fill:#9c0403;fill-opacity:1"
     inkscape:export-filename="../../Programmation/Erezi_Std/Asset/Portfolio/Fincap-logo.svg"
     inkscape:export-xdpi="300"
     inkscape:export-ydpi="300"><path
       id="path11"
       style="fill:#9c0403;fill-opacity:1;stroke-width:0.918469;stroke-miterlimit:5.3;paint-order:markers fill stroke"
       d="m 841.96884,543.42047 v 77.9566 c 0.8428,-0.8177 2.1171,-2.134 3.6454,-3.6879 2.1031,-2.1381 4.7328,-4.7472 7.6584,-7.2832 3.8795,-3.3629 8.25939,-6.6406 12.73699,-8.485 2.046,-2.7333 3.9786,-5.5896 5.802,-8.4202 3.623,-5.6249 6.8212,-11.1035 9.7503,-15.2437 1.4645,-2.07 2.8575,-3.8063 4.2607,-5.0815 1.4034,-1.2752 2.8703,-2.1506 4.498,-2.1506 1.0155,10e-5 1.973,0.3459 2.8432,0.917 1.0341,-4.0029 1.8642,-7.7512 2.5768,-10.9624 0.7272,-3.2764 1.3321,-5.994 1.958,-7.9535 0.313,-0.9797 0.6157,-1.7685 1.0308,-2.4129 0.2075,-0.3223 0.4454,-0.6208 0.8025,-0.8642 0.268,-0.1822 0.6343,-0.3141 1.0068,-0.3335 0.1243,-0.012 0.2483,-6e-4 0.3704,0.019 l 0.1975,0.033 0.1787,0.098 c 0.4756,0.2586 0.6318,0.5664 0.7801,0.8496 0.1483,0.2831 0.2587,0.5832 0.3647,0.926 0.2118,0.6851 0.394,1.5467 0.5757,2.599 0.3634,2.1045 0.7033,4.955 1.0242,8.3248 0.6417,6.7397 1.2066,15.5356 1.6762,24.2792 0.639,11.8992 0.9944,21.1186 1.2065,26.9785 v -70.1034 z m 58.35389,9.5911 c -0.1106,0.2762 -0.1979,0.3884 -0.3135,0.7504 -0.5641,1.7659 -1.1763,4.4687 -1.9029,7.7422 -0.7857,3.5416 -1.7235,7.7744 -2.9306,12.3147 0.6327,0.7627 1.2299,1.6392 1.8005,2.6406 1.8052,3.1681 3.376,7.4675 4.7496,12.3831 0.7663,2.741 1.4603,5.6795 2.091,8.7 -0.1633,-3.5264 -0.3353,-7.1582 -0.5343,-10.8661 -0.4686,-8.7265 -1.0301,-17.506 -1.6655,-24.1809 -0.3178,-3.3374 -0.6555,-6.1527 -0.9992,-8.1424 -0.1008,-0.5812 -0.1964,-0.9147 -0.2952,-1.3416 z m -10.0021,20.4379 c -0.7091,0 -1.6892,0.4513 -2.8651,1.5199 -1.1761,1.0685 -2.4979,2.6937 -3.9107,4.6909 -2.8261,3.9945 -6.0336,9.4756 -9.6923,15.1558 -1.2609,1.9575 -2.5796,3.9422 -3.9541,5.9033 0.4398,-0.089 0.8792,-0.1578 1.3184,-0.2092 0.633,-0.9643 1.2706,-1.9358 1.8882,-2.873 1.872,-2.8405 3.6916,-5.4946 5.6168,-7.5956 1.9252,-2.1011 3.9836,-3.6972 6.3941,-4.1845 0.9356,-0.1893 1.8474,-0.196 2.7302,-0.052 0.3064,0.05 0.6082,0.1227 0.9075,0.2082 0.1297,-0.3407 0.2713,-0.6802 0.3974,-1.0212 1.3099,-3.5481 2.3961,-7.0944 3.3321,-10.5044 -0.019,-0.021 -0.043,-0.045 -0.063,-0.063 -0.7872,-0.697 -1.4628,-0.9761 -2.0996,-0.9762 z m 4.0284,3.3611 c -0.8431,2.945 -1.7998,5.9787 -2.9242,9.0239 -0.1427,0.3871 -0.3032,0.7732 -0.4512,1.1602 1.4241,0.8436 2.7459,2.0425 3.9358,3.4586 2.6953,3.2071 4.9365,7.5872 6.7836,12.0252 0.3909,0.9391 0.7542,1.878 1.1081,2.8122 -0.9132,-5.5087 -2.0651,-10.9766 -3.412,-15.7962 -1.3427,-4.8037 -2.8888,-8.967 -4.5231,-11.8353 -0.1713,-0.3006 -0.3442,-0.578 -0.517,-0.8486 z m -7.7837,11.3193 c -0.3203,0.012 -0.6429,0.04 -0.9683,0.1069 -1.6435,0.3322 -3.3402,1.536 -5.0892,3.4448 -1.749,1.9087 -3.5202,4.4749 -5.3757,7.29 -0.3123,0.4736 -0.6443,0.9818 -0.9616,1.4677 2.1241,0.1409 4.3013,0.6418 6.4789,1.3956 2.9059,-4.175 5.2759,-8.8143 7.2236,-13.5596 -0.432,-0.1008 -0.8675,-0.1535 -1.3077,-0.1456 z m 3.5192,1.1438 c -1.9155,4.6618 -4.2397,9.2557 -7.102,13.4585 3.4052,1.4461 6.7651,3.4257 9.8785,5.5376 4.5537,3.0887 8.5425,6.472 11.2769,9.0481 -0.9322,-3.418 -2.5214,-8.7125 -4.6832,-13.9069 -1.795,-4.3129 -3.9877,-8.5224 -6.4037,-11.3974 -0.9822,-1.1687 -1.9683,-2.0835 -2.9665,-2.7399 z m -17.2091,13.551 c -0.091,5e-4 -0.1863,0.012 -0.2788,0.012 -3.0352,4.607 -6.3876,9.3895 -10.5574,12.8953 -0.7804,0.6559 -1.59819,1.2903 -2.45449,1.8873 6.09459,-1.6935 11.09679,-4.8408 15.28119,-8.9045 1.5271,-1.483 2.9391,-3.0942 4.2541,-4.797 -2.1787,-0.6994 -4.2933,-1.1076 -6.2446,-1.0966 z m -3.5751,0.5604 c -0.5844,0.166 -1.1745,0.363 -1.7716,0.595 -4.466,5.9263 -9.54449,11.3312 -15.45399,14.6495 3.2292,-0.8674 5.9005,-2.645 8.4041,-4.7499 3.29249,-2.768 6.15839,-6.5754 8.82149,-10.4946 z m 12.2133,1.4089 c -1.5089,2.0123 -3.1541,3.916 -4.957,5.6668 -6.375,6.191 -14.7399,10.4406 -25.54449,10.9173 h 53.76509 v -0.012 c -2.1949,-2.3349 -7.2917,-7.0313 -13.2751,-11.0898 -3.1799,-2.1568 -6.6205,-4.1145 -9.9885,-5.4845 z m -19.4378,2.0108 c -2.47949,1.5673 -4.93449,3.4587 -7.21359,5.4346 -1.9302,1.673 -3.7236,3.3796 -5.3382,4.9723 4.5652,-2.27 8.7354,-6.0119 12.55179,-10.4069 z"
       sodipodi:nodetypes="ccssccssscssscccccssssscccssccsscsscsscscsccsssscccccccsccscsscscsscccssccscsscccscsccccccsccscccscccscc" /><text
       xml:space="preserve"
       style="font-style:normal;font-variant:normal;font-weight:bold;font-stretch:normal;font-size:61.7821px;line-height:1.15em;font-family:'Cormorant Garamond';-inkscape-font-specification:'Cormorant Garamond, Bold';font-variant-ligatures:normal;font-variant-caps:normal;font-variant-numeric:normal;font-variant-east-asian:normal;text-align:justify;letter-spacing:0px;word-spacing:0px;writing-mode:lr-tb;direction:ltr;text-anchor:start;fill:#333333;fill-opacity:1;stroke:none;stroke-width:1.09455;stroke-linecap:round;stroke-miterlimit:5.3;paint-order:markers fill stroke"
       x="920.50262"
       y="604.38879"
       id="text14"><tspan
         sodipodi:role="line"
         id="tspan14"
         style="font-style:normal;font-variant:normal;font-weight:bold;font-stretch:normal;font-size:61.7821px;font-family:'Cormorant Garamond';-inkscape-font-specification:'Cormorant Garamond, Bold';font-variant-ligatures:normal;font-variant-caps:normal;font-variant-numeric:normal;font-variant-east-asian:normal;letter-spacing:0px;fill:#333333;fill-opacity:1;stroke:none;stroke-width:1.09455"
         x="920.50262"
         y="604.38879">FinCap</tspan></text><text
       xml:space="preserve"
       style="font-style:normal;font-variant:normal;font-weight:bold;font-stretch:normal;font-size:14.8219px;line-height:1.15em;font-family:Corbel;-inkscape-font-specification:'Corbel, Bold';font-variant-ligatures:normal;font-variant-caps:normal;font-variant-numeric:normal;font-variant-east-asian:normal;text-align:justify;letter-spacing:0px;word-spacing:0px;writing-mode:lr-tb;direction:ltr;text-anchor:start;fill:#333333;fill-opacity:1;stroke:#ffffff;stroke-width:0;stroke-linecap:round;stroke-miterlimit:5.3;paint-order:markers fill stroke"
       x="1099.1447"
       y="574.77881"
       id="text17"><tspan
         sodipodi:role="line"
         id="tspan17"
         style="font-style:normal;font-variant:normal;font-weight:bold;font-stretch:normal;font-size:14.8219px;font-family:Corbel;-inkscape-font-specification:'Corbel, Bold';font-variant-ligatures:normal;font-variant-caps:normal;font-variant-numeric:normal;font-variant-east-asian:normal;letter-spacing:0px;fill:#333333;fill-opacity:1;stroke-width:0"
         x="1099.1447"
         y="574.77881">TM</tspan></text></g><g
     id="g2"
     transform="matrix(0.57369204,0,0,0.57369204,-280.60101,-311.75522)"
     style="fill:#ffffff;fill-opacity:1"
     inkscape:export-filename="Fincap-logo-white.webp"
     inkscape:export-xdpi="300"
     inkscape:export-ydpi="300"><path
       id="path1"
       style="fill:#ffffff;fill-opacity:1;stroke-width:0.918469;stroke-miterlimit:5.3;paint-order:markers fill stroke"
       d="m 841.96884,543.42047 v 77.9566 c 0.8428,-0.8177 2.1171,-2.134 3.6454,-3.6879 2.1031,-2.1381 4.7328,-4.7472 7.6584,-7.2832 3.8795,-3.3629 8.25939,-6.6406 12.73699,-8.485 2.046,-2.7333 3.9786,-5.5896 5.802,-8.4202 3.623,-5.6249 6.8212,-11.1035 9.7503,-15.2437 1.4645,-2.07 2.8575,-3.8063 4.2607,-5.0815 1.4034,-1.2752 2.8703,-2.1506 4.498,-2.1506 1.0155,10e-5 1.973,0.3459 2.8432,0.917 1.0341,-4.0029 1.8642,-7.7512 2.5768,-10.9624 0.7272,-3.2764 1.3321,-5.994 1.958,-7.9535 0.313,-0.9797 0.6157,-1.7685 1.0308,-2.4129 0.2075,-0.3223 0.4454,-0.6208 0.8025,-0.8642 0.268,-0.1822 0.6343,-0.3141 1.0068,-0.3335 0.1243,-0.012 0.2483,-6e-4 0.3704,0.019 l 0.1975,0.033 0.1787,0.098 c 0.4756,0.2586 0.6318,0.5664 0.7801,0.8496 0.1483,0.2831 0.2587,0.5832 0.3647,0.926 0.2118,0.6851 0.394,1.5467 0.5757,2.599 0.3634,2.1045 0.7033,4.955 1.0242,8.3248 0.6417,6.7397 1.2066,15.5356 1.6762,24.2792 0.639,11.8992 0.9944,21.1186 1.2065,26.9785 v -70.1034 z m 58.35389,9.5911 c -0.1106,0.2762 -0.1979,0.3884 -0.3135,0.7504 -0.5641,1.7659 -1.1763,4.4687 -1.9029,7.7422 -0.7857,3.5416 -1.7235,7.7744 -2.9306,12.3147 0.6327,0.7627 1.2299,1.6392 1.8005,2.6406 1.8052,3.1681 3.376,7.4675 4.7496,12.3831 0.7663,2.741 1.4603,5.6795 2.091,8.7 -0.1633,-3.5264 -0.3353,-7.1582 -0.5343,-10.8661 -0.4686,-8.7265 -1.0301,-17.506 -1.6655,-24.1809 -0.3178,-3.3374 -0.6555,-6.1527 -0.9992,-8.1424 -0.1008,-0.5812 -0.1964,-0.9147 -0.2952,-1.3416 z m -10.0021,20.4379 c -0.7091,0 -1.6892,0.4513 -2.8651,1.5199 -1.1761,1.0685 -2.4979,2.6937 -3.9107,4.6909 -2.8261,3.9945 -6.0336,9.4756 -9.6923,15.1558 -1.2609,1.9575 -2.5796,3.9422 -3.9541,5.9033 0.4398,-0.089 0.8792,-0.1578 1.3184,-0.2092 0.633,-0.9643 1.2706,-1.9358 1.8882,-2.873 1.872,-2.8405 3.6916,-5.4946 5.6168,-7.5956 1.9252,-2.1011 3.9836,-3.6972 6.3941,-4.1845 0.9356,-0.1893 1.8474,-0.196 2.7302,-0.052 0.3064,0.05 0.6082,0.1227 0.9075,0.2082 0.1297,-0.3407 0.2713,-0.6802 0.3974,-1.0212 1.3099,-3.5481 2.3961,-7.0944 3.3321,-10.5044 -0.019,-0.021 -0.043,-0.045 -0.063,-0.063 -0.7872,-0.697 -1.4628,-0.9761 -2.0996,-0.9762 z m 4.0284,3.3611 c -0.8431,2.945 -1.7998,5.9787 -2.9242,9.0239 -0.1427,0.3871 -0.3032,0.7732 -0.4512,1.1602 1.4241,0.8436 2.7459,2.0425 3.9358,3.4586 2.6953,3.2071 4.9365,7.5872 6.7836,12.0252 0.3909,0.9391 0.7542,1.878 1.1081,2.8122 -0.9132,-5.5087 -2.0651,-10.9766 -3.412,-15.7962 -1.3427,-4.8037 -2.8888,-8.967 -4.5231,-11.8353 -0.1713,-0.3006 -0.3442,-0.578 -0.517,-0.8486 z m -7.7837,11.3193 c -0.3203,0.012 -0.6429,0.04 -0.9683,0.1069 -1.6435,0.3322 -3.3402,1.536 -5.0892,3.4448 -1.749,1.9087 -3.5202,4.4749 -5.3757,7.29 -0.3123,0.4736 -0.6443,0.9818 -0.9616,1.4677 2.1241,0.1409 4.3013,0.6418 6.4789,1.3956 2.9059,-4.175 5.2759,-8.8143 7.2236,-13.5596 -0.432,-0.1008 -0.8675,-0.1535 -1.3077,-0.1456 z m 3.5192,1.1438 c -1.9155,4.6618 -4.2397,9.2557 -7.102,13.4585 3.4052,1.4461 6.7651,3.4257 9.8785,5.5376 4.5537,3.0887 8.5425,6.472 11.2769,9.0481 -0.9322,-3.418 -2.5214,-8.7125 -4.6832,-13.9069 -1.795,-4.3129 -3.9877,-8.5224 -6.4037,-11.3974 -0.9822,-1.1687 -1.9683,-2.0835 -2.9665,-2.7399 z m -17.2091,13.551 c -0.091,5e-4 -0.1863,0.012 -0.2788,0.012 -3.0352,4.607 -6.3876,9.3895 -10.5574,12.8953 -0.7804,0.6559 -1.59819,1.2903 -2.45449,1.8873 6.09459,-1.6935 11.09679,-4.8408 15.28119,-8.9045 1.5271,-1.483 2.9391,-3.0942 4.2541,-4.797 -2.1787,-0.6994 -4.2933,-1.1076 -6.2446,-1.0966 z m -3.5751,0.5604 c -0.5844,0.166 -1.1745,0.363 -1.7716,0.595 -4.466,5.9263 -9.54449,11.3312 -15.45399,14.6495 3.2292,-0.8674 5.9005,-2.645 8.4041,-4.7499 3.29249,-2.768 6.15839,-6.5754 8.82149,-10.4946 z m 12.2133,1.4089 c -1.5089,2.0123 -3.1541,3.916 -4.957,5.6668 -6.375,6.191 -14.7399,10.4406 -25.54449,10.9173 h 53.76509 v -0.012 c -2.1949,-2.3349 -7.2917,-7.0313 -13.2751,-11.0898 -3.1799,-2.1568 -6.6205,-4.1145 -9.9885,-5.4845 z m -19.4378,2.0108 c -2.47949,1.5673 -4.93449,3.4587 -7.21359,5.4346 -1.9302,1.673 -3.7236,3.3796 -5.3382,4.9723 4.5652,-2.27 8.7354,-6.0119 12.55179,-10.4069 z"
       sodipodi:nodetypes="ccssccssscssscccccssssscccssccsscsscsscscsccsssscccccccsccscsscscsscccssccscsscccscsccccccsccscccscccscc" /><text
       xml:space="preserve"
       style="font-style:normal;font-variant:normal;font-weight:bold;font-stretch:normal;font-size:61.7821px;line-height:1.15em;font-family:'Cormorant Garamond';-inkscape-font-specification:'Cormorant Garamond, Bold';font-variant-ligatures:normal;font-variant-caps:normal;font-variant-numeric:normal;font-variant-east-asian:normal;text-align:justify;letter-spacing:0px;word-spacing:0px;writing-mode:lr-tb;direction:ltr;text-anchor:start;fill:#ffffff;fill-opacity:1;stroke:none;stroke-width:1.09455;stroke-linecap:round;stroke-miterlimit:5.3;paint-order:markers fill stroke"
       x="920.50262"
       y="604.38879"
       id="text1"><tspan
         sodipodi:role="line"
         id="tspan1"
         style="font-style:normal;font-variant:normal;font-weight:bold;font-stretch:normal;font-size:61.7821px;font-family:'Cormorant Garamond';-inkscape-font-specification:'Cormorant Garamond, Bold';font-variant-ligatures:normal;font-variant-caps:normal;font-variant-numeric:normal;font-variant-east-asian:normal;letter-spacing:0px;fill:#ffffff;fill-opacity:1;stroke:none;stroke-width:1.09455"
         x="920.50262"
         y="604.38879">FinCap</tspan></text><text
       xml:space="preserve"
       style="font-style:normal;font-variant:normal;font-weight:bold;font-stretch:normal;font-size:14.8219px;line-height:1.15em;font-family:Corbel;-inkscape-font-specification:'Corbel, Bold';font-variant-ligatures:normal;font-variant-caps:normal;font-variant-numeric:normal;font-variant-east-asian:normal;text-align:justify;letter-spacing:0px;word-spacing:0px;writing-mode:lr-tb;direction:ltr;text-anchor:start;fill:#ffffff;fill-opacity:1;stroke:#ffffff;stroke-width:0;stroke-linecap:round;stroke-miterlimit:5.3;paint-order:markers fill stroke"
       x="1099.1447"
       y="574.77881"
       id="text2"><tspan
         sodipodi:role="line"
         id="tspan2"
         style="font-style:normal;font-variant:normal;font-weight:bold;font-stretch:normal;font-size:14.8219px;font-family:Corbel;-inkscape-font-specification:'Corbel, Bold';font-variant-ligatures:normal;font-variant-caps:normal;font-variant-numeric:normal;font-variant-east-asian:normal;letter-spacing:0px;fill:#ffffff;fill-opacity:1;stroke-width:0"
         x="1099.1447"
         y="574.77881">TM</tspan></text></g></svg>
