<?xml version="1.0" encoding="UTF-8" standalone="no"?>
<!-- Created with Inkscape (http://www.inkscape.org/) -->

<svg
   width="177.91963mm"
   height="102.52036mm"
   viewBox="0 0 177.91963 102.52036"
   version="1.1"
   id="svg1"
   xml:space="preserve"
   inkscape:version="1.4.3 (0d15f75042, 2025-12-25)"
   sodipodi:docname="FO-logo-redesign.svg"
   xmlns:inkscape="http://www.inkscape.org/namespaces/inkscape"
   xmlns:sodipodi="http://sodipodi.sourceforge.net/DTD/sodipodi-0.dtd"
   xmlns:xlink="http://www.w3.org/1999/xlink"
   xmlns="http://www.w3.org/2000/svg"
   xmlns:svg="http://www.w3.org/2000/svg"><sodipodi:namedview
     id="namedview1"
     pagecolor="#ffffff"
     bordercolor="#000000"
     borderopacity="0.25"
     inkscape:showpageshadow="2"
     inkscape:pageopacity="0.0"
     inkscape:pagecheckerboard="0"
     inkscape:deskcolor="#d1d1d1"
     inkscape:document-units="mm"
     inkscape:zoom="0.25"
     inkscape:cx="450"
     inkscape:cy="190"
     inkscape:window-width="1366"
     inkscape:window-height="699"
     inkscape:window-x="0"
     inkscape:window-y="0"
     inkscape:window-maximized="1"
     inkscape:current-layer="layer1"
     showguides="false"><sodipodi:guide
       position="232.42253,652.81256"
       orientation="1,0"
       id="guide1"
       inkscape:locked="false" /><sodipodi:guide
       position="232.76294,653.17425"
       orientation="0,-1"
       id="guide2"
       inkscape:locked="false" /><sodipodi:guide
       position="334.74141,635.23137"
       orientation="1,0"
       id="guide3"
       inkscape:locked="false" /><sodipodi:guide
       position="339.41038,635.37567"
       orientation="1,0"
       id="guide4"
       inkscape:locked="false" /><sodipodi:guide
       position="339.41037,634.76438"
       orientation="0,-1"
       id="guide5"
       inkscape:locked="false" /><sodipodi:guide
       position="1135.4134,521.67629"
       orientation="0,-1"
       id="guide6"
       inkscape:locked="false" /><sodipodi:guide
       position="2249.4771,522.14101"
       orientation="1,0"
       id="guide254"
       inkscape:locked="false" /><sodipodi:guide
       position="1360.2131,452.18518"
       orientation="1,0"
       id="guide187"
       inkscape:locked="false" /><sodipodi:guide
       position="1194.6023,325.97066"
       orientation="0,-1"
       id="guide389"
       inkscape:locked="false" /><sodipodi:guide
       position="1009.927,557.53182"
       orientation="1,0"
       id="guide614"
       inkscape:locked="false" /><sodipodi:guide
       position="1170.9392,466.02103"
       orientation="1,0"
       id="guide615"
       inkscape:locked="false" /><sodipodi:guide
       position="317.37966,537.51455"
       orientation="1,0"
       id="guide20"
       inkscape:locked="false" /><sodipodi:guide
       position="177.91964,59.633228"
       orientation="1,0"
       id="guide560"
       inkscape:locked="false" /><sodipodi:guide
       position="175.84704,59.633348"
       orientation="1,0"
       id="guide561"
       inkscape:locked="false" /><sodipodi:guide
       position="104.49735,32.814299"
       orientation="1,0"
       id="guide562"
       inkscape:locked="false" /><inkscape:page
       x="0"
       y="-1.4117086e-20"
       width="177.91963"
       height="102.52036"
       id="page1"
       margin="0"
       bleed="0" /><sodipodi:guide
       position="-99.460791,9.8363623"
       orientation="0,-1"
       id="guide7"
       inkscape:locked="false" /><sodipodi:guide
       position="-155.84479,2.9750727"
       orientation="0,-1"
       id="guide8"
       inkscape:locked="false" /><sodipodi:guide
       position="-232.6778,148.52168"
       orientation="0,-1"
       id="guide14"
       inkscape:locked="false" /><sodipodi:guide
       position="-232.6778,148.52168"
       orientation="1,0"
       id="guide15"
       inkscape:locked="false" /><sodipodi:guide
       position="-120.65,148.52168"
       orientation="1,0"
       id="guide16"
       inkscape:locked="false" /><sodipodi:guide
       position="-226.69417,136.818"
       orientation="1,0"
       id="guide17"
       inkscape:locked="false" /><sodipodi:guide
       position="-126.53905,138.67422"
       orientation="1,0"
       id="guide18"
       inkscape:locked="false" /><sodipodi:guide
       position="-120.65,142.32774"
       orientation="0,-1"
       id="guide19"
       inkscape:locked="false" /><sodipodi:guide
       position="-173.43437,72.014728"
       orientation="0,-1"
       id="guide21"
       inkscape:locked="false" /><sodipodi:guide
       position="-141.88488,66.083307"
       orientation="0,-1"
       id="guide22"
       inkscape:locked="false" /></sodipodi:namedview><defs
     id="defs1"><inkscape:path-effect
       effect="offset"
       id="path-effect45"
       is_visible="true"
       lpeversion="1.3"
       linejoin_type="miter"
       unit="mm"
       offset="-0.3"
       miter_limit="4"
       attempt_force_join="false"
       update_on_knot_move="true" /><inkscape:path-effect
       effect="offset"
       id="path-effect42"
       is_visible="true"
       lpeversion="1.3"
       linejoin_type="miter"
       unit="mm"
       offset="-0.3"
       miter_limit="4"
       attempt_force_join="false"
       update_on_knot_move="true" /><inkscape:path-effect
       effect="fillet_chamfer"
       id="path-effect38"
       is_visible="true"
       lpeversion="1"
       nodesatellites_param="F,0,0,1,0,0,0,1 @ F,0,0,1,0,0,0,1 @ F,0,0,1,0,7.1287723,0,1 @ F,0,0,1,0,0,0,1 @ F,0,0,1,0,0,0,1 @ F,0,0,1,0,2.0087872,0,1"
       radius="0"
       unit="px"
       method="auto"
       mode="F"
       chamfer_steps="1"
       flexible="false"
       use_knot_distance="true"
       apply_no_radius="true"
       apply_with_radius="true"
       only_selected="false"
       hide_knots="false" /><inkscape:path-effect
       effect="fillet_chamfer"
       id="path-effect36"
       is_visible="true"
       lpeversion="1"
       nodesatellites_param="F,0,1,1,0,8.3454597,0,1 @ F,0,1,1,0,8.3454597,0,1 @ F,0,1,1,0,8.3454597,0,1 @ F,0,0,1,0,8.3454597,0,1 | F,0,0,1,0,3.9771536,0,1 @ F,0,0,1,0,3.9771536,0,1 @ F,0,0,1,0,3.9771536,0,1 @ F,0,0,1,0,3.9771536,0,1"
       radius="0"
       unit="px"
       method="auto"
       mode="F"
       chamfer_steps="1"
       flexible="false"
       use_knot_distance="true"
       apply_no_radius="true"
       apply_with_radius="true"
       only_selected="false"
       hide_knots="false" /><inkscape:path-effect
       effect="fillet_chamfer"
       id="path-effect33"
       is_visible="true"
       lpeversion="1"
       nodesatellites_param="F,0,0,1,0,0,0,1 @ F,0,0,1,0,0,0,1 @ F,0,0,1,0,7.1287723,0,1 @ F,0,0,1,0,0,0,1 @ F,0,0,1,0,0,0,1 @ F,0,0,1,0,2.0087872,0,1"
       radius="0"
       unit="px"
       method="auto"
       mode="F"
       chamfer_steps="1"
       flexible="false"
       use_knot_distance="true"
       apply_no_radius="true"
       apply_with_radius="true"
       only_selected="false"
       hide_knots="false" /><inkscape:path-effect
       effect="fillet_chamfer"
       id="path-effect29"
       is_visible="true"
       lpeversion="1"
       nodesatellites_param="F,0,1,1,0,8.3454597,0,1 @ F,0,1,1,0,8.3454597,0,1 @ F,0,1,1,0,8.3454597,0,1 @ F,0,0,1,0,8.3454597,0,1 | F,0,0,1,0,3.9771536,0,1 @ F,0,0,1,0,3.9771536,0,1 @ F,0,0,1,0,3.9771536,0,1 @ F,0,0,1,0,3.9771536,0,1"
       radius="0"
       unit="px"
       method="auto"
       mode="F"
       chamfer_steps="1"
       flexible="false"
       use_knot_distance="true"
       apply_no_radius="true"
       apply_with_radius="true"
       only_selected="false"
       hide_knots="false" /><linearGradient
       id="linearGradient294"
       inkscape:collect="always"><stop
         style="stop-color:#000080;stop-opacity:1;"
         offset="0"
         id="stop294" /><stop
         style="stop-color:#ff0000;stop-opacity:1;"
         offset="1"
         id="stop295" /></linearGradient><linearGradient
       inkscape:collect="always"
       xlink:href="#linearGradient294"
       id="linearGradient194"
       gradientUnits="userSpaceOnUse"
       gradientTransform="matrix(0.3937025,0,0,0.3937025,-821.98358,616.061)"
       x1="2644.2458"
       y1="-173.39821"
       x2="2694.7881"
       y2="-173.39821" /></defs><g
     inkscape:label="Calque 1"
     inkscape:groupmode="layer"
     id="layer1"
     transform="translate(-107.53403,-498.46814)"><rect
       style="opacity:1;fill:#ffdd55;stroke-width:1.5;stroke-linecap:round;stroke-miterlimit:5.3;paint-order:stroke markers fill;fill-opacity:1"
       id="rect2"
       width="177.91963"
       height="102.52036"
       x="107.53403"
       y="498.46814" /><g
       id="g2"
       inkscape:export-filename="FO-logo-redesign1.webp"
       inkscape:export-xdpi="96"
       inkscape:export-ydpi="96"><g
         id="g567"
         inkscape:export-filename="FO-logo-redesign.webp"
         inkscape:export-xdpi="72"
         inkscape:export-ydpi="72"><path
           d="m 210.00009,539.28637 v 8.45605 h 19.50205 1.48497 4.974 c 0.0319,-0.005 0.0643,-0.0105 0.0964,-0.0153 0.0909,0.003 0.18177,0.008 0.27244,0.0153 2.00516,0.0984 3.80072,1.27258 4.69482,3.07009 0.0209,0.0429 0.0415,0.0861 0.0615,0.1296 0.67748,1.47937 1.49847,2.89728 2.4817,4.21673 0.0106,0.0145 0.0197,0.0301 0.0307,0.0446 0.29847,0.37199 0.60839,0.73471 0.92918,1.08765 0.004,0.004 0.006,0.007 0.009,0.01 1.9367,-1.47065 3.23556,-3.62811 3.62895,-6.02786 0.29453,-0.76114 0.48378,-1.55891 0.56256,-2.37123 -0.21842,-0.42973 -0.41744,-0.86907 -0.59366,-1.31775 -0.10744,-0.31612 -0.20437,-0.63571 -0.29055,-0.95826 -0.2813,-0.78383 -0.66638,-1.51091 -1.12895,-2.17754 -0.0511,-0.0736 -0.10118,-0.14775 -0.15421,-0.21973 -0.0622,-0.0839 -0.12587,-0.1668 -0.19083,-0.24862 -1.28886,-1.63318 -3.09481,-2.82278 -5.14896,-3.3663 -0.62638,-0.16573 -1.27599,-0.26887 -1.94012,-0.30904 -0.0542,-0.003 -0.10847,-0.005 -0.16276,-0.007 -0.0849,-0.005 -0.16988,-0.009 -0.25492,-0.0112 h -3.45439 z"
           style="fill:url(#linearGradient194);fill-opacity:1;stroke-width:0.104094;stroke-miterlimit:5.3;paint-order:stroke markers fill"
           id="path126" /><path
           id="path127"
           style="fill:#000080;stroke:none;stroke-width:0.104094;stroke-miterlimit:5.3;paint-order:stroke markers fill"
           d="m 210.00009,519.15051 h 9.16909 v 44.23848 h -9.16909 z" /><path
           id="path128"
           style="fill:#000080;fill-opacity:1;stroke:none;stroke-width:0.104094;stroke-miterlimit:5.3;paint-order:stroke markers fill"
           d="m 210.00131,518.10884 v 8.35291 h 32.12171 a 23.246268,23.24629 0 0 1 10.53473,-8.20683 v -0.14608 z" /><path
           d="m 262.20732,518.10891 c -11.4341,0.0168 -21.12288,8.3417 -22.9149,19.58119 0.3113,-0.0518 0.62512,-0.0871 0.94012,-0.1058 2.67832,0.003 5.21538,1.20187 6.91736,3.26987 0.26484,-8.09067 6.90235,-14.56933 15.05742,-14.56936 8.32315,3e-5 15.07034,6.74732 15.07027,15.07046 -4e-5,8.32306 -6.7472,15.07023 -15.07027,15.07026 -5.55278,-0.0263 -10.618,-3.10762 -13.21761,-7.98242 -0.0826,-0.15482 -0.17028,-0.30587 -0.2478,-0.46428 -0.22398,-0.43844 -0.4263,-0.88758 -0.6063,-1.34583 -0.10744,-0.31611 -0.20433,-0.6357 -0.29051,-0.95825 -1.3108,-3.65226 -4.76483,-6.15979 -8.72544,-6.33446 -0.082,0.66904 -0.13484,1.34134 -0.15846,2.01498 0.007,4.86917 1.54812,9.60676 4.39069,13.55129 0.0829,0.11507 0.16283,0.23196 0.24799,0.34566 0.29847,0.372 0.60839,0.73472 0.92918,1.08765 4.39577,5.21353 10.85898,8.23399 17.67826,8.26156 12.83856,4e-5 23.24629,-10.40761 23.24636,-23.24616 4e-5,-12.83862 -10.40772,-23.24641 -23.24636,-23.24636 z"
           style="fill:#ff0000;stroke-width:0.520471;stroke-miterlimit:5.3;paint-order:stroke markers fill"
           id="path129" /><text
           xml:space="preserve"
           style="font-style:normal;font-variant:normal;font-weight:normal;font-stretch:normal;font-size:9.25226px;line-height:1.25;font-family:Impact;-inkscape-font-specification:'Impact, Normal';font-variant-ligatures:normal;font-variant-caps:normal;font-variant-numeric:normal;font-variant-east-asian:normal;text-align:center;letter-spacing:0px;writing-mode:lr-tb;direction:ltr;text-anchor:middle;fill:#000080;fill-opacity:1;stroke:none;stroke-width:0.506174;stroke-miterlimit:5.3;stroke-dasharray:none;paint-order:stroke markers fill"
           x="246.58209"
           y="575.64197"
           id="text160"><tspan
             sodipodi:role="line"
             id="tspan160"
             style="font-style:normal;font-variant:normal;font-weight:normal;font-stretch:normal;font-size:9.25226px;font-family:Impact;-inkscape-font-specification:'Impact, Normal';font-variant-ligatures:normal;font-variant-caps:normal;font-variant-numeric:normal;font-variant-east-asian:normal;fill:#000080;fill-opacity:1;stroke-width:0.506174"
             x="246.58209"
             y="575.64197">Forum des Orateurs</tspan></text><text
           xml:space="preserve"
           style="font-style:italic;font-variant:normal;font-weight:bold;font-stretch:normal;font-size:3.38216px;line-height:1.25;font-family:'TeX Gyre Schola';-inkscape-font-specification:'TeX Gyre Schola, Bold Italic';font-variant-ligatures:normal;font-variant-caps:normal;font-variant-numeric:normal;font-variant-east-asian:normal;text-align:center;letter-spacing:0.653116px;writing-mode:lr-tb;direction:ltr;text-anchor:middle;fill:#ff0000;fill-opacity:1;stroke:none;stroke-width:0.507507;stroke-miterlimit:5.3;stroke-dasharray:none;paint-order:stroke markers fill"
           x="246.77846"
           y="580.40454"
           id="text161"><tspan
             sodipodi:role="line"
             id="tspan161"
             style="font-style:italic;font-variant:normal;font-weight:bold;font-stretch:normal;font-size:3.38216px;font-family:'TeX Gyre Schola';-inkscape-font-specification:'TeX Gyre Schola, Bold Italic';font-variant-ligatures:normal;font-variant-caps:normal;font-variant-numeric:normal;font-variant-east-asian:normal;letter-spacing:0.653116px;fill:#ff0000;stroke-width:0.507507"
             x="247.10501"
             y="580.40454">Dispotatio eloquentiam parit</tspan></text><g
           id="g531"
           transform="matrix(0.528931,0,0,0.528931,-244.78194,260.3426)"><path
             id="path469"
             style="fill:#2d3192;fill-opacity:1"
             d="m 666.67869,491.42633 v 19.30477 19.30476 h 8.81961 8.81962 V 518.27638 506.5174 h 21.75578 21.75578 l 0.36742,-0.4408 c 3.14854,-3.78074 5.3728,-6.07705 7.4259,-7.66568 0.2936,-0.22718 0.70994,-0.5755 0.92552,-0.77411 0.53012,-0.4884 3.86057,-2.7041 5.194,-3.4556 0.92459,-0.52108 2.1307,-1.11329 4.99763,-2.45464 0.50695,-0.23722 -4.96813,-0.27703 -39.73659,-0.28783 z m 0,54.48453 v 15.97319 15.97267 h 8.81961 8.81962 v -15.97267 -15.97319 h -8.81962 z" /><path
             id="path471"
             style="fill:#ed1e24;fill-opacity:1"
             d="m 764.27841,514.19755 c -0.18239,0.003 -0.35652,0.28158 -0.62011,0.87747 -0.29938,0.67682 -0.37663,1.15144 -0.29663,1.82676 0.16561,1.39835 -0.31695,1.84504 -2.3058,2.13476 -3.15673,0.45987 -5.48607,1.40059 -8.70696,3.51606 -2.08829,1.37158 -2.26245,1.44984 -3.35535,1.50844 -1.05817,0.0567 -1.37201,-0.15384 -1.37201,-0.9214 0,-0.70854 -0.3152,-1.33531 -0.67179,-1.33531 -0.35386,0 -0.50385,0.43904 -0.50385,1.47329 0,1.21749 0.29934,1.8576 0.99115,2.11873 0.4781,0.18054 0.57441,0.3101 0.48731,0.65733 -0.0872,0.3474 -2.0223,4.86841 -5.333,12.45867 -0.17632,0.40422 -0.45047,0.73484 -0.60927,0.73484 -0.37322,0 -0.19705,0.9923 0.29559,1.66346 0.49056,0.66834 1.99991,1.44949 3.43338,1.77716 1.7934,0.40995 5.97376,0.25515 7.36079,-0.27234 1.36671,-0.51977 2.2561,-1.21692 2.67374,-2.09703 0.32696,-0.68907 0.32546,-0.72804 -0.0424,-1.07073 -0.32077,-0.29884 -4.54959,-9.56412 -5.75056,-12.59975 l -0.37103,-0.93793 0.90072,-0.38602 c 1.66069,-0.71186 4.084,-1.50962 5.62188,-1.85105 1.75694,-0.39003 5.61885,-0.35378 6.36343,0.0599 l 0.44132,0.24547 v 9.40045 9.40046 h 1.37149 1.37201 v -9.41234 -9.41235 l 0.53899,-0.23822 c 0.87517,-0.38699 5.75544,-0.30347 7.30084,0.12505 1.90104,0.52714 5.48754,1.95094 5.48701,2.17816 -4.5e-4,0.19292 -1.29698,3.32576 -1.86656,4.51032 -0.28389,0.59043 -1.92436,4.34068 -3.16466,7.2347 -0.36556,0.85297 -0.80034,1.65008 -0.96635,1.77147 -0.85226,0.62319 0.61899,2.33902 2.62671,3.06338 1.16145,0.419 1.64252,0.47387 4.1553,0.47387 2.47516,0 3.01437,-0.0597 4.17804,-0.46147 1.6187,-0.55892 2.87735,-1.64223 2.87735,-2.47581 0,-0.30123 -0.13214,-0.64514 -0.29353,-0.76482 -0.21844,-0.16198 -5.63608,-12.46595 -5.8446,-13.2736 -0.0195,-0.0756 0.27112,-0.34575 0.64544,-0.60048 0.77658,-0.52849 1.11945,-1.6462 0.83819,-2.73162 -0.29793,-1.14974 -1.00777,-0.88831 -1.12706,0.41496 -0.0426,0.46536 -0.17845,0.90824 -0.30179,0.98444 -0.12334,0.0762 -0.65819,0.118 -1.18856,0.0925 -0.78983,-0.038 -1.25625,-0.23538 -2.57865,-1.09089 -3.85733,-2.49542 -6.89382,-3.75582 -9.67952,-4.01733 -1.25113,-0.11745 -1.44706,-0.193 -1.82779,-0.70796 -0.35358,-0.47825 -0.39274,-0.67368 -0.22893,-1.1436 0.21951,-0.62969 -5e-4,-1.71564 -0.50333,-2.48306 -0.17998,-0.27468 -0.31752,-0.41926 -0.45062,-0.41703 z m 0.12868,6.43734 c 0.1455,10e-4 0.28891,0.0687 0.37517,0.20825 0.073,0.11814 0.0121,0.33573 -0.13539,0.48318 -0.33999,0.33988 -0.86214,0.0515 -0.69505,-0.38396 0.0775,-0.20192 0.2682,-0.30925 0.45527,-0.30747 z m -15.29364,5.14387 c 0.12337,0.12338 1.19452,2.49924 1.83089,4.06125 0.19762,0.48507 0.57771,1.36671 0.84491,1.95957 1.70569,3.78468 3.08405,7.00711 3.08405,7.21041 0,0.17503 -0.7706,0.2372 -2.93987,0.2372 h -2.93987 v -6.7939 c 0,-3.73683 0.054,-6.74043 0.11989,-6.67453 z m -0.60978,0.0434 0.12299,2.74402 c 0.16967,3.78271 0.1965,9.32896 0.0486,10.06863 l -0.12247,0.61237 h -2.91248 -2.91249 l 0.37155,-0.93069 c 0.40369,-1.01147 1.81075,-4.31417 2.90164,-6.81044 0.37685,-0.86235 0.94261,-2.18531 1.25728,-2.93987 0.31468,-0.75455 0.72389,-1.681 0.90899,-2.05828 z m 31.04048,0 0.0119,6.71277 0.0119,6.71225 h -2.93987 c -1.6169,0 -2.93987,-0.0317 -2.93987,-0.0708 0,-0.11722 2.06792,-4.96327 2.89698,-6.78873 0.22031,-0.48507 0.76236,-1.71947 1.20457,-2.7435 0.44221,-1.02404 1.01772,-2.30325 1.279,-2.84221 z m 0.57309,0.0982 c 0.0867,0 0.47774,0.77144 0.86868,1.71463 0.39095,0.94319 1.58908,3.74363 2.66237,6.22287 1.07329,2.47924 2.01143,4.706 2.08463,4.94854 l 0.13281,0.4408 h -2.95279 -2.95331 v -6.66368 c 0,-3.66497 0.0709,-6.66316 0.15761,-6.66316 z m -14.14332,17.03669 -1.66708,0.0558 -1.6676,0.0563 -0.25322,0.97978 c -0.26605,1.02838 -0.35477,3.66307 -0.13074,3.8871 0.0719,0.0719 1.04208,0.13075 2.15594,0.13075 h 2.0252 v -1.55288 c 0,-0.85413 -0.10378,-2.00378 -0.23099,-2.55488 z m -1.00718,5.36401 c -4.01373,-0.0516 -4.93347,0.0552 -5.51956,0.64131 -0.25208,0.25207 -0.45837,0.63889 -0.45837,0.85938 0,0.39388 0.0915,0.40101 5.29167,0.40101 2.91041,0 5.29167,-0.0401 5.29167,-0.0889 0,-0.34146 -0.53696,-1.13915 -0.96067,-1.42678 -0.42621,-0.28936 -1.01779,-0.35233 -3.64474,-0.38603 z m 8.40052,2.39159 c -0.84341,-0.27655 -18.02066,-0.2018 -18.75389,0.0817 -0.30455,0.11773 -0.68543,0.3454 -0.84646,0.50643 -0.33971,0.33971 -0.69417,1.44735 -0.54208,1.69343 0.0571,0.0925 5.03748,0.16847 11.06754,0.16847 9.34855,0 10.96367,-0.0414 10.96367,-0.27905 0,-0.50206 -1.27768,-1.97052 -1.88878,-2.17093 z" /><path
             style="fill:#ed1e24;fill-opacity:1"
             d="m 760.06699,578.2347 c -6.4016,-0.74021 -12.94772,-2.97628 -18.32484,-6.25952 -4.34649,-2.65394 -8.73655,-6.67353 -12.41269,-11.3652 -1.66923,-2.13035 -4.52099,-7.33452 -5.53092,-10.09337 -0.63251,-1.72781 -1.63258,-3.08895 -2.85937,-3.89169 -0.25393,-0.16616 -0.99085,-0.45994 -1.63761,-0.65284 -1.09591,-0.32687 -2.92302,-0.35756 -26.85031,-0.45094 l -25.67438,-0.10021 v -7.44753 -7.44753 h 27.04629 27.0463 l 1.76389,0.4309 c 3.11589,0.76118 5.95451,1.99027 8.4264,3.64853 2.62474,1.76081 4.90145,4.34755 5.70972,6.48725 3.21183,8.5026 11.01289,16.81375 18.96831,20.2086 3.50287,1.4948 4.91951,1.7603 9.3269,1.74802 4.2728,-0.0119 5.57229,-0.23593 9.15707,-1.57859 2.83668,-1.06246 6.58316,-3.21632 8.47467,-4.8721 3.719,-3.25554 6.22347,-6.3987 8.00305,-10.04402 1.06936,-2.19049 2.13796,-5.55655 2.51029,-7.90732 0.39474,-2.4923 0.28178,-7.52605 -0.21963,-9.78716 -1.06488,-4.8021 -3.37833,-9.59065 -6.24674,-12.92998 -1.80689,-2.10353 -5.05802,-4.87761 -7.07763,-6.03909 -1.7069,-0.98164 -4.40193,-2.20119 -6.1244,-2.77139 -6.74878,-2.23409 -14.82065,-1.66744 -21.27,1.49317 -1.53887,0.75415 -4.19101,2.36471 -4.77073,2.89711 -0.12053,0.11069 -0.79212,0.67104 -1.49241,1.24522 -3.53235,2.8962 -6.85703,7.79876 -8.38835,12.36944 -0.74354,2.21934 -1.35547,4.9288 -1.36114,6.0268 -0.006,1.06992 -0.26504,1.20103 -0.76763,0.38781 -1.34624,-2.17825 -5.18956,-4.64695 -8.54602,-5.4894 -1.45195,-0.36443 -3.76083,-0.71747 -4.69225,-0.71747 -0.7391,0 -0.80496,-0.10489 -0.51719,-0.82373 0.0991,-0.2476 0.32522,-0.93526 0.50244,-1.52812 0.78901,-2.63953 2.63116,-6.82618 4.22555,-9.6034 6.30484,-10.98217 16.2819,-18.73691 27.72373,-21.54848 11.46221,-2.81657 22.42694,-1.06598 32.82793,5.24117 4.1571,2.52086 9.38437,7.18363 12.40842,11.06841 9.68788,12.4453 11.96103,28.19898 6.17152,42.77054 -2.84521,7.16108 -7.79608,13.64962 -14.17021,18.57129 -6.16883,4.76316 -14.04061,7.88419 -22.08989,8.7583 -2.16389,0.23499 -7.22224,0.23309 -9.26814,-0.003 z"
             id="path472" /><path
             id="path474"
             style="fill:#2d3192;fill-opacity:1"
             d="m 804.98859,582.53964 c -0.59041,0.0131 -1.12787,0.24127 -1.59422,0.68109 -0.71239,0.67225 -0.80899,1.04952 -0.70641,2.76986 0.042,0.70424 1.18593,2.62918 2.66908,4.4912 1.1077,1.39065 1.30097,2.10397 0.60565,2.23655 -0.48125,0.0918 -1.07246,-0.47546 -1.54771,-1.48518 -0.35005,-0.74375 -0.4647,-0.83302 -1.0697,-0.83302 -0.5528,0 -0.65903,0.0633 -0.57723,0.34313 0.0552,0.18864 0.19153,0.855 0.30283,1.48105 0.11129,0.62605 0.25851,1.22902 0.32711,1.33997 0.0689,0.1114 0.31171,0.14018 0.54312,0.0641 0.23037,-0.0757 0.63951,-0.12743 0.90899,-0.11473 1.8314,0.0863 2.13889,0.0543 2.70681,-0.28112 0.89555,-0.52902 1.28786,-1.47854 1.13791,-2.75435 -0.13538,-1.1519 -0.50101,-1.86392 -2.01951,-3.93154 -1.28043,-1.74346 -1.77764,-2.73992 -1.50327,-3.01429 0.32339,-0.32339 0.74739,-0.0368 1.34617,0.91054 0.61179,0.96787 1.13504,1.34813 1.60611,1.16737 0.2437,-0.0935 0.27747,-0.31017 0.1726,-1.10071 -0.19975,-1.50581 -0.42242,-1.94872 -0.98031,-1.94872 -0.26579,0 -0.53586,0.0844 -0.59996,0.18811 -0.0746,0.12068 -0.29497,0.12068 -0.61237,0 -0.3883,-0.14764 -0.76144,-0.21714 -1.11569,-0.20929 z m -68.02272,0.0212 c -0.24028,0 -0.52847,0.0913 -0.64027,0.20309 -0.14037,0.14037 -0.36874,0.14037 -0.73794,0 -1.18711,-0.45133 -2.50513,-0.0896 -3.12591,0.85783 -0.46001,0.70201 -0.42541,2.52472 0.0667,3.53157 0.21419,0.43826 1.05207,1.67112 1.86191,2.73988 1.49981,1.97931 1.78244,2.73193 1.09399,2.91197 -0.45502,0.11899 -0.97939,-0.40782 -1.56373,-1.572 -0.37514,-0.74745 -0.49011,-0.83302 -1.12086,-0.83302 -0.53072,0 -0.6764,0.0689 -0.5948,0.28163 0.0595,0.15497 0.20865,0.83728 0.33176,1.51619 0.12311,0.6789 0.26588,1.30201 0.31678,1.38441 0.12705,0.20553 0.41608,0.18714 0.86713,-0.0543 0.26796,-0.14339 0.60944,-0.13444 1.15652,0.0295 1.05862,0.31717 2.36928,-0.1677 2.93729,-1.08676 0.89755,-1.45226 0.41835,-3.15328 -1.68827,-5.99033 -1.36621,-1.83993 -1.78656,-2.67105 -1.49759,-2.96003 0.33322,-0.33321 0.98084,0.11973 1.42989,0.99994 0.21629,0.42397 0.57289,0.86707 0.7922,0.98444 0.53424,0.28592 1.21144,0.0604 1.09141,-0.36329 -0.051,-0.17994 -0.19289,-0.83436 -0.31575,-1.45417 -0.19189,-0.96807 -0.28513,-1.12655 -0.66042,-1.12655 z m 10.44277,0.0109 c -0.95939,0.0385 -1.90876,0.40033 -2.60707,1.09864 -2.21312,2.21312 -2.16295,6.93723 0.0951,8.97723 0.41557,0.37544 1,0.73643 1.29915,0.80253 0.29915,0.0661 0.63221,0.15317 0.74,0.19327 0.36356,0.13534 1.95484,-0.13917 2.61948,-0.45165 2.58231,-1.21408 3.20192,-6.42859 1.09244,-9.19427 -0.75541,-0.99039 -2.00558,-1.47521 -3.23908,-1.42575 z m -69.34253,0.014 c -2.12544,-0.0377 -3.60729,1.22945 -4.23437,3.63699 -0.37166,1.4251 -0.37038,2.42654 0.004,3.86436 0.40004,1.53587 1.15727,2.55806 2.33784,3.15485 h 5.2e-4 c 1.17607,0.59456 1.91665,0.6146 3.31763,0.0904 1.91099,-0.71499 2.95469,-2.77847 2.82101,-5.57795 -0.13897,-2.91035 -1.63948,-4.93454 -3.81268,-5.14336 -0.14735,-0.0142 -0.29239,-0.0228 -0.43408,-0.0253 z m 102.79475,0.13177 c -2.8807,0.0552 -3.05717,0.0805 -3.05717,0.4408 0,0.21032 0.13235,0.38241 0.29404,0.38241 0.25248,0 0.29403,0.61184 0.29403,4.32945 0,4.20392 -0.0124,4.33919 -0.42478,4.6731 -0.26873,0.21758 -0.37852,0.46284 -0.29972,0.66818 0.10889,0.2838 0.52792,0.32452 3.34088,0.32452 h 3.21686 l 0.21911,-0.87074 c 0.35951,-1.42775 0.30529,-1.6769 -0.36587,-1.6769 -0.49015,0 -0.63512,0.11843 -0.88987,0.72812 -0.32964,0.78895 -0.58942,1.02749 -1.12189,1.03249 -0.30698,0.003 -0.34262,-0.23349 -0.34262,-2.25051 v -2.25412 h 0.48576 c 0.3552,0 0.51946,0.13196 0.60926,0.48989 0.0957,0.38131 0.24884,0.48989 0.68988,0.48989 h 0.5669 v -1.46967 -1.46968 h -0.57465 c -0.44639,0 -0.58795,0.0981 -0.63665,0.4408 -0.0448,0.31574 -0.2156,0.45841 -0.60151,0.50281 l -0.53899,0.062 v -1.87482 c 0,-1.8369 0.009,-1.87482 0.45992,-1.87482 0.34545,0 0.54612,0.19096 0.80512,0.76533 0.3372,0.74773 0.9838,1.10833 1.45934,0.81442 0.18466,-0.11412 -0.13377,-1.81732 -0.42943,-2.29754 -0.0557,-0.0904 -1.47665,-0.13762 -3.15795,-0.10542 z m -84.04913,0.0289 c -0.0808,0.005 -1.07269,0.0103 -2.20452,0.0103 -2.03987,0 -2.05775,0.004 -2.05775,0.4687 0,0.25795 0.13183,0.51988 0.29352,0.58188 0.24749,0.095 0.29404,0.71967 0.29404,3.94705 0,4.93797 0.12545,5.28265 2.09548,5.77225 0.94228,0.23418 2.24222,0.10737 3.01945,-0.29455 1.01607,-0.52543 1.15704,-1.19306 1.15704,-5.4777 0,-3.22738 0.0466,-3.85205 0.29404,-3.94705 0.16169,-0.062 0.29404,-0.32393 0.29404,-0.58188 0,-0.4466 -0.0608,-0.4687 -1.27383,-0.4687 -1.21302,0 -1.27382,0.0221 -1.27382,0.4687 0,0.25795 0.13235,0.51988 0.29404,0.58188 0.44147,0.16957 0.43608,7.7939 -0.006,8.23619 -0.20802,0.20798 -0.43255,0.25073 -0.73484,0.13901 -0.42771,-0.15808 -0.43666,-0.231 -0.48886,-4.1367 -0.0458,-3.42788 -0.009,-4.02334 0.26251,-4.32377 0.30685,-0.33902 0.33075,-0.99645 0.0357,-0.97565 z m 72.76042,0.002 v 1.27848 1.27796 h 0.58446 c 0.47761,0 0.60625,-0.0984 0.70435,-0.53899 0.2395,-1.07621 0.31058,-1.22473 0.58653,-1.22473 0.4302,0 0.417,8.72524 -0.0134,8.89041 -0.16169,0.062 -0.29352,0.33589 -0.29352,0.60875 v 0.49609 h 2.25981 c 1.86106,0 2.2806,-0.0535 2.3766,-0.30385 0.066,-0.17207 -0.0643,-0.49662 -0.30024,-0.74776 -0.39857,-0.42427 -0.41652,-0.62912 -0.41652,-4.69377 0,-2.33755 0.0775,-4.24987 0.17209,-4.24987 0.27926,0 0.55713,0.44524 0.7028,1.12654 0.11653,0.54496 0.22005,0.63718 0.71778,0.63718 h 0.58188 l -0.0584,-1.22474 -0.0584,-1.22524 -3.7729,-0.0532 z m -103.48102,0.009 v 0.47645 c 0,0.30464 0.14125,0.52202 0.3917,0.60152 0.37518,0.11907 0.39223,0.29616 0.39223,4.13049 0,3.76393 -0.024,4.02708 -0.39223,4.34238 -0.21558,0.18458 -0.3917,0.53922 -0.3917,0.78806 0,0.45101 0.008,0.45219 2.40088,0.39739 2.34436,-0.0537 2.40197,-0.066 2.46497,-0.51056 0.0464,-0.32726 -0.0497,-0.48512 -0.34262,-0.56172 -0.37968,-0.0993 -0.40772,-0.24548 -0.40772,-2.14147 0,-1.89783 0.026,-2.03502 0.38809,-2.03502 0.25287,0 0.43238,0.17468 0.51418,0.50074 0.10592,0.42207 0.22162,0.4911 0.73845,0.4408 l 0.6134,-0.0594 v -1.372 -1.37201 l -0.62218,-0.0605 c -0.52194,-0.0506 -0.63195,0.0126 -0.68575,0.39223 -0.0418,0.2946 -0.21815,0.4739 -0.50539,0.5147 -0.43097,0.0612 -0.4408,0.0201 -0.4408,-1.81281 0,-1.73844 0.0285,-1.87534 0.38809,-1.87534 0.25534,0 0.52485,0.26801 0.78806,0.78393 0.21996,0.43118 0.4861,0.79472 0.5917,0.80822 0.82262,0.10497 0.87814,0.0642 0.83974,-0.62529 -0.0211,-0.37933 -0.12937,-0.92882 -0.2403,-1.22059 l -0.20153,-0.5302 h -3.1409 z m 20.13882,0 c -2.72109,0 -3.11594,0.0401 -3.22668,0.32866 -0.0828,0.21565 0.0206,0.4262 0.30024,0.61185 0.41501,0.27553 0.42633,0.39152 0.42633,4.35115 0,3.37676 -0.05,4.10935 -0.29404,4.31189 -0.30407,0.25235 -0.39216,0.81602 -0.16329,1.04489 0.0719,0.0719 1.04208,0.13074 2.15594,0.13074 h 2.0252 v -0.58807 c 0,-0.32338 -0.0881,-0.58756 -0.19586,-0.58756 -0.11609,0 -0.19637,-0.71897 -0.19637,-1.76424 0,-1.74409 0.006,-1.76371 0.48318,-1.76371 0.69477,0 0.88883,0.52919 0.88883,2.4231 0,2.14814 0.12071,2.28048 2.07791,2.28048 1.57609,0 1.94967,-0.25267 1.48105,-1.00304 -0.1248,-0.19984 -0.22686,-0.83652 -0.22686,-1.4149 0,-1.28398 -0.57571,-2.24954 -1.53221,-2.56935 l -0.65061,-0.21704 0.76843,-0.339 c 1.0804,-0.47667 1.45787,-0.97328 1.55805,-2.04897 0.11083,-1.1901 -0.46658,-2.12002 -1.70584,-2.74608 -0.79562,-0.40197 -1.14744,-0.4408 -3.9734,-0.4408 z m 15.98404,0 c -1.79421,0 -1.82522,0.008 -1.82522,0.4687 0,0.25795 0.13235,0.51988 0.29404,0.58188 0.24868,0.0954 0.29404,0.76125 0.29404,4.32118 0,2.59414 -0.0756,4.25475 -0.19637,4.32945 -0.10778,0.0666 -0.19585,0.34049 -0.19585,0.60875 h -5.2e-4 c 0,0.47381 0.0352,0.48613 1.22318,0.42943 1.02785,-0.049 1.23431,-0.11863 1.29501,-0.43718 0.0398,-0.20846 -0.0598,-0.47578 -0.22117,-0.59376 -0.22533,-0.16477 -0.30982,-0.76984 -0.36432,-2.60966 -0.0382,-1.29167 -0.006,-2.3532 0.0718,-2.39417 10e-4,-5.2e-4 0.003,-10e-4 0.005,-10e-4 0.0809,0 0.14676,0.0833 0.14676,0.18551 0,0.10216 0.27311,0.94004 0.60668,1.86191 0.53542,1.47971 0.66256,1.67638 1.08417,1.67638 0.26267,0 0.51209,-0.11021 0.55449,-0.24495 0.0424,-0.13474 0.3883,-1.08281 0.76843,-2.10684 l 0.69091,-1.86191 0.0103,2.59003 c 0.009,2.41988 -0.0175,2.60408 -0.39481,2.80603 -0.25838,0.13828 -0.38151,0.37025 -0.34261,0.64388 0.0585,0.41131 0.14721,0.42737 2.31458,0.42737 2.17353,0 2.25591,-0.0153 2.31511,-0.4315 0.0385,-0.27064 -0.089,-0.52584 -0.34262,-0.6842 -0.38737,-0.24192 -0.40462,-0.42298 -0.40462,-4.31394 0,-3.86112 0.0196,-4.07216 0.39222,-4.27158 0.21559,-0.11538 0.39171,-0.38299 0.39171,-0.59479 0,-0.35548 -0.1418,-0.38499 -1.8402,-0.38499 h -1.83968 l -0.63975,1.85518 c -0.34483,1.00039 -0.68227,1.78885 -0.76016,1.77922 -6.1e-4,-1.3e-4 -0.002,-2.9e-4 -0.003,-5.2e-4 -2.8e-4,-1.4e-4 -10e-4,-8.6e-4 -0.002,-10e-4 -0.0688,-0.0425 -0.38048,-0.87735 -0.69298,-1.85518 l -0.56844,-1.77767 z m 15.65382,0 c -2.82751,0 -2.97605,0.0191 -2.97605,0.38499 0,0.2118 0.17665,0.47941 0.39223,0.59479 0.37278,0.19952 0.39171,0.41051 0.39171,4.31188 0,3.90136 -0.0189,4.11237 -0.39171,4.31189 -0.39132,0.20942 -0.52307,0.78142 -0.24495,1.0635 0.0808,0.082 1.518,0.11875 3.19361,0.0816 3.23167,-0.0715 3.63993,-0.18142 4.56664,-1.22732 1.49948,-1.69233 1.67129,-6.06278 0.31213,-7.93905 -0.95994,-1.32515 -1.81223,-1.58233 -5.24361,-1.58233 z m 9.85366,0 c -2.70267,0 -3.22616,0.0463 -3.22616,0.2868 0,0.1579 0.17612,0.38175 0.39171,0.49713 0.37337,0.19982 0.39222,0.41052 0.39222,4.43435 0,4.09634 -0.013,4.23476 -0.42478,4.5682 -0.26873,0.21758 -0.37904,0.46284 -0.30024,0.66818 0.10891,0.2838 0.52914,0.32452 3.34864,0.32452 h 3.22357 l 0.21188,-0.9896 c 0.31225,-1.45595 0.28888,-1.55804 -0.36071,-1.55804 -0.47171,0 -0.65494,0.14765 -1.03301,0.83302 -0.30058,0.54489 -0.59358,0.83251 -0.84749,0.83251 -0.36057,0 -0.39188,-0.15621 -0.44338,-2.20452 l -0.0558,-2.20503 h 0.493 c 0.36204,0 0.52506,0.12981 0.61546,0.48989 0.0957,0.38131 0.24883,0.48989 0.68988,0.48989 h 0.56638 v -1.46967 -1.4702 h -0.56638 c -0.44105,0 -0.59418,0.10909 -0.68988,0.49041 -0.0898,0.35793 -0.25406,0.48989 -0.60926,0.48989 -0.48324,0 -0.48628,-0.0104 -0.48628,-1.8619 0,-1.82329 0.01,-1.8619 0.46044,-1.8619 0.34732,0 0.54659,0.19227 0.81339,0.78393 0.19443,0.43118 0.40627,0.79439 0.47077,0.80719 0.0645,0.0128 0.33772,0.035 0.6072,0.0491 0.54148,0.0284 0.57087,-0.24396 0.18242,-1.6893 l -0.19741,-0.73484 z m 28.09286,0 c -2.89285,0 -3.05653,0.0202 -3.15433,0.39429 -0.0682,0.26088 0.0238,0.46234 0.2713,0.59479 0.35,0.18733 0.37414,0.46557 0.37414,4.28553 0,3.39188 -0.0499,4.12634 -0.29404,4.32894 -0.16169,0.13419 -0.29404,0.45323 -0.29404,0.70951 0,0.46197 0.0175,0.46612 2.13476,0.46612 1.71689,0 2.15722,-0.0576 2.24792,-0.29403 0.13389,-0.34891 -0.0401,-0.8816 -0.28784,-0.8816 -0.0962,0 -0.17518,-0.7941 -0.17518,-1.76424 0,-1.72659 0.01,-1.76371 0.46612,-1.76371 0.72674,0 0.86276,0.34984 0.93586,2.40812 0.051,1.43651 0.14209,1.96472 0.36225,2.10374 0.16169,0.10214 0.97742,0.18662 1.81281,0.18862 1.48051,0.003 1.51877,-0.009 1.51877,-0.47542 0,-0.26312 -0.0881,-0.53285 -0.19585,-0.59945 -0.10779,-0.0666 -0.19585,-0.67726 -0.19585,-1.35702 0,-1.40951 -0.39416,-2.10443 -1.44126,-2.54145 l -0.61702,-0.25734 0.68627,-0.29611 c 1.13605,-0.48992 1.46967,-1.01564 1.46967,-2.31459 0,-1.31681 -0.38784,-1.87663 -1.7601,-2.54093 -0.70772,-0.34261 -1.20938,-0.39377 -3.86436,-0.39377 z m 31.48077,0 c -2.06015,0 -2.23966,0.0294 -2.23966,0.36793 0,0.20239 0.13235,0.47766 0.29404,0.61185 0.24147,0.20039 0.29418,0.87869 0.29507,3.79667 6.1e-4,1.95403 0.0888,3.86821 0.19586,4.25349 0.25093,0.90327 0.89257,1.49559 1.86758,1.72392 1.65006,0.38642 2.91525,0.12688 3.72122,-0.76274 0.35687,-0.39396 0.39242,-0.76506 0.44752,-4.63228 0.0491,-3.44476 0.11116,-4.2234 0.34313,-4.3124 0.15571,-0.0598 0.28319,-0.31979 0.28319,-0.57774 0,-0.4466 -0.0608,-0.4687 -1.27383,-0.4687 -1.11557,0 -1.27434,0.0457 -1.27434,0.36793 0,0.20239 0.13235,0.47766 0.29404,0.61185 0.24368,0.20223 0.29404,0.92593 0.29404,4.22817 0,3.49073 -0.04,4.00629 -0.32194,4.16409 -0.177,0.0995 -0.47759,0.1392 -0.66818,0.0894 -0.29204,-0.0764 -0.36858,-0.41851 -0.48834,-2.17558 -0.17482,-2.56482 0.0195,-5.8763 0.36948,-6.29419 0.14078,-0.16809 0.22109,-0.46042 0.17829,-0.64906 -0.0685,-0.30208 -0.34462,-0.34261 -2.31717,-0.34261 z m 10.71511,0.0367 c -0.55708,-0.0193 -1.23469,-0.0156 -2.0774,0.002 -2.84335,0.0577 -2.94193,0.0735 -3.00033,0.48369 -0.0411,0.28813 0.0691,0.46542 0.34313,0.55242 0.38971,0.1237 0.40308,0.26265 0.40308,4.10259 0,3.69325 -0.0275,4.00664 -0.39171,4.42661 -0.40289,0.46454 -0.49088,0.81549 -0.26148,1.04489 0.0719,0.0719 1.04489,0.13074 2.16214,0.13074 1.69811,0 2.05124,-0.0524 2.15387,-0.31987 0.0675,-0.17597 0.0209,-0.48332 -0.10387,-0.68317 -0.12567,-0.20124 -0.22686,-1.10779 -0.22686,-2.03191 0,-1.47609 0.0404,-1.66863 0.35244,-1.66863 0.63664,0 0.8232,0.42402 0.8232,1.87172 0,1.70441 0.28046,2.60039 0.85886,2.74556 0.23509,0.059 0.99766,0.0808 1.69499,0.0481 1.22395,-0.0574 1.26616,-0.0769 1.21026,-0.54983 -0.42804,-3.62093 -0.49266,-3.79031 -1.63917,-4.30362 l -0.78342,-0.35088 0.55397,-0.20412 c 1.91068,-0.70382 2.35669,-2.80527 0.90382,-4.25814 -0.71684,-0.71682 -1.3043,-0.97983 -2.97552,-1.03766 z m -32.21819,0.006 c -1.86926,-0.0495 -2.0991,-0.019 -2.0991,0.27854 0,0.18379 0.13253,0.48035 0.29456,0.65939 0.26347,0.29113 0.22325,0.66592 -0.37931,3.54345 -0.99912,4.77135 -1.02811,4.88066 -1.39165,5.28237 -0.18452,0.20386 -0.28322,0.50609 -0.21962,0.67179 0.1735,0.45217 2.63814,0.43177 2.81275,-0.0233 0.0794,-0.20688 -0.0348,-0.45342 -0.31471,-0.68007 -0.27646,-0.22387 -0.41559,-0.52113 -0.37569,-0.80253 0.0572,-0.40338 0.16865,-0.44648 1.14153,-0.44648 1.03816,0 1.08024,0.0204 1.14154,0.55552 0.041,0.35792 -0.0577,0.64425 -0.27699,0.8046 -0.20821,0.15229 -0.29114,0.37648 -0.21394,0.57774 0.10929,0.28482 0.40906,0.32157 2.23397,0.27337 1.85966,-0.0491 2.11621,-0.098 2.17661,-0.41341 0.0377,-0.19666 -0.0837,-0.52565 -0.26975,-0.73122 -0.31039,-0.34297 -0.65559,-1.79398 -1.56063,-6.55464 -0.16394,-0.86235 -0.36596,-1.87633 -0.44906,-2.25361 l -0.15142,-0.68626 z m -18.30121,0.55966 c 0.0758,0.004 0.16025,0.0397 0.26665,0.1049 0.32241,0.19758 0.35879,0.6171 0.40669,4.64571 0.0502,4.21834 0.0347,4.43857 -0.32918,4.63331 -0.29001,0.15521 -0.45586,0.13067 -0.68936,-0.10284 -0.43759,-0.43758 -0.46005,-8.42744 -0.0253,-9.01288 0.14133,-0.19033 0.24414,-0.27434 0.37052,-0.2682 z m -69.56578,0.015 c 0.0893,0.002 0.18106,0.0364 0.28474,0.10181 0.28925,0.18245 0.32659,0.71856 0.32659,4.69222 v 4.48603 l -0.51418,0.0599 c -0.33489,0.0388 -0.55697,-0.052 -0.63717,-0.26096 -0.0676,-0.17633 -0.12299,-2.19928 -0.12299,-4.49482 0,-3.56904 0.0451,-4.21096 0.31058,-4.43125 0.1267,-0.10514 0.23763,-0.15552 0.35243,-0.15297 z m 9.58753,0.16692 c 0.24792,0 0.55639,0.10578 0.68574,0.23513 0.28629,0.28624 0.31839,3.04789 0.0439,3.76979 -0.13552,0.35643 -0.33493,0.50281 -0.68575,0.50281 h -0.49506 v -2.25412 c 0,-2.22116 0.007,-2.25361 0.45114,-2.25361 z m 31.86317,0 c 0.80177,0 0.90293,0.46443 0.95963,4.39043 0.0402,2.78013 -0.0111,3.8689 -0.2005,4.23281 -0.14024,0.26948 -0.4516,0.51854 -0.69144,0.55294 l -0.43563,0.0625 v -4.61935 c 0,-4.38826 0.0184,-4.61936 0.36794,-4.61936 z m 37.71243,0 c 0.24792,0 0.55638,0.10578 0.68574,0.23513 0.29323,0.29323 0.31892,3.35823 0.0326,3.8933 -0.11634,0.21739 -0.40925,0.3793 -0.68627,0.3793 h -0.48317 v -2.25412 c 0,-2.22116 0.007,-2.25361 0.45114,-2.25361 z m 40.27506,0 c 0.67191,0 0.8232,0.41387 0.8232,2.25361 0,1.12584 -0.0867,1.87054 -0.23513,2.019 -0.12936,0.12936 -0.39404,0.23512 -0.58807,0.23512 -0.31927,0 -0.35244,-0.2144 -0.35244,-2.25412 0,-2.03972 0.0332,-2.25361 0.35244,-2.25361 z m -32.08383,2.15594 c 0.0102,-0.0541 0.22166,0.9601 0.46974,2.25361 0.24809,1.29352 0.39371,2.39663 0.32401,2.45153 -0.24359,0.19189 -1.59629,-0.0275 -1.59629,-0.2589 0,-0.12845 0.17612,-1.1589 0.39171,-2.2903 0.21559,-1.1314 0.40063,-2.10184 0.41083,-2.15594 z" /><path
             id="path475"
             style="fill:#ed1e24;fill-opacity:1"
             d="m 722.73935,594.32703 c -0.28258,0.005 -0.57528,0.0535 -0.70074,0.14263 -0.30399,0.21589 -1.07122,1.25032 -1.07125,1.44435 2e-5,0.0933 0.22054,0.1695 0.4899,0.1695 0.51037,0 2.15717,-1.40333 1.92236,-1.63814 -0.0853,-0.0853 -0.35769,-0.12346 -0.64027,-0.11834 z m 38.60178,0.55707 v 0.87075 c 0,0.70609 -0.0744,0.89048 -0.39223,0.97358 -0.26931,0.0704 -0.39171,0.26707 -0.39171,0.62891 0,0.36184 0.1224,0.55902 0.39171,0.62942 0.35707,0.0934 0.39223,0.26733 0.39223,1.95336 v 1.85054 l 0.73483,-0.0605 0.73484,-0.061 0.0563,-1.79162 c 0.0498,-1.5905 0.0992,-1.80361 0.4408,-1.89291 0.53053,-0.13879 0.53313,-1.11506 0.003,-1.25367 -0.2871,-0.0751 -0.3962,-0.30126 -0.4408,-0.91261 -0.0573,-0.78541 -0.0841,-0.81453 -0.79427,-0.87333 z m 46.44884,0 -0.73484,0.061 c -0.71504,0.0592 -0.73672,0.0836 -0.79582,0.90434 -0.0366,0.50823 -0.17312,0.88668 -0.34313,0.95188 -0.38565,0.148 -0.37517,1.2423 0.0119,1.2423 0.23909,0 0.29404,0.32296 0.29404,1.73116 0,0.95218 0.0588,1.79 0.13074,1.8619 0.0719,0.0719 0.42462,0.13074 0.78393,0.13074 h 0.65319 v -1.8619 c 0,-1.73122 0.0277,-1.8619 0.39222,-1.8619 0.30288,0 0.39171,-0.13054 0.39171,-0.57464 0,-0.40262 -0.11712,-0.61198 -0.39171,-0.69918 -0.31537,-0.10009 -0.39222,-0.29667 -0.39222,-1.00511 z m -112.9869,0.0238 c -0.68396,0 -0.68575,0.002 -0.68575,0.90021 0,0.73547 -0.072,0.91882 -0.39222,1.00252 -0.27765,0.0726 -0.39171,0.26739 -0.39171,0.66766 0,0.43445 0.0904,0.56534 0.39171,0.56534 0.36447,0 0.39222,0.13068 0.39222,1.8619 v 1.8619 h 0.68575 0.68574 v -1.84846 c 0,-1.76749 0.0196,-1.8511 0.44132,-1.911 0.32301,-0.0459 0.4408,-0.19352 0.4408,-0.55242 0,-0.32014 -0.15268,-0.55675 -0.4408,-0.68316 -0.35807,-0.1571 -0.44132,-0.35097 -0.44132,-1.0294 0,-0.82417 -0.009,-0.83509 -0.68574,-0.83509 z m 9.99525,0 c -0.68395,0 -0.68574,0.002 -0.68574,0.90021 0,0.73547 -0.072,0.91882 -0.39223,1.00252 -0.27765,0.0726 -0.3917,0.26739 -0.3917,0.66766 0,0.43445 0.0903,0.56534 0.3917,0.56534 0.36448,0 0.39223,0.13068 0.39223,1.8619 v 1.8619 h 0.68574 0.68627 v -1.84846 c 0,-1.76749 0.0191,-1.8511 0.4408,-1.911 0.34537,-0.049 0.4408,-0.19007 0.4408,-0.6506 0,-0.40306 -0.0867,-0.56884 -0.27596,-0.52814 -0.389,0.0836 -0.59954,-0.3306 -0.60254,-1.18649 -0.003,-0.70875 -0.0279,-0.73484 -0.68937,-0.73484 z m 99.45905,0.005 c -0.46678,0.005 -0.97514,0.29525 -0.97514,0.79324 0,0.19703 0.1545,0.44823 0.34314,0.5581 0.78415,0.45673 1.50652,0.037 1.38699,-0.80615 -0.0538,-0.3796 -0.39194,-0.54891 -0.75499,-0.54519 z m -130.48351,0.0186 c -0.0561,7e-4 -0.11452,0.004 -0.17467,0.0114 -0.45873,0.0526 -0.56071,0.16697 -0.61081,0.68368 -0.0451,0.46514 0.0285,0.6433 0.29404,0.7121 0.64229,0.16646 0.81268,0.14074 1.12396,-0.17054 0.58493,-0.58492 0.20958,-1.24708 -0.63252,-1.23661 z m 91.13397,0 c -0.0561,7e-4 -0.114,0.004 -0.17415,0.0114 -0.67794,0.0777 -0.88731,0.87424 -0.33589,1.27744 0.46089,0.33702 0.76803,0.32285 1.14308,-0.0522 0.58492,-0.58492 0.20906,-1.24708 -0.63304,-1.23661 z m -57.2673,0.0744 c -0.61088,0 -0.69326,0.0622 -0.75086,0.56689 -0.0367,0.32187 0.0478,0.63784 0.19585,0.73174 0.14338,0.0909 0.39332,0.16537 0.55501,0.16537 0.54615,0 0.81594,-0.32271 0.75034,-0.89711 -0.0576,-0.5047 -0.13946,-0.56689 -0.75034,-0.56689 z m 18.12861,0 -0.0538,3.38119 -0.0537,3.38067 h 0.79323 0.79324 l -0.0532,-3.38067 -0.0537,-3.38119 h -0.68627 z m -59.67801,0.0982 v 3.33158 l -5.2e-4,3.33209 h 1.81591 c 2.01137,0 2.84803,-0.29537 3.56774,-1.25935 0.57507,-0.77002 0.57176,-3.178 -0.005,-3.96927 -0.71272,-0.97751 -1.90994,-1.43505 -3.75377,-1.43505 z m 1.37149,1.37201 h 0.87901 c 0.69412,0 1.01325,0.11987 1.51877,0.57154 0.54965,0.49115 0.64028,0.70145 0.64028,1.48725 0,0.75953 -0.0934,0.99538 -0.54984,1.38802 -0.39596,0.34059 -0.78489,0.47284 -1.38855,0.47284 -0.46109,0 -0.89703,-0.0588 -0.96893,-0.13074 -0.0719,-0.0719 -0.13074,-0.9535 -0.13074,-1.95957 z m 69.90633,0.1757 c -0.60586,0.009 -1.15892,0.23515 -1.63763,0.67386 -0.61988,0.56808 -0.72328,0.79236 -0.79168,1.71462 -0.0609,0.82085 0.0103,1.20347 0.31522,1.68879 0.71293,1.13472 1.90841,1.45599 3.4985,0.93999 0.41718,-0.13538 0.4408,-0.091 0.4408,0.82682 0,0.53358 0.0598,1.0303 0.13281,1.1033 0.073,0.0733 0.35983,0.10221 0.63717,0.0651 l 0.50436,-0.0672 0.0532,-3.44785 0.0532,-3.44734 -0.54363,0.0413 c -0.29915,0.0228 -0.64662,0.10492 -0.77205,0.18242 -0.12543,0.0776 -0.4617,0.0522 -0.74724,-0.0563 -0.39702,-0.15094 -0.77957,-0.22318 -1.14308,-0.21755 z m 8.13645,0.003 -0.0687,1.788 c -0.0576,1.49555 -0.13093,1.83401 -0.44907,2.06654 -0.46804,0.34211 -0.72282,0.34941 -1.14877,0.0331 -0.25407,-0.18873 -0.3348,-0.58226 -0.3514,-1.71462 -0.0302,-2.05128 -0.0481,-2.09211 -0.88211,-1.99471 l -0.70332,0.0817 0.0672,1.82469 c 0.0735,1.99759 0.42707,2.79247 1.35857,3.05305 1.28492,0.35944 2.60947,-0.009 3.18327,-0.8847 0.27445,-0.4189 0.33056,-0.87281 0.28526,-2.31717 l -0.0563,-1.79576 -0.61702,-0.0703 z m -72.33615,0.006 -0.0605,2.4722 c -0.0331,1.35975 -0.0237,2.50883 0.0212,2.55333 0.0449,0.0446 0.37605,0.0811 0.73536,0.0811 h 0.65319 v -2.50785 -2.50786 l -0.6749,-0.0455 z m 48.5066,0.003 c -1.49595,0.0539 -2.73098,1.08442 -2.75281,2.58382 -0.0158,1.08623 0.45464,1.84913 1.4702,2.38384 v -5.2e-4 c 1.19035,0.62673 3.54235,0.14899 3.85299,-0.7829 0.1122,-0.3366 -0.90653,-0.48948 -1.64279,-0.24649 -0.76381,0.25208 -1.46176,0.13608 -1.91616,-0.31833 -0.36949,-0.36948 -0.40147,-0.70122 -0.063,-0.65732 0.13474,0.018 1.10496,0.0221 2.15594,0.009 l 1.911,-0.0233 -5.2e-4,-0.53898 c -10e-4,-0.79295 -0.69591,-1.79652 -1.46709,-2.11874 -0.52142,-0.21786 -1.04907,-0.30838 -1.54771,-0.29042 z m -9.3493,0.008 c -2.05175,0 -3.40829,1.5802 -2.90887,3.38894 0.20125,0.72887 1.09261,1.57854 1.84847,1.76217 1.39563,0.33905 3.01533,-0.2404 3.54707,-1.26866 0.36631,-0.70839 0.34819,-2.01971 -0.0357,-2.60553 -0.45932,-0.70102 -1.56459,-1.27692 -2.45101,-1.27692 z m 18.65415,0 c -1.72645,0 -3.15397,1.53679 -2.8639,3.08302 0.15104,0.80507 1.19244,1.93111 1.91461,2.07015 2.16352,0.41654 3.87108,-0.68576 3.87108,-2.49855 0,-1.55517 -1.2101,-2.65462 -2.92179,-2.65462 z m 73.49371,0 c -0.96217,0 -0.99632,0.0912 -0.99632,2.67891 v 2.44067 l 0.69918,-0.061 0.69918,-0.061 v -1.95957 c 1.3e-4,-3.14607 0.0148,-3.03806 -0.40204,-3.03806 z m -53.59569,5.2e-4 c -1.86315,-10e-4 -2.98776,1.20273 -2.81379,3.01325 0.0787,0.81864 0.20606,1.08197 0.73794,1.526 0.35348,0.2951 0.82764,0.57769 1.05369,0.62839 0.76724,0.17189 2.4318,-0.0392 2.94142,-0.3731 1.1028,-0.72258 0.30943,-1.25749 -1.26607,-0.8537 -0.88427,0.22663 -1.01892,0.21454 -1.48208,-0.13126 -0.28018,-0.20919 -0.50028,-0.46839 -0.48938,-0.57619 0.0116,-0.114 0.93138,-0.21926 2.19935,-0.25166 l 2.17971,-0.0558 -0.12402,-0.62012 c -0.28467,-1.42334 -1.40692,-2.3048 -2.93677,-2.3058 z m 44.82207,0 c -2.82211,0.003 -3.54047,3.82533 -0.94413,5.0245 0.3745,0.17297 0.87267,0.22722 1.37201,0.14882 0.43117,-0.0677 1.24984,-0.10865 1.81901,-0.091 l 1.03456,0.032 -0.0548,-2.50165 -0.0548,-2.50166 -0.58807,-0.0176 c -0.32338,-0.01 -0.69277,0.0598 -0.82062,0.154 -0.13628,0.10049 -0.39415,0.0846 -0.62374,-0.0382 -0.21539,-0.11525 -0.72815,-0.20969 -1.13946,-0.20929 z m 6.60786,0.003 c -0.29878,0.007 -0.61414,0.0662 -0.67954,0.17208 -0.0601,0.0972 -0.41115,0.10724 -0.786,0.0227 -0.37245,-0.084 -0.72567,-0.10426 -0.78497,-0.045 -0.0593,0.0593 -0.10748,1.19546 -0.10748,2.52491 v 2.41742 h 0.68574 0.68575 v -1.24953 c 0,-1.96075 0.15717,-2.47625 0.79323,-2.60346 0.47938,-0.0959 0.76115,-0.49615 0.77205,-1.09606 0.002,-0.10439 -0.28,-0.14993 -0.57878,-0.14314 z m -124.8947,0.002 c -1.47662,-0.1015 -2.62911,1.31205 -1.39682,2.45411 0.28523,0.26434 0.61584,0.48273 0.73484,0.48473 0.119,0.002 0.43694,0.174 0.70642,0.38137 0.39011,0.30019 0.4405,0.42704 0.24701,0.62115 -0.19375,0.19438 -0.3914,0.17297 -0.9741,-0.1049 -0.7215,-0.34409 -0.73567,-0.34277 -1.0852,0.0889 -0.32798,0.40499 -0.33056,0.46313 -0.0346,0.79013 0.17573,0.19418 0.50873,0.39454 0.74001,0.44494 h 5.2e-4 c 1.49405,0.32555 2.87011,-0.41466 2.87011,-1.54358 0,-0.70009 -0.30981,-1.03546 -1.51877,-1.64331 -0.83543,-0.42003 -1.09122,-0.80253 -0.5364,-0.80253 0.16315,0 0.47228,0.10943 0.68678,0.24339 0.28861,0.18025 0.47893,0.18744 0.73225,0.0279 0.54267,-0.34175 0.49806,-0.74078 -0.12351,-1.10795 -0.34995,-0.20671 -0.70775,-0.31092 -1.04851,-0.33434 z m 22.21828,0.002 c -0.8341,-0.034 -1.84602,0.37133 -2.41019,1.04645 -0.24043,0.28772 -0.3495,0.75732 -0.3545,1.51722 -0.007,1.25485 0.42736,1.99189 1.44694,2.45308 0.38519,0.17429 0.88908,0.22877 1.38855,0.15037 0.43118,-0.0677 1.24689,-0.10886 1.81281,-0.0915 l 1.02887,0.0315 v -2.53163 -2.53163 l -0.89968,0.16795 c -0.55537,0.10376 -1.03785,0.0941 -1.26091,-0.0253 -0.21544,-0.1153 -0.47385,-0.17522 -0.75189,-0.18655 z m 80.70825,0.007 c -0.39945,0.002 -0.81029,0.10167 -1.17357,0.31626 -0.5274,0.31151 -0.59628,0.31034 -1.21956,-0.0253 -0.4817,-0.25945 -0.8694,-0.32119 -1.43092,-0.22789 -0.88667,0.1473 -1.10503,0.15616 -2.04432,0.0822 l -0.68627,-0.0543 -0.0548,2.49546 -0.0548,2.49545 h 0.78962 0.79013 v -1.52445 c 0,-1.70397 0.30745,-2.3952 1.06505,-2.3952 0.73103,0 0.95997,0.49324 1.05317,2.26807 l 0.0868,1.65158 h 0.66146 0.66146 v -1.56786 c 0,-1.30658 0.0651,-1.63345 0.39171,-1.96009 0.21558,-0.21559 0.5636,-0.3917 0.77308,-0.3917 0.68409,0 0.99063,0.74168 0.99063,2.3952 v 1.52445 h 0.68627 0.68574 v -1.64124 c 0,-0.90277 -0.0524,-1.90308 -0.11627,-2.2226 -0.151,-0.75503 -0.97588,-1.22264 -1.85467,-1.21802 z m -90.70816,0.01 c -0.51682,0.0199 -1.01549,0.15359 -1.4149,0.41961 -0.89201,0.59414 -1.4319,1.71368 -1.26245,2.6169 0.15309,0.81605 1.0255,1.79723 1.80609,2.0314 2.61391,0.78415 4.84986,-1.47692 3.68608,-3.72742 -0.45246,-0.87497 -1.67779,-1.38421 -2.81482,-1.34049 z m 100.27554,5.2e-4 c -0.21082,-0.005 -0.43842,0.0147 -0.68833,0.0568 -0.84799,0.1429 -1.07181,0.15163 -2.00815,0.078 l -0.68626,-0.0537 -0.0538,3.22254 c -0.0298,1.77248 -0.008,3.34188 0.0476,3.48764 0.0641,0.16711 0.33749,0.24241 0.74,0.20361 0.62423,-0.0602 0.63965,-0.0847 0.69815,-1.10743 0.0509,-0.89052 0.10887,-1.0267 0.39171,-0.91725 1.255,0.48565 2.09405,0.34935 3.05873,-0.49765 1.11007,-0.97466 1.15691,-2.64758 0.10387,-3.72483 -0.48842,-0.49965 -0.97107,-0.73332 -1.60352,-0.74776 z m -31.53244,0.007 c -0.13982,0.003 -0.30663,0.0199 -0.5178,0.0465 -1.13011,0.1423 -1.32991,0.14973 -2.20039,0.0811 l -0.68574,-0.0543 -0.0548,2.49546 -0.0553,2.49545 h 0.79013 0.78962 v -1.52445 c 0,-1.70397 0.30744,-2.3952 1.06505,-2.3952 0.70823,0 0.87334,0.38178 0.93534,2.16524 l 0.0574,1.65623 0.73484,0.061 0.73536,0.061 v -1.98695 c 0,-1.94943 -0.0111,-1.99803 -0.59222,-2.57918 -0.40494,-0.40492 -0.58205,-0.52966 -1.00148,-0.52193 z m 10.56938,0.0119 c -0.44876,-0.0129 -0.6974,0.0897 -1.13327,0.38602 -0.93694,0.63686 -1.20971,1.23383 -1.12241,2.45825 0.0806,1.13031 0.45886,1.70268 1.41335,2.13785 0.34875,0.15927 0.90701,0.22593 1.37201,0.16433 0.43117,-0.0571 1.25839,-0.12411 1.83813,-0.14831 l 1.05368,-0.0439 -0.0191,-2.15594 c -0.0106,-1.18573 -0.0223,-2.27053 -0.0253,-2.41071 -0.004,-0.1757 -0.29474,-0.24828 -0.93638,-0.23358 -0.51202,0.0117 -1.37202,-0.0356 -1.91099,-0.10542 -0.20843,-0.027 -0.3801,-0.0443 -0.52968,-0.0486 z m -85.29144,0.0238 c -0.12961,0.004 -0.26683,0.0156 -0.41341,0.0331 -0.53897,0.0643 -1.42112,0.10869 -1.96009,0.0982 l -0.97978,-0.0191 0.0403,3.29127 c 0.0221,1.81017 0.0436,3.36273 0.0486,3.45043 0.005,0.0877 0.29563,0.13199 0.64596,0.0982 0.62268,-0.06 0.63809,-0.0852 0.69659,-1.10743 0.0511,-0.89313 0.10855,-1.02612 0.39223,-0.91157 2.63696,1.06477 5.04304,-1.56807 3.5109,-3.84162 -0.5527,-0.82013 -1.074,-1.12238 -1.98128,-1.09141 z m 24.15615,0.0263 c -0.13763,0.004 -0.30606,0.0316 -0.51211,0.0687 -0.42927,0.0773 -0.4408,0.14361 -0.4408,2.50631 v 2.42724 h 0.78393 0.78393 v -2.43551 c 0,-2.13998 -0.0186,-2.58233 -0.61495,-2.56677 z m 57.74531,0.005 -0.53898,0.0243 c -0.29643,0.0135 -0.62757,0.0356 -0.73536,0.0491 -0.21837,0.0273 -0.28021,4.5784 -0.0651,4.7935 0.0719,0.0719 0.42708,0.13074 0.78961,0.13074 h 0.6594 l -0.0548,-2.49907 z m -82.39652,1.07797 c 0.64282,0 1.55133,0.74613 1.55133,1.27434 0,0.56642 -0.56427,1.41705 -1.02113,1.53944 -0.6946,0.18606 -0.84773,0.15536 -1.40198,-0.28061 -1.02117,-0.80326 -0.42587,-2.53317 0.87178,-2.53317 z m 16.48582,0 c 0.71255,0 1.52859,0.78449 1.52859,1.46967 0,0.27928 -0.21653,0.7245 -0.48111,0.98909 -0.54481,0.54481 -0.95636,0.58917 -1.70119,0.18449 -1.19479,-0.64916 -0.70158,-2.64325 0.65371,-2.64325 z m 12.5181,0 c 0.36493,-0.006 0.74548,0.15327 1.0728,0.48059 0.56511,0.56511 0.61752,1.27112 0.13797,1.84898 -0.18876,0.22712 -0.62382,0.46703 -0.96686,0.5333 -0.50331,0.0972 -0.72137,0.0233 -1.12707,-0.38241 -0.60865,-0.60861 -0.64116,-1.27197 -0.0966,-1.96422 0.2655,-0.33751 0.61485,-0.50997 0.97979,-0.51624 z m 9.68726,0 c 0.59331,0 1.27382,0.31774 1.27382,0.59479 0,0.10399 -0.57317,0.18914 -1.27382,0.18914 -0.70066,0 -1.27382,-0.0851 -1.27382,-0.18914 0,-0.27705 0.68051,-0.59479 1.27382,-0.59479 z m 15.83934,0 c 1.32093,0 1.95673,1.52626 1.02423,2.45876 -0.67266,0.67265 -1.54858,0.56668 -2.21382,-0.26717 -0.60387,-0.75691 0.17496,-2.19159 1.18959,-2.19159 z m 31.75,0 c 1.21297,0 1.92483,1.42117 1.16272,2.32182 -0.36724,0.43404 -1.13707,0.66461 -1.61695,0.48472 -0.46165,-0.17305 -0.97065,-0.90091 -0.97565,-1.39474 -0.006,-0.58753 0.82908,-1.4118 1.42988,-1.4118 z m 19.96416,0 c 1.24749,0 1.81405,1.75093 0.81959,2.53317 -0.78352,0.61631 -1.69256,0.46742 -2.11357,-0.34674 -0.54674,-1.05728 0.12148,-2.18643 1.29398,-2.18643 z m 6.57272,0 c 1.14407,0 1.83105,0.98393 1.40509,2.01228 -0.12949,0.31263 -0.44778,0.64905 -0.70745,0.74775 -0.68777,0.26149 -0.92265,0.22578 -1.4981,-0.22686 -1.01467,-0.79814 -0.46635,-2.53317 0.80046,-2.53317 z m -106.07879,0.015 c 0.34304,0.0191 0.69537,0.16569 0.99529,0.46561 0.56511,0.56511 0.61812,1.27327 0.13797,1.84071 -0.87483,1.03387 -2.59674,0.47372 -2.59674,-0.84491 0,-0.92694 0.70878,-1.50347 1.46348,-1.46141 z m 60.77355,0.006 c 0.45523,-0.0249 0.96357,0.0926 1.29036,0.36483 l 0.4625,0.38447 -1.41438,0.007 c -1.1346,0.005 -1.39398,-0.0479 -1.30948,-0.2682 0.11372,-0.29636 0.51577,-0.46342 0.971,-0.48834 z m -19.60759,0.0109 c 0.34277,0.0147 0.69335,0.1554 0.98702,0.44907 0.56522,0.56522 0.61781,1.27106 0.13798,1.84898 -0.86194,1.03816 -2.59674,0.47713 -2.59674,-0.83974 0,-0.91114 0.71764,-1.49059 1.47174,-1.45831 z" /></g><path
           style="fill:none;fill-opacity:1;stroke:#000080;stroke-width:1.30751;stroke-linecap:round;stroke-miterlimit:5.3;stroke-opacity:1;paint-order:stroke markers fill"
           d="M 196.49391,499.12183 V 600.3347"
           id="path560" /></g><text
         xml:space="preserve"
         style="font-size:6.8721px;line-height:1.3em;font-family:TypoGraphica;-inkscape-font-specification:'TypoGraphica, Normal';text-align:justify;letter-spacing:0.32014583px;word-spacing:0px;writing-mode:lr-tb;direction:ltr;opacity:1;fill:#ffffff;stroke-width:0.859413;stroke-linecap:round;stroke-miterlimit:5.3;paint-order:stroke markers fill"
         x="138.85007"
         y="509.38669"
         id="text1"><tspan
           sodipodi:role="line"
           id="tspan1"
           style="fill:#ffffff;stroke-width:0.859413;letter-spacing:0.32014583px"
           x="138.85007"
           y="509.38669">Avant</tspan></text><text
         xml:space="preserve"
         style="font-size:6.8721px;line-height:1.3em;font-family:TypoGraphica;-inkscape-font-specification:'TypoGraphica, Normal';text-align:justify;letter-spacing:0.320146px;word-spacing:0px;writing-mode:lr-tb;direction:ltr;opacity:1;fill:#ffffff;stroke-width:0.859413;stroke-linecap:round;stroke-miterlimit:5.3;paint-order:stroke markers fill"
         x="235.41855"
         y="509.38669"
         id="text2"><tspan
           sodipodi:role="line"
           id="tspan2"
           style="letter-spacing:0.320146px;fill:#ffffff;stroke-width:0.859413"
           x="235.41855"
           y="509.38669">Après</tspan></text></g></g></svg>
